<?xml version="1.0" encoding="utf-8"?>
<!-- Generator: Adobe Illustrator 28.2.0, SVG Export Plug-In . SVG Version: 6.00 Build 0)  -->
<svg version="1.1" id="Layer_1" xmlns="http://www.w3.org/2000/svg" xmlns:xlink="http://www.w3.org/1999/xlink" x="0px" y="0px"
	 viewBox="0 0 800 600" style="enable-background:new 0 0 800 600;" xml:space="preserve">
<style type="text/css">
	.st0{fill:#A191E5;stroke:#FFFFFF;stroke-width:0.5;stroke-linecap:round;stroke-linejoin:round;}
	.st1{fill:#C1C1C1;stroke:#FFFFFF;stroke-width:0.5;stroke-linecap:round;stroke-linejoin:round;}
</style>
<a title="Tokyo" href="tokyo.html">
	<path id="Tokyo" class="st0" d="M462.4,368.7l-0.3-0.2l-0.2,0.3l-0.1,0.4l-0.3-0.3l-0.1-0.5h-0.3l-0.2,0.6l-0.3,0.5l-0.4-0.4v-0.7
	l-0.3-0.4l-0.2,0.7l0.3,0.9l0.4,0.6v0.4l0.4,0.9l-0.3,0.4v0.4v0.1h-0.1l-2.2-0.8l-0.7-0.5l-0.1-0.1l-0.2-0.1l-2.9-1.5H454l-0.3,0.1
	l-0.3,0.1l-0.2,0.1l-0.1,0.2L453,370h-0.2l-0.4-0.2h-0.2v0.2l0.2,0.2l0.6,0.6l0.1,0.2v0.1l-0.1,0.2h-0.2l-0.1,0.3l0.1,1v0.3v0.2v0.1
	h-0.1h-0.1l-0.1-0.1l-0.8-1.1l-0.2-0.4l-0.5-0.5l-0.5-0.3l-0.9-0.2l-1.1-0.1l-0.8-0.2l-0.5-0.3l-1-1l-0.5-0.2l-0.9-0.6l-0.6-0.1
	l-2.2-1.3l-1.1-1.1l-0.3-0.4l-0.2-0.5l-0.6-1.7l-0.6-0.6l0.8-0.7l1-0.6l0.3-0.1h0.2l0.8,0.6l0.4,0.2l5.3,1.4l0.5,0.2l2.4,1.5
	l0.7,0.1h0.6l0.5-0.1l0.4-0.2l0.6-0.4l0.4-0.1h0.2l0.2,0.1l0.1,0.2l0.1,0.2l0.2,0.2l1.7-0.2l0.3-0.3l0.3-0.2l0.4-0.1h1.6h0.2
	l0.2-0.1l0.2-0.3l0.2-0.1l0.4-0.1l1.2,0.2l1.5,0.4l0.6,2.5l-0.1,0.7l-0.1,0.4L462.4,368.7z M815.9,697.6l0.2-0.2l0.1,0.1v0.2h-0.1
	L815.9,697.6L815.9,697.6z M815.7,697.1l-0.3,0.4l-0.3-0.5l0.3-0.1L815.7,697.1z"/>
</a>
<path id="Fukuoka" class="st0" d="M216.1,434.8l0.1-0.1l0.1-0.7l0.3-0.3l0.8-0.3l0.4-0.2l0.3,0.1l0.3-0.2l0.1-0.1h0.3l0.3-0.1
	l0.3-0.3l0.2-0.4h-0.3l-0.8,0.2l-0.2-0.1l-0.1-0.4l-0.2-0.1l-0.3-0.1l-0.1-0.1v-0.2l0.1-0.2l0.3-0.2h0.3h0.2l0.3-0.1l0.4-0.4
	l-0.1-0.4l0.1-0.3h0.3h0.3h0.2l0.2-0.1l0.2-0.2l0.1-0.8l0.3,0.2l0.3,0.2l0.1,0.3l-0.2,0.3l0.1,0.5l0.4,0.2l0.2,0.1l0.5-0.1l0.1,0.2
	L222,431l0.2,0.2l0.3,0.2l0.1,0.1l0.1-0.1h0.2l0.1-0.2l0.2-0.4h0.4h0.7l0.4-0.2l0.4-0.1l0.2-0.3l0.1-0.4l0.1-0.6l-0.1-0.2l-0.1-0.3
	l-0.5,0.3l-0.4,0.4l-0.3,0.2l-0.3-0.2l-0.3-0.2l-0.2-0.2l-0.3,0.1l-0.3-0.3l-0.1-0.5l0.1-0.2l0.3,0.1l0.1,0.4l0.3,0.2l0.5,0.1l1-0.4
	l0.4-0.4l0.3-0.4l0.3-0.3l0.4-0.1l0.2-0.3l0.4-0.5l0.1-0.6l-0.1-0.5l-0.3-0.1l-0.2-0.2v-0.4l0.1-0.2l0.2-0.1l0.3-0.2l0.1-0.2
	l0.3-0.9l0.2,0.2h0.3l0.6-0.4l0.2-0.2l0.1-0.2l0.1-0.1l0.4-0.1l1.2,0.1l0.5-0.1l0.5-0.4l0.8-1.1l0.2-0.1h0.3h0.3l0.4,0.2l0.6-0.4
	h0.9l0.9,0.1l-0.2,0.6l0.4-0.2h0.6l0.2,0.4l0.2,0.5l0.4,0.2l0.4-0.1l0.3-0.2l0.4-0.5l0.2-0.6l0.7-0.6l0.8-0.3l0.3,0.3l-0.1,0.6
	l-0.2,0.4l-0.1,0.2v0.2l-0.3,0.4l0.2,0.3v0.4h-0.4l0.1,0.3l0.1,0.2l-0.2,0.2l-0.1,0.2l-0.4,0.3v0.4v0.1l0.1,0.1l0.5,0.1l0.5-0.1
	l-0.1,1l0.1,0.2l0.1,0.8l0.3,0.6l0.8,1.3l0.3,0.9l0.4,0.6l0.5,0.3l0.4-0.1l0.6,0.1l1.1,0.2l0.3,0.1l-0.1,0.2l-0.3,0.3l-0.1,0.1
	l-0.1,0.3v0.4l0.2,0.7v0.3l-0.2,0.3l-0.3,0.4l-0.1,0.3l-0.2,0.2l-0.2,0.1h-0.4l-1.5-0.2l-1.5-0.1h-0.2l-0.4,0.1l-0.8,0.3l-0.3,0.2
	l-0.3,0.3l-0.4,0.5l-0.6,0.7l-0.3,0.5l-0.2,0.7l-0.6,1l-0.1,0.2v0.2v0.2v0.3l0.2,0.8v0.5l-0.4,1.3l0.1,0.5l0.5,1.6l0.1,0.5l-0.5,1.9
	l-1.2-0.6l-1.5-1l-0.3-0.1h-0.4h-0.4l-0.3,0.1l-0.6,0.7l-0.3,0.3l-0.5,0.1l-1,0.1l-0.4,0.2l-0.4,0.4l-0.6,0.5l-0.3,0.4l-0.2,0.5v0.5
	v0.2l-0.1,0.2v0.1l-0.4,0.2l-1,0.2l-0.4,0.3l0,0l-0.1-0.8l0.1-1.3l-0.2-0.6v-0.4v-0.1l-0.1-0.1h-0.1h-0.1l-0.1-0.1l-0.5-0.4
	l-0.2-0.2l-0.1-0.3v-0.3l-0.1-0.2l-0.4-0.1l0,0l-0.1-0.4v-0.3v-0.4l0.2-0.3l0.2-0.2l0.1-0.1l0.1-0.2l0.1-0.6l0.2-0.3l0.2-0.2
	l0.3-0.1l0.2-0.2l0.2-0.1h0.5l0.2-0.1l0.3-0.5l0.1-0.2l0.2-0.5l0.2-0.3l0.3-0.2l0.3-0.1h0.2l0.2-0.1l0.1-0.2l0.1-1v-0.2l-0.2-1
	l-0.1-0.1l-0.2-0.2l-0.3-0.1l-0.5,0.1l-0.7,0.3l-0.3,0.2l-0.5,0.4h-0.3l-0.3-0.2l-0.5-0.6l-0.3-0.2l-0.4-0.2l-1.5-1l-0.4-0.2
	l-0.4-0.1h-0.7h-0.5l-1.2,0.2h-1.1l-0.8,0.1L216.1,434.8L216.1,434.8z"/>
<path id="Kyoto" class="st0" d="M337.1,367.9h0.4l0.1,0.4l0.3-0.1l0.4,0.1l0.3,0.1l0.5-0.4l0.2-0.1l0.3-0.1l-0.1-0.4l0.7-0.5h0.6
	l0.5-0.1l0.4-0.3l1-0.7v-0.4l1.3-0.4l1.2-0.3l0.7-0.1l0.4-0.3l0.6,0.4l0.3,0.6l0.4,0.3l0.4,0.6l0.3,0.7l0.1,0.5l-0.2,0.4l-0.5-0.3
	l-0.5,0.4l-0.3,0.7l-0.1,0.4l-0.2,0.3l-0.7,0.8l-0.4,0.7v0.6l0.2,0.2h0.3v-0.5l0.3-0.3l0.3-0.5l0.3-0.2l0.1,0.6l0.3,0.1l0.1,0.1
	l-0.2,0.2h-0.3h-0.3v0.5l1.6,0.9l0.4-0.2l0.2-0.2l0.3,0.5L349,373l-0.1,0.3l-0.2,0.6v0.2l0.1,0.4l0.3-0.2l0.2-0.5l0.3-0.5h0.5
	l0.6,0.3l0.2-0.2v-0.8l-0.7,0.2l-0.6-0.3l-0.3-0.8l0.6-0.5l0.3-0.1h0.7l0.3-0.1l0.2-0.3l0.2-0.3l0.1-0.3l0.6-0.4l-0.1,0.5l-0.1,0.5
	l0.4,0.2l0.3,0.2l-0.1,0.5l-0.1,0.1l-0.3,0.2l-0.3,0.2l-0.3,0.3l-0.1,0.3l0.1,0.3l0.1,0.3l0.1,0.3v0.2l-0.2,0.4v0.3l0.1,0.4l0.8,1
	l0.4,0.4l0.2,0.3l0.2,0.3l0.5,0.3l3.7,1l1.4-0.2l0.7,0.6l1.4,1.7v0.5l-0.3,1.1v0.4l0.3,1.4l0.1,0.5v0.5l-0.5,3.5v0.1l0.3,0.6
	l0.4,0.6l0.4,0.8l0.1,0.4v0.4v0.5l0.1,0.3l0.1,0.2l0.3,0.2l0.3,0.1h0.4l0.3-0.1l0.3,0.2l0.2,0.3l0.2,0.3l0.2,0.2l0.6,0.3l0.3,0.3
	l0.2,0.3l0.1,0.3v0.6l0.8,1.8l-0.2,0.4l-0.2,0.2l-0.3,0.1h-0.2l-0.3-0.2l-0.5-0.3l-0.8-0.3h-0.6l-0.5,0.2l-0.4,0.3l-0.6,0.3h-0.4
	l-0.4-0.2l-0.2-0.1l-1-0.3l-0.4-0.2l-0.3-0.2l-0.4-0.5l-0.4-0.3l0.2-0.8l-0.2-0.8l-0.2-0.4l-0.5-0.7l-0.9-1.7l-0.3-0.3L356,391h-0.3
	l-0.3-0.2L355,390l-0.2-0.1l-0.2,0.1l-0.1,0.2l-0.1,0.2l0.1,0.2l0.1,0.3l-0.2,0.2h-0.5l-0.9-0.5l-0.5-0.4l-0.4-0.5l-0.3-0.6
	l-0.4-0.3l-0.3-0.1l-0.9-0.1l-0.7-0.2l-0.5-0.5l-0.1-0.2v-0.3l0.2-0.1l0.3-0.1l0.5-0.3l0.5-0.5l0.1-0.4l-0.1-0.3l-0.2-0.4l-0.2-0.2
	l-0.9-0.7l-0.3-0.1l-0.7,0.1l-0.3-0.1l-0.2-0.3l-0.3-0.3l-0.4-0.1h-0.4H346l-0.6-0.4l-0.3-0.4l-0.4-0.8l-0.3-0.9l-0.2-0.2l-0.1-0.1
	h-0.5l-0.3,0.1l-0.6,0.3h-0.4L342,381l-0.9-0.4l-0.3-0.4l-0.3-0.2l-0.3-0.2l-0.9-0.2l-0.5-0.2l-0.2-0.3l-0.1-0.3v-0.2l0.1-1.2
	l0.1-0.3l0.1-0.4l0.2-0.2h0.3l0.3,0.1l0.6,0.4l0.2,0.1h0.2h0.3l0.2-0.1l0.2-0.2l0.2-0.3l0.2-0.3l0.1-0.3v-0.3l-0.1-2l-0.1-0.6
	l-0.2-0.3l-0.3-0.2h-0.3l-0.3,0.1l-0.8,0.4l-0.4,0.1l-0.5-0.1l-0.6-0.4l-0.7-1l-0.3-0.5l-0.1-0.4l-0.1-0.4v-0.5v-0.3v-0.3
	L337.1,367.9z"/>
<path id="Nagoya" class="st0" d="M402.3,398.1l-1,0.1l-2.2,0.6l-5,1.8l-1.1-0.1l-1.3,0.4h-0.3H391l0.2-0.4l0.2-0.2l0.3-0.6l0.2-0.9
	l0.5-0.5l0.7,0.8l0.1,0.2l0.2,0.2l0.2-0.3l0.1-0.1l0.4-0.2l0.4-0.2l0.4-0.2l0.7-0.5l1.1-0.7l0.5-0.2l0.6-0.8l0.4,0.1v0.7l-0.1,0.5
	l0.2,0.1l0.2-0.5v-0.6l0.6,0.2l0.2-0.2l-0.7-0.3l0.2-0.6l0.1-0.4l-0.1-0.2l-0.6-0.7l-0.4-0.3l-0.3,0.2l-0.5-0.2l-0.6-0.2l-0.4,0.4
	l-0.3-0.1l-0.1,0.6l-0.1,0.6l-0.4,0.2V395l-0.4,0.1l-0.4-0.2h-0.5l-0.5,0.1l-0.4,0.3l-0.4-0.3l-0.6,0.2l-0.5-0.1l-0.3-0.1l-0.4-0.6
	l-0.2-0.2l-0.5-0.5l-0.5-0.2l0.1-0.8l0.5-1.2l-0.1-0.8l-0.2,0.4l-0.3,0.8l-0.5,0.7l-0.2,0.4l-0.1,0.6l-0.3,1.6l0.3,0.4l0.3,0.5
	l0.6,0.3l0.2,0.7v0.5l-0.7-0.1l-0.8-0.4l-0.9-0.5L387,396l-0.3-0.4v-0.5l0.3-0.6l0.1-0.5l0.2-0.5V393l-0.2-0.6l-0.3-0.4h-0.4
	l-0.1-0.7v-0.7V390v-0.5l0.2-0.5l0.3-0.5l0.3-0.6l0.2-0.5l0.3-0.6l0.1-0.8l0.1-0.6l-0.3-0.1l-0.4,1l-0.2,0.7l-0.1-0.7v-0.4l-0.3-0.1
	l0.2,1.4l-0.7,0.2l-0.1-0.7h-0.2v0.7l-0.5,0.1l-0.7-0.2l-0.4-0.5l-0.3-0.5l-0.4-1l-0.3-0.5l-0.4-0.4l-0.3-0.5l0.1-2.4l0.1-0.6
	l1.1-1.7l0.7-1.5l0.2-0.3l0.2-0.1l0.1,0.1l0.3,0.2h0.2h0.2l0.6-0.3l0.5-0.2l1.5-0.3l0.6-0.3l0.2-0.1l0.3-0.1l0.3,0.1l0.7,0.5
	l0.5,0.3l0.2,0.2l0.1,0.3l0.1,0.4l0.1,0.1l0.1,0.1l0.2,0.2l0.2,0.2l0.3,0.6l0.2,0.2l0.2,0.1h0.4l0.3,0.1l0.3,0.2l0.8,0.6l0.2,0.1
	l0.3,0.1h0.5l1.6-0.8l0.4-0.1h0.3l1.1,0.6l0.5,0.2l0.4,0.2l0.5,0.5l0.4,0.2h0.4l1.1-0.5l0.6-0.4l0.2-0.2l1.2-0.5l-0.2,1l0.4,1.1
	l0.2,0.3l0.2,0.2h0.3l0.7-0.1l0.3-0.2l0.3-0.2l0.5-0.1h0.5l1.7,0.4l1.4,0.1l-0.2,1v0.8l-0.2,0.7l-0.4,1l-0.4,0.6l-1.4,1.4l-0.3,0.5
	l-0.2,1.3l-0.1,0.4l-0.9,1.1l-0.2,0.5l-0.2,0.5l-0.2,0.3l-0.8,0.7l-0.2,0.1l-0.2,0.1l-1.3,0.4l-0.4,0.2l-0.2,0.3l-0.4,1.2l-0.1,0.6
	l-0.1,0.8v0.6l0.1,0.4v0.2L402.3,398.1z M385.6,391.9h0.3l0.3,0.4l0.1,0.4l-0.3,0.1v0.2h-0.2L385.6,391.9z"/>
<path id="Osaka" class="st0" d="M342.6,409.4l0.5-0.6l2.6-0.7l1.2-1l0.6-0.6l1-1l0.8-1.2l0.5-0.5v-0.7v-0.3l0.4-0.1l0.2-0.3l0.2-0.2
	l0.2-0.5V401v-0.9l-0.2-0.7l-0.1-0.8l0.2-1l0.5-0.4l0.2-0.3l0.1-0.1v-0.1l0.1-0.2l-0.1-1l-0.3-1v-0.7l0.1-0.5l0.1-0.5v-0.5v-0.7
	v-0.4l-0.2-0.2l-0.8-0.4l-0.8-0.9l-0.1-1.3l0.7,0.2l0.9,0.1l0.3,0.1l0.4,0.3l0.3,0.6l0.4,0.5l0.5,0.4l0.9,0.5h0.5l0.2-0.2l-0.1-0.3
	l-0.1-0.2l0.1-0.2l0.1-0.2l0.2-0.1l0.2,0.1l0.4,0.8l0.3,0.2h0.3l0.3,0.1l0.3,0.3l0.9,1.7l0.5,0.7l0.2,0.4l0.2,0.8l-0.2,0.8l-0.5,1.6
	l-0.3,0.5l-0.2,0.5l-0.5,2.2l-0.6,1.4v0.3l0.1,0.2l0.4,0.3l0.2,0.3l0.4,0.7l0.2,0.9l0.1,0.5v0.4l-0.2,0.8v0.6l-0.1,0.2l-0.1,0.2
	l-0.3,0.1l-1.1,0.1l-1.9,1l-0.4,0.1H353l-0.3-0.1h-0.6l-3.1,0.9l-0.5,0.2l-3.1,0.7h-1.7L343,410L342.6,409.4z M345.6,405.5l0.9-0.7
	l0.4,0.6l-0.8,0.6l-0.3-0.2L345.6,405.5z"/>
<g id="Japan">
	<path class="st1" d="M209.8,484.2l0.2,0.4l0.2,0.6v0.5l-0.3,0.2l-0.3,0.2l-0.9,1.6l-0.3,0.9l-0.3,0.2l-0.6,0.5l-0.5-0.2l-0.5-0.4
		l-0.1-0.5l0.5-0.2l0.4-1l0.7-0.9l0.4-0.2l0.5-0.2l0.4-0.5l0.2-0.6L209.8,484.2z M244.1,493.8l-0.5,0.1L243,494l-0.9,0.4l-0.4,0.3
		l-0.3,0.4l-0.4,0.8l-0.4,1.1l0.3,0.3l0.9,0.3l0.6,0.2l0.5,0.3l0.1,0.3l-0.1,0.2l-0.5,0.4l-0.2,0.4l0.5,0.2l0.8-0.4l0.2,0.3
		l-1.8,1.6l-0.7-0.1l-0.6,0.2v0.6l-0.2,0.4l-0.4,0.9l-0.3,0.4l-0.3,0.3l-0.4,0.3l-0.4,0.2l-0.4,0.2l-0.9,0.3l-0.6,0.2l-0.6,0.1
		l-0.7,0.3l-0.5,0.4l-0.2,0.3l-1.1,0.3l-0.8,0.8l-0.4,0.4l-0.5,0.1l0.1-1.9l0.6-0.6l1-0.6l0.4-0.3l0.6-1.9l-0.3-0.5l0.7-1.1l0.2-1
		l0.2-1.5v-0.6l-0.3-0.8l-0.3-0.9l-0.6-1l-1.1-0.7l-0.3-0.8l0.3-1.3l-0.2-0.5l-1.5-0.3l-0.4-0.3l-0.3-0.1l-0.3-0.2l-0.2-0.4l0.6-0.8
		l0.6-0.3l0.6,0.1h0.6l0.6,0.1l0.3,0.5l-0.1,0.8l0.1,0.2l0.3,0.1h0.3l0.2-0.1l0.4-0.5l0.6-0.9l0.3-1.2l-0.1-1.1l-0.7-0.7l-1,0.1
		l-1.3-0.5l-1,0.3l-0.8,1l-0.1,0.3l-0.1,0.8l-0.1,0.2l-0.7,0.8l-0.2,0.3l-0.2,1l-0.4,0.7l-0.3,0.8l-0.3,1.2v0.6l0.1,0.6l0.7,1.7
		l0.3,1.2l0.3,0.6l0.4,0.2l0.3,0.1l0.5,0.8l0.9,0.1v0.4l-0.3,1l-0.1,0.5l-0.2,0.6l-0.4,0.2l-0.5,0.2l-0.4,0.5l-0.3-0.4h-0.3
		l-0.3,0.1h-0.4l-0.4-0.2l-0.1-0.2v-0.4l-0.2-0.7l-0.3-0.4l-1.1-0.6l-3.9-0.1H222l-0.7,0.3l-0.7-0.1l-0.3-0.4l-0.1-0.5l-0.1-0.4
		l-0.3-0.6l-0.3-0.4h0.3l0.4,0.1v-0.3l-0.3-0.5l-0.7-0.7l-0.7-0.6l-0.5-0.3l0.7-0.3l0.2-0.1h0.2l0.3,0.1h0.2l0.3,0.1l0.5,0.6
		l0.3,0.3l0.4-0.7l1.2-1.2l0.3-0.9l0.3-0.5l0.3-1.1l0.2-1l-0.3-0.7l0.3-0.6v-0.5l-0.3-0.5l-0.7-0.8l-1-1.5l-0.3-0.3l-1.2-0.7
		l-0.4-0.1l-0.1-0.3l-0.3-0.6l0.2-1.1l0.2-0.2l0.8,0.3l0.3,0.1l-0.7-0.7l-0.3-0.4l0.4-0.8l0.1-1.3l-0.2-0.6l-0.2-0.6l-0.3-0.3
		l-0.1-0.2l-0.4-0.4v-0.6l0.3-0.3l0.4-0.6v-0.7l-0.6-0.6l0.7-0.8l1-0.4l0.8,1l0.5-0.2l0.5-0.4l0.3-0.3l0.1-0.2l0.2-0.8l0,0l0,0
		l0.3,0.2l0.7,0.8l0.3,0.2l0.4,0.1h0.4l0.6-0.2l0.6-0.2l1.3-0.4l0.3-0.2l0.3-0.1l0.3-0.1l0.3-0.2l0.4-0.1l0.5,0.2l1.6,1.3l0.9,0.6
		l-0.3,0.7l0.3,0.5l0.3,0.3l1.6,2.5l0.5,0.6l0.5,0.5l0.6,0.3l0.7,0.6l0.2,0.5l-0.1,1.4l0.1,0.7l0.2,0.3l0.2,0.2l1.7,0.7l0.3,0.4
		l0.7,0.7l0.1,0.3l0.1,0.2v0.3v0.3l0.1,0.3l0.5,0.9l0.3,0.2l0.6,0.1l0.7,0.4h0.2h0.2h0.3l0.7,0.1l0.5,0.4l0.3,0.4l0.1,0.4v0.3
		l-0.1,0.7v0.5l-0.1,0.4l-0.7,1L244.1,493.8L244.1,493.8z M208.1,546.7l0.8-0.2l0.2,0.5l-0.2,0.7l-0.6,0.5l-0.2-0.7v-0.4V546.7z
		 M212.6,540.3l0.1,0.8l0.7,0.6l-0.1,0.1v0.1l-1.4-0.1l-0.3-0.4l-0.3-0.3l-0.2-0.7l0.5-0.4l0.6,0.2h0.1h0.1h0.1L212.6,540.3z
		 M232.1,525.9l-0.1,1l-0.6,1.4l-1.1,1.1l-0.7,0.5l-0.8,0.1l-0.7,0.1h-0.8l-1.2-0.4l-0.3-0.5l-0.4-1l-0.6-1.4l-0.2-0.8l-0.1-0.8
		l0.3-0.1h0.9l0.4-0.7l0.5-0.5l0.1-0.5h0.5l0.3-0.3l0.6,0.5l1.1,0.4l0.8,0.7l1,0.3L232.1,525.9z M241.6,512.3h0.2v0.5l0.3,0.7
		l0.4,0.5l-0.4,0.4v0.9l0.2,1.1l-0.6,1.1l0.1,0.6v0.9l-0.2,0.4l-0.3,0.2v0.5l-0.1,0.4l-0.4,0.2h-0.4l-0.2,0.5l-0.3,0.4l-0.1,0.6
		l-0.3,0.5v0.4l-0.1,0.2l0.2,0.2l0.1,0.3l-0.2,0.3l-0.1,0.3l0.2,0.4l-0.4,0.4v0.4l-0.5-0.1l-0.5,0.1l-0.4,0.1l-0.4,0.3l-0.1,0.3
		h-0.4l-0.1-0.3l-0.3-0.4l0.1-0.4l0.1-0.5l-0.1-0.8l-0.2-0.5l-0.1-0.6l0.1-0.3l0.3,0.1l0.2,0.1l0.2-0.5l0.6-0.7l0.7-1.1l0.3-0.8
		l0.2-0.7v-0.4l-0.1-0.9l-0.1-0.4l0.1-0.3l-0.2-0.2l0.3-0.4l0.3-0.5l0.5-0.8v-0.3l0.4-0.1l0.2-0.6v-0.6l0.5-0.9l0.3-0.4l0.2-0.2
		L241.6,512.3z M220.7,523l0.6,0.2l0.5,0.5v0.3h-0.5l-0.2,0.3l-0.5,0.1l-0.5-0.5v-0.4l-0.1-0.3l-0.4,0.2l-0.3-0.4l-0.3-0.3l-0.3-0.3
		h0.6l0.7,0.4l0.3-0.2L220.7,523z M205,552.6l-0.1-0.2l0.1-0.3l0.2-0.1h0.1l0.1,0.1h0.1l0.1,0.1l0.1,0.3l-0.1,0.3h-0.3L205,552.6z
		 M203.4,539.5v-0.2h0.2h0.2l0.2,0.1l0.1,0.2l-0.1,0.1l-0.3,0.1l-0.2-0.1L203.4,539.5z M213.8,537.7L213.8,537.7l0.1,0.2l0,0
		l-0.2,0.2l-0.4-0.1l-0.3-0.1l-0.3-0.3h-0.1v-0.1v-0.1l0.1-0.1l0.2-0.2l-0.1-0.2h0.1l0.2-0.1l0.1,0.3l0.2,0.3L213.8,537.7z
		 M200.9,512.1L200.9,512.1l0.1,0.1l-0.1,0.1V512.1z M213.9,512.2l0.3,0.2v0.2l-0.2,0.3l-0.3,0.2h-0.3l-0.4-0.2v-0.1v-0.1l-0.1-0.2
		l0.1-0.1l0.2-0.1l0.2-0.2l0.2-0.1l0.2,0.1L213.9,512.2z M213.6,482.2l-0.1,0.1v0.1v0.2v0.2v0.2l0.1,0.1v0.1l-0.1,0.2l-0.2,0.2h-0.2
		h-0.2l-0.3,0.2h-0.3l-0.2-0.2l-0.1-0.1l-0.1-0.1v-0.1l-0.1-0.2l-0.2-0.2v-0.2l0.2-0.1l-0.1-0.1l-0.3,0.1l-0.2,0.3H211l-0.1-0.1
		v-0.2l0.1-0.3l0.2-0.3l0.3-0.2l0.5,0.1l0.9,0.8l0.2,0.1l0.1-0.2l-0.1-0.3l0.1-0.2l0.4-0.1L213.6,482.2z"/>
	<path class="st1" d="M245.3,430.2l0.5,0.2l0.9,0.1l0.7,0.7h1l1.1,0.2l1.3-0.2l0.1-0.2l0.9-0.8l0.4-0.5l0.2-0.6l0.4-0.4l0.6-0.3
		l0.8-0.1h0.6l0.4-0.1l0.4,0.2l0.5,0.3l0.5-0.1l0.5,0.1l0.6,0.8l0.6,1.1l0.4,0.8l0.2,0.6l0.1,0.6l-0.3,0.8l0.2,0.8l-0.2,0.6
		l-0.5,0.9l-0.1,0.7l-0.2,0.1l-0.6-0.3l-0.4-0.2l-0.5,0.2l-0.1,0.4l0.1,0.5l-0.1,0.4l-0.6,0.2l-0.2,0.1l-0.1,0.5l-0.5,0.1h-0.5
		L254,438l-0.4-0.4l-0.7,0.1l-0.2,0.7l0.3,2l0.5,0.4l0.5,0.2l1.6,0.1l1.1-0.6l1.1,0.5l0.3-0.5l1.3,0.5l1.5,0.3l0.7-0.2l0.8-0.5
		l0.5,0.1l-0.5,0.9l-0.3,0.6v0.5l-0.2,0.2l-0.4,0.2l-0.4,0.5L261,444l-0.4,0.7l0.8,0.4l0.7-0.5h0.8l0.3,0.1l-0.7,0.5l-0.4,0.4
		L262,446l0.4,0.2l0.3-0.1l0.4,0.1l0.3,0.2h0.3l0.1-0.3v-0.4h0.2l0.2,0.5l0.2,0.3l0.2,0.2h0.2l0.2-0.1l0.2-0.2l0.1-0.7l0.4,0.8
		l-0.1,0.4l-0.6,0.2l-1-0.1h-0.4l-0.2,0.6l-0.4,0.5l-0.1,0.9l0.3,0.2l0.5,0.5h0.4l0.2,0.4l0.3-0.1l0.2-0.1l0.2,0.1l0.1,0.2l0.2,0.1
		l0.3-0.2v0.2l0.1,0.1l0.2-0.1l0.3-0.4l0.7,0.1l0.5,0.1l0.1,0.3l-0.5-0.1l-0.5,0.3l-0.5,0.1l-0.8,0.6l-0.3,0.4l0.1,0.2l0.2,0.1
		l0.1,0.2l-0.3,0.5l-0.2,0.2l-0.2,0.1l-0.2,0.2l-0.2,0.3h0.3l0.7-0.1l0.1,0.2l-0.2,0.4l-0.4,0.3l-0.5,0.2h-0.4l-0.5,0.5l-1.2-0.2
		l-0.2,0.6v0.8v0.1l-0.8-0.1L261,456l-0.1-0.4l-0.1-0.5l-0.2-0.9l-0.2-0.3l-0.3-0.2l-0.4-0.1l-0.5-0.2h-0.4l-0.3,0.1l-0.2,0.2
		l-0.2,0.2l-0.4,0.8l-0.2,0.3l-0.1,0.2l-0.3,0.1l-2.3,0.1l-0.5,0.2l-0.3,0.2l-0.5,0.1h-0.3l-0.3-0.1l0.1,0.2l-0.1-0.2v-0.2v-0.2
		l0.1-0.2v-0.3l-0.1-0.2l-0.2-0.2l-0.3-0.2l-0.4-0.1h-0.4l-0.7,0.3l-0.5,0.1h-0.5l-0.6-0.1l-0.3-0.2l-0.5-0.3l-1.5-1.3l-0.4-0.8
		l-0.1-0.4l-0.1-1.4v-0.3l-0.1-0.3l-0.4-0.8l-0.3-0.9l-0.2-0.4l-0.5-0.6l-0.2-0.3l-0.8-1.6l-0.4-0.5l-0.9-0.7l-0.8-0.5h-0.4
		l-0.4,0.1l-0.5,0.3l-0.8,0.2l-0.1,0.2v0.3l0.2,0.7l0.2,0.3l0.4,0.6l0.2,0.3v0.2l-0.3,0.8l-0.1,0.4l-0.3,0.1l-0.6-0.1l-2-1.2
		l-0.9-0.3l0.5-1.9l-0.1-0.5l-0.5-1.6l-0.1-0.5l0.4-1.3v-0.5l-0.2-0.8v-0.3v-0.2v-0.2l0.1-0.2l0.6-1l0.2-0.7l0.3-0.5l0.6-0.7
		l0.4-0.5l0.3-0.3l0.3-0.2l0.8-0.3l0.4-0.1h0.2l1.5,0.1l1.5,0.2h0.4l0.2-0.1l0.2-0.2l0.1-0.3l0.3-0.4l0.2-0.3v-0.3l-0.2-0.7v-0.4
		l0.1-0.3l0.1-0.1l0.3-0.3L245.3,430.2z"/>
	<path class="st1" d="M210.6,438.6L210.6,438.6l0.1,0.8l0.2,0.3l0.3,0.3l0.3,0.2l-0.1-0.4l-0.2-0.7l0.1-1l0.3-0.6l0.3-0.3l-0.2-0.4
		l0.2-0.2l-1.3-0.9l-0.5-0.6l-0.2-0.3l0.2-0.4l0.2-0.4l0.4-0.1l0.4,0.5l0.1,0.4l0.2,0.4l0.3,0.2l0.2-0.2l-0.1-0.4l-0.6-0.7l-0.2-1
		l0.4-0.6v-0.6l0.4,0.4l0.4,0.1l0.6-0.3l0.8,0.5l0.5,0.6l-0.1,0.3l-0.3,0.4l-0.1,0.3l0.3,0.2l0.2-0.3l0.1,0.3v0.3l0.2,0.3l0.3,0.2
		l0.7,0.1l0.3-0.1l0.2-0.2l0,0h1.4l0.8-0.1h1.1l1.2-0.2h0.5h0.7l0.4,0.1l0.4,0.2l1.5,1l0.4,0.2l0.3,0.2l0.5,0.6l0.3,0.2h0.3l0.5-0.4
		l0.3-0.2l0.7-0.3l0.5-0.1l0.3,0.1l0.2,0.2l0.1,0.1l0.2,1v0.2l-0.1,1l-0.1,0.2l-0.2,0.1h-0.2l-0.3,0.1l-0.3,0.2l-0.2,0.3l-0.2,0.5
		l-0.1,0.2l-0.3,0.5l-0.2,0.1h-0.5l-0.2,0.1l-0.2,0.2l-0.3,0.1l-0.2,0.2l-0.2,0.3l-0.1,0.6l-0.1,0.2l-0.1,0.1l-0.2,0.2l-0.2,0.3v0.4
		v0.3l0.1,0.4l0,0h-0.3l-0.6-0.2h-0.4h-0.3l-0.8-0.9l-0.4-0.3l-0.6,0.9l-1,0.7l-0.7,0.7l-0.6-0.3l0.1,0.6l0.3,0.5l0.4,0.9l1.1,1.9
		l0.5,0.5l-0.1,0.6l-0.4,0.1v0.2l-2.5-0.5l-1.1-0.4L216,449l-0.4-0.4l-0.5-0.5l-1.8-1.5l-0.2-0.3V446l0.4-0.4l0.1-0.3V445l-0.1-0.4
		l-0.3-0.4l-0.4-0.2l-1.1-0.3l-0.8-0.5l-0.4-0.3l-0.2-0.3l-0.1-0.3l-0.1-0.3l-0.8-1.2l-0.2-0.4v-0.3l0.1-0.3l0.8-0.9l0.4-0.2
		L210.6,438.6z"/>
	<path class="st1" d="M220.3,450.2v0.4l-0.4,0.4l-0.6,0.2l-0.4,0.4l-0.4,0.2l-0.5,0.3l-0.3,0.1l0.4,0.2l0.3,0.4l0.5,0.4h0.6l0.4-0.1
		l1.2-0.9h1.6l0.8,0.6l0.3,0.7l0.5,1.2l0.1,0.4v1l-0.1,0.3l-0.5,0.6l-0.1,0.4l0.2,0.5l-0.5,0.6l-0.9,0.5h-0.9l-0.2,0.2v0.3l-0.2,0.2
		l-0.4,0.1l-0.1,0.4l-0.2,0.1l-0.6,0.1l-0.4,0.3h-0.4l0.2-0.3l-0.1-0.5l-0.4-0.2l-0.2-0.2l-0.4-0.2v-0.6V458l0.4,0.1l0.3-0.1
		l0.3-0.4l0.3-0.2l0.3-0.3l0.3-0.3l0.2-0.3l-0.1-0.6l-0.3-0.2l-0.2-0.1l-0.1-0.2l0.1-0.2l0.1-0.3l-0.3-0.3l-0.8-0.1l-0.2,0.2h-0.3
		l-0.8-0.2l-0.7,0.3l-0.4,0.4l-0.4,0.4l-0.6,0.1l-0.4,0.2l-0.5,0.1l-0.2-0.2v-0.3l-0.1-0.1l-0.2,0.2l0.1,0.4l-0.3,0.5l-0.6,0.9
		l-0.3,0.5l-0.2,0.5l-0.5,0.4l-0.5,0.3h-0.4l-0.1,0.2L211,460l-0.6,0.5l-0.6,0.4l-0.1,0.3l-0.2-0.1l-0.3-0.1l-0.3,0.2l-0.2,0.1
		l-0.2-0.4l0.4-0.3l0.3-0.1l0.3-0.1l0.2-0.2l0.3-0.7l0.3-0.5l0.2-0.4l0.1-0.4l-0.1-0.2l-0.3,0.2L210,458v-0.2l0.3-0.1l0.2-0.2
		l0.3-0.1l0.2,0.3l0.3-0.2l0.3-0.7l-0.9,0.1v-0.4l-0.5-1.1l-0.3-0.2l-0.2-0.1l-0.2-0.2l-0.1-0.4l-0.1-0.3l-0.4-0.1l-0.3,0.3
		l-0.3,0.1l-0.3-0.6l-0.6-0.4l-0.3-0.5l-0.2-0.5l-0.1-0.3v-0.4l-0.1-0.4l-0.2-0.3l-0.2-0.2l-0.3-0.1l-0.2-0.9v-0.7l0.3-0.3l0.2-0.4
		l-0.1-0.4l0.1-0.5l0.2-0.2l0.1-0.9l0.5-0.7l1,0.5l0.4,0.6v0.1v0.3v0.1h0.1l0.2-0.2l0.1-0.2l0.1,0.1l0.1,0.2l-0.2,0.2l-0.4,0.7
		l-0.1,0.5l0.1,0.4l0.3-0.1l0.4-0.7l0.8,0.2l0.4,0.5l0.3,0.5l-0.2,0.3l-0.1,0.3l0.1,0.7v0.5l-0.2,0.2l-0.1-0.3l-0.1-0.7h-0.2
		l0.1,1.1l0.3,0.3l0.1,0.5l-0.3,0.3l0.5,0.3l0.2,0.1l0.2,0.2l0.3,0.2l0.1,0.2l0.1-0.1l0.1-0.2l0.3-0.2l0.1-0.2l0.2-0.4l1.3,0.5
		l1.3,0.6l0.4-0.1l-0.4-0.5l-1.4-2v-0.9l0.2-0.4l0.2-0.7v-0.6l-0.8-0.6l-0.8-0.8l-0.7,0.3l-0.5,0.3h-0.3v-0.6l-0.6-0.4l-0.3,0.2
		l-0.3,0.4h-0.3l-0.4-0.3l-0.1-0.3l-0.2-0.8h0.1l0.3,0.1l-0.1-0.5v-0.3l0.3-0.1v-0.3h-0.3l-0.5,0.5l-0.1-0.3l-0.1-0.4v-0.4l-0.3-0.1
		l0.1,0.6l-0.1,0.7l-0.1,0.2l-0.2-0.1h-0.4l-0.2,0.3l-0.2,0.1l-0.1-0.8l0.5-0.1l0.1-0.3l-0.1-0.3l-0.2-0.2l-0.3-0.2l-0.3-0.1
		l0.1-0.3V443l-0.1-0.2l-0.2-0.2l-0.2,0.1h-0.2l-0.3-0.1l-0.4-0.4l-0.3-0.1H204l-0.3-0.4l0.3-0.9v-0.5l0.2-0.1l0.2,0.1l0.3-0.2
		l-0.1-0.2l-0.1-0.3l-0.3-0.6l0.1-0.8l0.1-0.7l0.3-0.3l0.7,0.7l0.6-0.1l0.7-1.1l0.2,0.3l-0.1,0.8l0.6,0.3l1.1-0.3l1.6,0.5l0.2,0.5
		l-0.1,0.2l-0.4,0.2l-0.8,0.9l-0.1,0.3v0.3l0.2,0.4l0.8,1.2l0.1,0.3l0.1,0.3l0.2,0.3l0.4,0.3l0.8,0.5l1.1,0.3l0.4,0.2l0.3,0.4
		l0.1,0.4v0.3l-0.1,0.3l-0.4,0.4v0.3l0.2,0.3l1.8,1.5l0.5,0.5l0.4,0.4l0.7,0.4l1.1,0.4L220.3,450.2z M187.1,458.3l0.4,0.5l0.2,0.3
		l0,0v0.1h-0.5h-0.6l-1,0.3l-0.1-0.4l-0.6-0.2l-0.1,0.1l-0.2,0.1l-0.1,0.1l-0.1,0.3l0.1,0.1l0.1,0.1l0.4,0.4l-0.1,0.4l-0.1,0.3
		l-0.4,0.4l-0.4-0.3l-0.5-0.7h-0.6l-1.2,0.1l-0.3,0.3l-0.9-0.5L180,460l0.1-0.5l0.2-0.4l0.1-0.2l0.1-0.3l0.2-0.2l0.2-0.1v0.1
		l0.1,0.6l0.1,0.3v-0.2l0.3-0.8V458v-0.3v-0.3l-0.1-0.3l-0.1-0.1l-0.1-0.1l-0.1-0.1v-0.2v-0.2l0.2-0.3l-0.2-0.5l0.2-0.4l0.2-0.2h0.5
		l0.2,0.4l0.3,0.8l0.1-0.1l0.4-0.2l0.5-0.1l0.9-0.5l0.1-0.3l0.6-0.3l0.1,0.5v0.2v0.3l0.4,0.1l0.4,0.1l0.2,0.5l-0.2,1.2l0.3,0.4
		L187.1,458.3z M192.6,448.9l0.3,0.2l1.5-0.7l0.3,0.6l-0.2,0.5l-0.5,0.3l-0.5,0.6l-0.5,0.1l-0.4,0.5l-0.2,0.4v0.5l0.2,0.5v0.2v0.3
		h-0.3l-0.5-0.1l-0.2,0.4l0.2,0.3v0.4l-0.1,0.2l-0.5-0.1v-0.6l-0.2-0.6v-1l0.2-0.4l-0.4-0.7l-0.2-0.1l-0.9-0.2l-0.2-0.1l0.1-0.4
		l0.4-0.2l0.6-0.4l0.4,0.4l0.5-0.4l-0.3-0.6l0.2-1.2l0.4-0.1l0.1,0.7h0.3l0.2-0.1v-0.6l-0.1-0.4l0.1-0.6l0.4-0.2l0.1-0.5l-0.2-0.4
		l-0.1-0.3l0.3-1.2l0.2,0.2v0.5l-0.1,0.3l-0.1,0.3l0.2,0.3l0.2,0.1l-0.1,0.6l-0.2,0.5l-0.2,0.5l-0.1,0.6v0.5L192.6,448.9z
		 M204.1,436.2l0.2,1.3l-0.2,0.4l-0.3,0.5l-0.4,0.4l0.3,0.2l-0.3,0.4l-0.3,0.2v0.3l-0.3,0.2v0.4l-0.2,0.6l-1.2,1.4l-0.9,0.6
		l-0.9,0.3l-0.4-0.2l-0.4-0.1l0.1-0.3l0.1-0.7l0.3,0.4l0.6,0.5l0.4-0.1l0.2-0.2l-0.1-0.1l-0.2-0.1h-0.3l-0.2-0.3l0.1-0.4l0.3-0.3
		l0.6,0.1l-0.2-0.5v-0.6l0.8-0.7l0.1-0.9v-0.7l1.3-0.3l0.3-0.7l0.2,0.1l0.2,0.3l0.4-0.3l-0.4-0.3v-0.4L204.1,436.2z M209.6,425.3
		l0.6,0.3v0.4l-0.4,0.4h-0.6h-0.6l-0.3,0.6v0.6l-0.3-0.1l-0.5-0.4l-0.3-0.4l0.1-0.5L207,426l-0.3,0.2l-0.2-0.4l-0.1-0.5l0.8,0.4h0.3
		v-0.2l-0.7-0.5v-0.6V424h0.5l-0.1-0.5l0.1-0.5l0.2-0.3v-0.3l0.3,0.3l1.7,0.5v0.2l-0.1,0.4v0.3l0.1,0.3l0.4,0.3l0.4,0.2h-0.1
		L210,425h-0.1L209.6,425.3L209.6,425.3z M198,410l0.1-0.4h0.6l0.1,0.2l-0.1,0.3l-0.4,0.2l-0.2,0.4l0.1,0.5l0.1,0.3l-0.4,0.3h-0.3
		v0.2l0.1,0.1l-0.1,0.3v0.5v0.3l-0.1,0.1h-0.2l-0.1,0.2v0.3l-0.2,0.5l-0.3,0.2l-0.1,0.3l-0.3,0.2l-0.1,0.2h-0.3l-0.1,0.2l-0.3,0.2
		l-0.1-0.3h-0.1L195,415l-0.2-0.1l-0.3,0.2l-0.1,0.1V414l0.2-0.7l-0.1-0.8l0.1-1l0.2-0.2v-0.5l0.2-0.7l0.1-1.3l0.2-0.4l0.4,0.1
		l0.1,0.2l-0.1,0.2v0.6h0.2l0.2-0.2h0.2l0.3-0.2h0.3l0.1-0.1v-0.2h0.3l0.2,0.2l0.3,0.3v0.6L198,410z M201.5,399.7l0.3,0.3l0.4,0.4
		l-0.1,0.3L202,401l-0.2,0.8l-0.5,1.2l-1.1,1l-0.6,0.9l0.1,0.9l-0.6,0.6l-0.1,0.5l0.4-0.1l0.4-0.5v0.2l-0.1,0.4l-0.1,0.2l0.1,0.5
		l0.3,0.4l0.2,0.1l-0.2,0.4l-0.4,0.2l-0.2,0.2l-0.3,0.5l-0.6,0.2l-0.5-0.1l-0.5-0.6l0.4-0.3l0.6,0.2v-0.9l-0.3-0.1l-0.5,0.5h-0.3
		v-0.6v-0.3l0.1-0.4l-0.3,0.2l-0.2,0.3l0.1,0.5l-0.2,0.2l-0.4-0.4l-0.6,0.1l-0.5-0.1l0.2-0.4h0.6l0.3-0.2v-1.1l-0.1-0.6l0.2-0.3h0.2
		l0.1,0.1l0.1-0.2l0.3-0.4v-0.2l-0.4,0.4l-0.3,0.1l-0.1-0.4l0.3-0.8l0.4-1l0.5-0.5v-0.2l-0.4-0.5l-0.4,0.1v-0.4l0.4-0.5l0.1-0.5
		l0.4-1.4h0.3h0.6l0.4,0.1l0.3-0.3l0.5-0.6l0.4-0.1l-0.2-0.2l0.1-0.3h0.4l0.3-0.2h0.3l0.2,0.2l0.3,0.3l0.2,0.2l-0.1,0.4l-0.1,0.2
		l-0.2,0.1l0.2,0.1l0.2,0.1v0.3l-0.2,0.5l-0.2,0.1l-0.3-0.2L201.5,399.7z M187.7,454l0.1,0.1l0.1,0.4v0.2l-0.3,0.4l-0.3,0.5
		l-0.2,0.1h-0.2l-0.5-0.3l-0.2-0.1l-0.1-0.3v-0.9v-0.2l0.1-0.2h0.2l0.3,0.1l0.2,0.3l0.1,0.3l0.1,0.2l0.1,0.1v-0.1v-0.1v-0.1
		l-0.1-0.2l-0.1-0.3l-0.1-0.3l0.1-0.1l0.6,0.4L187.7,454z M189,452.3l0.1,0.3l0.1,0.6l-0.1,0.3l-0.2,0.1l-0.1,0.1l0.1,0.1v0.2
		l-0.1,0.3h-0.1V454l-0.2-0.1h-0.2l-0.1-0.1l0.1-0.1v-0.1l-0.1-0.2l-0.1-0.1l-0.1-0.1l-0.4-0.4l-0.2-0.1l-0.2,0.1l-0.1-0.2l0.3-0.2
		l0.5,0.1l0.4,0.4l0.1,0.1l-0.1-0.4l0.1-0.1l0.2,0.1l0.1-0.1v-0.3l0.1-0.1L189,452.3L189,452.3z M190.9,451.5v0.2v0.1v1l-0.1,0.2
		h-0.2v-0.3l-0.1-0.1l-0.2-0.2l-0.2-0.1l-0.4,0.1l-0.1-0.1l-0.1-0.1l-0.1-0.1V452l-0.1-0.5v-0.3h0.2l0.5,0.3h0.1v-0.1l-0.1-0.1
		l-0.1-0.2v-0.2l-0.1-0.1v-0.1l0.1-0.1l0.1-0.1v-0.1h0.2l0.4,0.1l0.3,0.2l0.1,0.2L190.9,451.5z M193.6,439.6l0.2,0.5l0.2,0.2v0.2
		l-0.4,0.3l-0.2,0.3h-0.2l-0.4-0.1l-0.3-0.2l-0.2-0.1h-0.2H192v-0.3l0.3-0.4l0.4-0.2l0.2-0.1l0.4-0.3L193.6,439.6z M204.1,433.7
		l0.4-0.1l0.1,0.2l-0.2,0.3l-0.3,0.2l-0.4-0.1l-0.3-0.2l-0.2,0.1l-0.1,0.1H203h-0.2l0.1-0.3l0.5-0.4l0.4-0.3h0.3l0.1,0.2
		L204.1,433.7z"/>
	<path class="st1" d="M223.9,473.5L223.9,473.5l0.1-0.1l0.2-0.1v-0.1v-0.4v-0.1l1.8-2l0.3-0.8l0.1-0.2l0.3-0.2l0.1-0.2l0.1-0.3
		l-0.1-0.3v-0.3l0.2-0.6l0.2-0.1l0.7,0.6l0.2-0.3v-0.4L228,467l0.1-0.2l0.6-0.9l0.5-0.3l0.2-0.7l-0.1-0.8l-0.4-0.4l0.2-0.3l0.3-0.1
		h0.7l-0.2-0.4l-0.6-0.5l-0.1-0.4l0.1-0.2l1.8-1.6l0.4-0.5l0.3-0.7h-0.7l-4.1,0.8l-0.4,0.2l-0.3-0.2l0.2-0.4l0.5-0.4l1.7-0.9
		l0.5-0.5l0.3-0.1h0.4l0.4-0.1h0.2h0.2v-0.2l-0.3-0.1l-0.3-0.3l-0.2-0.4l-0.1-0.3v-0.2l0.1-0.2l0.3-0.4l0.1-0.2V455l-0.1-0.1
		l-0.1-0.2l-0.3-0.6l-1.9-1.6l-1.2-1.2l-0.7-0.4l-0.2-0.5l-0.1-1.2l0,0l0.4-0.3l1-0.2l0.4-0.2v-0.1l0.1-0.2V448v-0.5l0.2-0.5
		l0.3-0.4l0.6-0.5l0.4-0.4l0.4-0.2l1-0.1l0.5-0.1l0.3-0.3l0.6-0.7l0.3-0.1h0.4h0.4l0.3,0.1l1.5,1l1.2,0.6l0.9,0.3l2,1.2l0.6,0.1
		l0.3-0.1l0.1-0.4l0.3-0.8V446l-0.2-0.3l-0.4-0.6l-0.2-0.3l-0.2-0.7v-0.3l0.1-0.2l0.8-0.2l0.5-0.3l0.4-0.1h0.4l0.8,0.5l0.9,0.7
		l0.4,0.5l0.8,1.6l0.2,0.3l0.5,0.6l0.2,0.4l0.3,0.9l0.4,0.8l0.1,0.3v0.3l0.1,1.4l0.1,0.4l0.4,0.8l1.5,1.3l-1.3,0.4l-0.3,0.2
		l-0.4,0.3l-0.2,0.3l-0.3,0.8l-0.4,0.7l-0.7,0.8l-0.2,0.2l-0.4,0.8l-0.3,0.4l-0.5,0.5l-0.3,0.4l-0.2,0.5l-0.1,0.8l-0.1,0.3l-0.2,0.1
		l-0.3,0.1h-0.4l-0.3,0.1l-0.3,0.3l-0.3,0.6l-0.5,1.4l-0.1,0.5v0.3v0.3l0.1,0.4l0.2,0.5l0.2,0.3l0.6,0.5l0.3,0.3l0.2,0.5l0.1,0.5
		l0.4,0.7l0.1,0.3v0.4l-0.2,0.4l-0.5,0.7l-0.3,0.5v0.4l0.1,0.3l0.4,0.7l0.2,0.4l0.1,0.6l-0.1,0.2l-0.3,0.1h-0.3l-1.2-0.4l-0.2,0.1
		l-0.3,0.2l-0.5,0.7l-0.4,0.3l-0.4,0.2l-0.7-0.2h-0.3l-0.3,0.1l-0.8,0.5l-0.4,0.2l-0.3,0.1h-0.3l-1.7-0.1l-0.7,0.1l-0.9-0.6
		l-1.6-1.3l-0.5-0.2l-0.4,0.1l-0.3,0.2l-0.3,0.1l-0.3,0.1l-0.3,0.2l-1.3,0.4l-0.6,0.2l-0.6,0.2h-0.4l-0.4-0.1l-0.3-0.2l-0.7-0.8
		V473.5L223.9,473.5L223.9,473.5z M219.1,472.2h0.6l0.3,0.2l0.2,0.6l-0.1,0.3l-0.4,1.2l-0.2,0.3L219,475l-0.4-0.2l-0.2-0.4l0.1-0.5
		l-0.3-0.3l-0.2-0.5l-0.1-0.5l0.1-0.4l0.2-0.1h0.3L219.1,472.2z M225.5,463.1l0.8-0.4h0.4l0.3,0.4l-0.8,0.6l-1.1,2.8l-0.8,0.7
		l-0.1-0.1v-0.3v-0.6l-0.1-0.3l-0.3,0.1l-0.5,0.4l-1,0.1l-0.5,0.1l-0.6,0.2l-0.5-0.8l-0.2-0.4v-0.4l0.1-0.2l0.2-0.1l0.4-0.1l0.2-0.1
		l0.5-0.6l0.6-0.4l0.4-0.2l0.9-0.3l0.5-0.4h0.2l0.2,0.1l0.1,0.2l0.1,0.2h0.2L225.5,463.1z M219.3,462.1l0.7,0.7l0.2,1.2l0.1,2.5
		l0.1,0.2l0.1,0.2v0.2l-0.1,0.8l-0.1,0.2l-0.1,0.2l-0.2,0.3l-0.2,0.2l-0.6,0.2l-0.1,0.2l-0.5,1.1l-0.1,0.1l-0.6,0.3l-0.2,0.2
		l-0.6,0.7l-0.3,0.3l-0.6,0.4l-0.6,0.3h-0.4v-0.3l0.4-1.5l-0.3,0.2H215h-0.3l-0.4,0.2v-0.1l0.1-0.3l0.1-0.2l0.8-0.7l0.5-0.3l0.3-0.1
		h0.3l0.3-0.1l0.3-0.3h-0.3h-0.2L216,469l-0.5,0.2l-0.4-0.3l-0.3-0.5l-0.1-0.7v-0.3l0.1-0.3l0.2-0.2l0.2-0.2l-0.2-0.5l0.1-0.6
		l0.3-0.6l0.3-0.5l0.3-0.6l-0.1-0.6l-0.6-0.9h0.3l0.2,0.1l0.2,0.2l0.3,0.1l0.3-0.1l0.5-0.3l0.6-0.2l0.4-0.2l0.5-0.1L219.3,462.1z
		 M221.3,469.3l0.4,0.2l0.2,0.2l-0.1,0.2l-0.2,0.3l-0.3,0.3l-0.3,0.1l-0.2,0.1l-0.2,0.1l-0.1-0.1v-0.3v-0.3l0.1-0.3l0.1-0.2h0.1
		l0.1-0.1v-0.1L221.3,469.3z M226.4,460.6l0.1,0.2v0.3l-0.1,0.5l-0.1,0.3L226,462l-0.2,0.1l0.1,0.3l-0.2-0.1l-0.3-0.3l-0.1-0.3
		l0.1-0.4l-0.1-0.2l-0.2-0.1v-0.2l0.4-0.6h0.1v0.1h0.1l0.2-0.2l0.2-0.1l0.2,0.1l0.2,0.2l-0.1,0.2V460.6z"/>
	<path class="st1" d="M262.1,456.6v0.1l-0.1,0.1l-0.1,0.1l-0.1,0.1l-0.1,0.5v0.4l-0.2,0.1l-0.3-0.5l-0.3-0.1l-0.1,0.4l-0.4,0.2
		l-0.3,0.5l-0.3,0.3l-0.1,0.1l-0.1,0.1v0.1v0.1v0.2l-0.1,0.3l-0.4,0.8l-0.1,0.2l-0.3,0.1l-0.5-0.1l-0.1,0.1l-0.1,0.5l-0.4,0.9
		l0.1,0.4l0.3,0.3h0.4l0.2,0.1l0.4,0.5l-0.5,0.6l-0.5,0.1l-0.4-0.2l-0.5-0.1l-0.1,0.6l0.4,0.5l0.4,0.6l-0.6,0.5l-0.3,0.2l-0.3,0.1
		l-0.2,0.1l-0.1,0.3l-0.2,0.8l-0.1,0.7l-0.1,0.1l-0.1,0.1l-0.2,0.2l-0.3,0.6l-0.3,1.5l-0.5,1.1l-0.3,1.4l-0.5,1.8l-0.9,2.8l-0.9,3.2
		l-0.3,0.8l0.1,0.5l-0.1,0.3l0.2,0.8l0.3,0.5l0.7,0.3l-0.1,0.3l-0.4,0.5l-0.1,0.2l-0.6,3.3l0.1,0.9l-0.8,0.7l-0.3,0.4l-0.1,0.5h-0.1
		l-0.3,0.6L250,492v0.4l0.1,0.2l0.1,0.1v0.1v0.6l-0.1,0.2l-0.3,0.3l-0.1,0.2l-0.2,1.4l-0.1,0.3l-0.3,0.5l-0.1,0.3v0.2l-0.1,0.2
		l-0.2,0.1l-0.1-0.1h-0.1l-0.2-0.1l0.1-0.2v-0.1v-0.1l-1,0.2h-0.5l-0.4-0.2l-0.1-0.2v-0.5l-0.1-0.3l-0.1-0.2l-0.5-0.5l-0.2-0.2h-0.1
		h-0.2l-0.5,0.1l-0.4-0.3l-0.3-0.2l0.1-0.1l0.1-0.1l0.7-1l0.1-0.4v-0.5l0.1-0.7v-0.3l-0.1-0.4l-0.3-0.4l-0.5-0.4l-0.7-0.1h-0.3H243
		h-0.2l-0.7-0.4l-0.6-0.1l-0.3-0.2l-0.5-0.9l-0.1-0.3v-0.3v-0.3l-0.1-0.2l-0.1-0.3l-0.7-0.7l-0.3-0.4l-1.7-0.7l-0.2-0.2l-0.2-0.3
		l-0.1-0.7l0.1-1.4l-0.2-0.5l-0.7-0.6l-0.6-0.3l-0.5-0.5l-0.5-0.6l-1.6-2.5l-0.3-0.3l-0.3-0.5l0.3-0.7l0.7-0.1l1.7,0.1h0.3l0.3-0.1
		l0.4-0.2l0.8-0.5l0.3-0.1h0.3l0.7,0.2l0.4-0.2l0.4-0.3l0.5-0.7l0.3-0.2l0.2-0.1l1.2,0.4h0.3l0.3-0.1l0.1-0.2l-0.1-0.6l-0.2-0.4
		l-0.4-0.7l-0.1-0.3V471l0.3-0.5l0.5-0.7l0.2-0.4V469l-0.1-0.3L242,468l-0.1-0.5l-0.2-0.5l-0.3-0.3l-0.6-0.5l-0.2-0.3l-0.2-0.5
		l-0.1-0.4v-0.3v-0.3l0.1-0.5l0.5-1.4l0.3-0.6l0.3-0.3l0.3-0.1h0.4l0.3-0.1l0.2-0.1l0.1-0.3l0.1-0.8l0.2-0.5l0.3-0.4l0.5-0.5
		l0.3-0.4l0.4-0.8l0.2-0.2l0.7-0.8l0.4-0.7l0.3-0.8l0.2-0.3l0.4-0.3l0.3-0.2l1.3-0.4l0.5,0.3l0.3,0.2l0.6,0.1h0.5l0.5-0.1l0.7-0.3
		h0.4l0.4,0.1l0.3,0.2l0.2,0.2l0.1,0.2v0.3l-0.1,0.2v0.2v0.2l0.1,0.2l0.2,0.2l0.3,0.1h0.3l0.5-0.1l0.3-0.2l0.5-0.2l2.3-0.1l0.3-0.1
		l0.1-0.2l0.2-0.3l0.4-0.8l0.2-0.2l0.2-0.2l0.3-0.1h0.4l0.5,0.2l0.4,0.1l0.3,0.2l0.2,0.3l0.2,0.9l0.1,0.5l0.1,0.4l0.1,0.2
		L262.1,456.6z"/>
	<path class="st1" d="M326.5,412.2h0.7l0.7-0.5l1.6,0.1l0.5-0.2l0.3-0.1l0.3-0.6l0.1,0.3l-0.3,0.3l-0.2,0.4l0.4-0.1l0.4-0.5l0.5-0.2
		l-0.2,0.4L331,412v0.3v0.2v0.2l-0.5,0.1l0.3,0.1l0.2,0.1h0.3l-0.2,0.4l-0.3,0.5l-0.1,0.3l0.1,0.2l-0.4,0.7v0.8l0.1,0.5l-0.1,0.1
		l-0.2,0.5v0.2v0.3l0.1,0.6l0.1,0.3l0.2,0.1h0.3l0.1-0.3l0.3-0.1l0.3,0.7l0.3,0.5l0.8,0.5l-0.1,0.3l0.3,0.2v0.5v0.4l-0.3,0.3
		l-0.1,0.3l-0.3,0.1l-0.3,0.2l-0.4,0.7l0.4,0.2h1.4v0.2h-0.2l-0.3,0.1h-0.2v0.2l0.8-0.2l0.5-0.2l0.3,0.2l-0.5,0.3l-0.8,0.4l-0.9,0.5
		l-0.3,0.4l-0.9,0.1l-0.2,0.5l-0.7,0.1l-0.2,0.8l-0.6,0.1l-0.2,0.5l-2,1.4l-1.3,0.5l-0.7,0.6l0.3,0.4l-0.6,0.7l-0.1,0.4l-0.2,0.2
		l-0.3,0.1l-0.3-0.1l-0.3,0.2l0.1,0.5v0.4l-0.4,0.4l0,0l-1.2-0.4l-0.3,0.1l-0.4-0.1l-0.7-0.2l-0.2-0.4l-0.6-1.4l0.2-0.5l0.1-0.3
		v-0.3l-0.1-0.3l-0.3-0.3l-0.4-0.2l-0.8-0.1h-0.9l-0.2-0.1l-0.2-2.1l-0.1-0.4l-0.1-0.3l-0.2-0.3l-0.2-0.6l-0.3-0.2l-1.1-0.2
		l-0.5,0.1l-0.3,0.2l-0.2,0.3l-0.3,0.3h-0.4l-0.5-0.2l-1.3-0.8l-0.5-0.2h-0.5h-0.3l-1-0.1l-2.4-0.9l0.2-0.5l0.3-0.8l0.1-0.8
		l-0.2-2.1l1.1-0.7l0.3-0.3l0.5-0.4l0.3-0.2l0.3-0.2l0.9-0.2l0.3-0.2l0.4-0.5l0.2-0.2l1.8-0.2l0.5,0.2l0.3,0.2l0.3,0.3l0.3,0.1
		l0.3,0.1l0.5-0.1l0.4-0.1l0.9-0.5l0.3-0.1l1.1-0.2l0.4-0.2l0.4-0.3l0.3-0.6l0.3-0.2l0.6-0.2l1.2-0.1h3.5l0.9,0.3l0.3-0.1l0.3-0.1
		L326.5,412.2L326.5,412.2z"/>
	<path class="st1" d="M305.2,417.8l0.7-0.7l0.3-0.5l0.2-0.6l0.2-1.4l-0.1-1.3l-0.1-0.5l-0.2-0.4l-0.3-0.4l-0.4-0.4l-0.4-0.3
		l-0.4-0.3l-0.3-0.5l0.5,0.3l0.7,0.3l0.7,0.2l0.4-0.2l0.5,0.5l0.7-0.2l0.8-0.6l0.6-0.6l0.7-0.6l1.5-0.7l0.8-0.5l0.2-0.3l0.2-0.4
		l0.2-0.4l0.3-0.2h0.2l0.4-0.1h0.2l0.2,0.1l0.4,0.3l0.5,0.1l0.3,0.3l0.3,0.1h0.2l0.4-0.2h0.2l0.9,0.2l0.2-0.2l0.3-0.6l0.4,0.5
		l0.1-0.2V407l0.1-0.3l0.4-0.1l0.2,0.2l0.1,0.3l0.1,0.4v0.8l0.1,0.3l0.4,0.1l0.2-0.1l0.5-0.7l0.1-0.2l0.5,0.4l0.6,0.2l0.3,0.3
		l-0.3,0.9l1,0.6l0.3,0.1l0.3,0.1l0.5,0.6l0.4,0.1l0.7-0.1h0.3l0.1,0.2l0.1,0.3l0.2,0.3l0.6,0.5h0.1v0.1l-0.6,1.3l-0.3,0.1l-0.3,0.1
		l-0.9-0.3h-3.5l-1.2,0.1l-0.6,0.2l-0.3,0.2l-0.3,0.6l-0.4,0.3l-0.4,0.2l-1.1,0.2l-0.3,0.1l-0.9,0.5l-0.4,0.1l-0.5,0.1L314,416
		l-0.3-0.1l-0.3-0.3l-0.3-0.2l-0.5-0.2l-1.8,0.2l-0.2,0.2l-0.4,0.5l-0.3,0.2l-0.9,0.2l-0.3,0.2l-0.3,0.2l-0.5,0.4l-0.3,0.3l-1.1,0.7
		l-0.3-0.4l-0.5-0.2L305.2,417.8L305.2,417.8z M324.7,401.7l-0.1,0.3l0.1,0.3l0.1,0.3l0.1,0.4l-0.1,0.9l-0.6,1.6l-0.1-0.3l-0.2-0.2
		l-0.3-0.1h-0.4v-0.2l0.5-0.1l0.1-0.3l-0.2-0.2l-0.5,0.1l-0.4,0.4l-0.3,0.5l-0.3,0.4l-0.5,0.1l0.1-1.1l-0.1-0.3l-0.5-0.3h-0.5
		l-0.5,0.2h-0.4l-0.2-0.4l0.3-0.2v-0.3v-0.4l0.1-0.3l0.7,0.2l0.6-0.2l1.1-0.7l0.3-0.1l0.9-0.1l0.9-0.2L324.7,401.7z M308.3,406.5
		l0.2,0.4v0.4l-0.1,0.2l-0.2,0.1l-0.2,0.1l-0.1,0.1l-0.2-0.1l-0.2-0.3l0.1-0.4l0.3-0.4l0.1-0.2L308.3,406.5z M316.7,404.1l-0.2-0.1
		l-0.1-0.1v-0.1l0.2-0.1h0.2l0.4-0.3l0.3-0.1l0.1,0.1l0.2,0.2h0.2h0.1v0.3l-0.5,0.6h-0.2l-0.2-0.2l0,0L316.7,404.1z"/>
	<path class="st1" d="M281.4,451.3l-0.3,0.1h-0.2l-1.1-0.7l-0.4-0.1l0.3,0.4l-0.5-0.1l-0.4-0.2h-0.3l-0.2,0.6l0.2,0.1l0.2,0.2
		l0.1,0.1l-0.4,0.2l-0.4-0.1l-0.3-0.3l-0.5-1l0.5-0.5l-0.3-0.6l0.3-0.4l0.1-0.2l-0.5-0.9l-0.2-0.5l-0.8-0.1l-0.5-0.2l-0.6,1.1
		l-0.4-0.1l0.5-0.7l-0.1-0.4l0.3-0.3l1.1,0.5l0.5-0.1l0.3-0.4h-0.5l0.2-0.4v-0.4l-0.2-0.3l-0.3-0.1v-0.2h0.6h0.1l0.1-0.1l0.2-0.2
		l0.1-0.2l-0.3-0.1h-0.7l-0.2-0.2l-0.1-0.4l0.1-0.4l0.5-0.2l-0.2-0.3l-0.3-0.2l-0.4-0.2l-0.2,0.3l-0.4,0.1l-0.1-0.5l0.6-0.2l0.6,0.1
		h0.4v0.4l0.4,0.3l0.2,0.4l0.5-0.4l-0.1-0.5l0.3-0.4l0.6-0.1l0.3-0.3l-0.3-0.5l-0.3-0.2l0.4-0.4h-0.4l-0.4,0.2l-0.1-0.3l-0.3-0.1
		l-0.2-0.2v-0.4l0.5-0.4l0.4-0.1l0.1-0.2h-1l-1.7,0.4l-0.5-0.2l-0.3-0.2l-0.3-0.1l0.1-0.3l0.2-0.1h0.4l0.2-0.2v-0.2l0.1-0.8
		l-0.5,0.4l-0.3-0.4V437l0.4-0.6v-0.2h-0.3l0.1-0.2l0.1-0.2l0.2-0.1l0.2-0.1l-1-0.6l-0.5-0.1h-0.5l-0.3,0.1l-0.3,0.1l-0.4-0.2
		l-0.7,0.5l-0.6,0.2l-1,0.5l-0.9,0.5l-0.7,0.5l-0.3,0.5l-0.2,0.3h-0.4l-0.3-0.2l0.2-0.5l-0.9,0.6l-1.2,0.7l-0.4-0.1l0.5-0.5l0.5-0.3
		l1.1-1l1-0.3l0.4,0.1l0.3-0.1l-0.2-0.3v-0.2l0.4-0.3l0.7-0.3h0.6l0.5-0.3h0.6l0.7-0.6l3-1.5l0.4-0.4l0.2-0.5l0.2-0.3l0.7-0.9
		l0.2-0.2l0.5-0.5l2.5-1.1l0.4-0.4l0.7-0.5l0.8-0.8l0.5-1.2v-0.9l-0.1-0.8l0.2-1.1l0.2-0.8l0.2-0.8l1.1-0.2l0.1-0.7l0.4-0.6
		l-0.1-1.2l0.7-0.5l1.2-0.8l0.4-0.5l1.4-0.4l0.1-0.5l0.2-0.3l-0.1-0.5h-0.5h-0.3l0.1-0.3l0.5,0.1h0.3l0.3-0.6l0.3,0.5l0.2,0.1
		l0.1,0.2l0.3,0.2l1.4,1.7l0.7,1.9l0.2,0.5l0.2,0.4l0.2,0.3l0.5,0.2l0.5,0.2l0.5,0.1l0.7-0.3l0.9-0.2l0.9-0.3l0.1-0.5l0.8-0.3
		l0.5,0.1l0.6-0.3h0.5l0.5,0.2l1.4-0.1l0.6,0.1l1.2,0.5h0.6l0.5-0.2l0.4-0.3l0.3-0.4l0.3-0.4l0.4-0.4l0.1-0.1l0,0l0.8,0.2l0.5,0.2
		l0.3,0.4l0.2,2.1l-0.1,0.8l-0.3,0.8l-0.2,0.5l-2.2,0.1l-1.1,0.5l-0.5,0.4l-0.6,0.2h-1l-1.1,0.2h-1.2l-0.8,0.2h-0.4h-0.4l-0.3,0.2
		l-0.5,0.6l-0.3,0.2h-0.3l-0.5-0.1l-0.3,0.1l-0.2,0.2l-0.1,0.3l-0.4,0.7l-0.8,1.7l-0.2,0.4l-0.3,0.4l-0.5,0.5l-0.2,0.4l-0.2,0.5
		l-0.1,0.4l-0.3,0.7v0.3v0.6l-0.1,0.3l-0.2,0.4l-0.8,1.1l-0.4,0.4l-0.4,0.2l-0.5,0.1h-3.3l-0.3,0.2l-0.1,0.3l0.2,0.7v0.4l0.1,0.3
		l0.2,0.3l0.2,0.3l0.2,0.2l0.2,0.3l0.2,0.3l0.3,0.3l0.2,0.3l0.1,0.3l-0.1,0.4l-0.4,0.4l-1.4,0.9l-0.4,0.3l-0.3,0.3l-0.1,0.3
		l-0.1,0.4v0.3l-0.1,0.3l-0.1,0.2l-0.2,0.2l-0.7,0.4l-0.3,0.3l-0.4,0.8l-0.3,0.2h-0.3l-0.3-0.2l-0.7-0.7h-0.3l-0.1,0.3v0.3l0.1,0.3
		l0.4,1l0.2,0.3l0.1,0.3v0.4v0.3l0.1,0.4l0.5,1v0.6l0.1,0.5l-0.1,0.3l-0.1,0.3L281.4,451.3L281.4,451.3z M290.4,412.2l-0.9,0.5
		l-0.2-0.2l0.2-0.6l0.2-0.1l0.4-0.1l0.1-0.2v-0.3l-0.1-0.2l-0.2-0.1h-0.2l0.5-0.6l0.5-0.6l0.5-0.1l0.4,0.7l0.3,0.9l-0.1,0.6
		l-0.4,0.5L290.4,412.2z M281.4,418.1L281.4,418.1l0.1,0.4v0.3v0.2l-0.1,0.1v0.1v0.3l-0.4,0.3l-0.5,0.1l-0.3-0.2l-0.1-0.4l0.2-0.3
		l0.3-0.2l0.2-0.1h0.1l0.2-0.1l0.3-0.3L281.4,418.1z M292.7,413.2h0.1l0.1,0.1l-0.2,0.3l-1.2,1.3l-0.4,0.2l-0.3-0.2v-0.5l0.1-0.4
		l0.1-0.1h0.2h0.1l-0.1-0.2l-0.2-0.4l0.2-0.4l0.6-0.1l0.4,0.2l0.1,0.2l0.2,0.2L292.7,413.2z"/>
	<path class="st1" d="M322.9,432.7l-0.6,0.7l-0.7,1.4l-0.8,2.5l-0.2,1.1l-0.2,0.9l-0.1,0.4l-0.1,0.8v0.7l-0.3,0.4l-0.5-1l-0.4-0.7
		l-0.4,0.1l-0.5-0.1v-0.6l-0.7-0.7l-1-1.4l-0.4-0.9l-0.7-0.3l-0.7-0.3l-0.7-0.7l-0.4-1l-1.8-0.2l-2.3-0.6l-0.6-0.5l-1.7,0.3
		l-1.6,0.4l-0.5,0.4l-1.1,0.5l-2,1l-0.4,0.7l0.1,0.5l-0.4,0.4l-0.6,0.3l-0.6,0.1h-0.4l-0.3,0.1l-0.2,0.1l-0.2,0.2l-0.5,0.7l-0.1,0.1
		l0.1-0.5l-0.2-0.1l-0.2-0.1l-0.5,0.3l-0.6,0.5l-0.4,0.6l0.1,0.6l-0.2,0.4l0.1,0.2l0.2,0.2l0.1,0.2v0.1l0.1,0.1v0.1v0.2l-0.1,0.1
		l-0.1,0.1l-0.1,0.1l-0.1,0.7l-0.3,0.4l-0.4,0.3l-0.3,0.2l0.1,0.6l0.2,0.2l-0.4,0.2l-0.1-0.3H295l-0.6,0.8l-0.8,1.4l-0.6,0.8
		l-0.3,0.4v0.5v0.3l-0.2,0.1l-0.4-0.3l-0.5-0.3l-0.9,0.5l-0.4,1.1l-0.2,1.1l0.4,1.4l-0.2,1l-0.3,0.2h-0.7l-0.1,0.3l0.1,0.5l-0.1,0.6
		l0.4,0.2l0.2,0.4l0.2,0.2l0.5,0.4l0.3,0.4l0.3,0.5v0.6l-0.6,0.3l-0.4-0.2l-0.2-0.1l-0.1-0.2l-0.2-0.6l-0.1-0.2l-0.4-0.4l-0.6-0.2
		l-0.6,0.1l-0.3,0.7l-0.2-0.5h-0.3l-0.4,0.3l-0.3,0.4l-0.4,0.3h-0.5l-0.5-0.2l-0.4-0.2l-0.7-0.6l-0.4-0.5l-1.2,0.3l-0.9,0.8
		l-0.2-0.6l0.1-0.8l0.6-0.8l0.4-0.9l0.7-0.8l0.3-0.4l0.1-0.4h-1.7h0.1l0.7-1l0.1-0.3l0.1-0.3l-0.1-0.5v-0.6l-0.5-1l-0.1-0.4v-0.3
		v-0.4l-0.1-0.3l-0.2-0.3l-0.4-1l-0.1-0.3v-0.3l0.1-0.3h0.3l0.7,0.7l0.3,0.2h0.3l0.3-0.2l0.4-0.8l0.3-0.3l0.7-0.4l0.2-0.2l0.1-0.2
		l0.1-0.3v-0.3l0.1-0.4l0.1-0.3l0.3-0.3l0.4-0.3l1.4-0.9l0.4-0.4l0.1-0.4l-0.1-0.3l-0.2-0.3l-0.3-0.3l-0.2-0.3l-0.2-0.3l-0.2-0.2
		l-0.2-0.3l-0.2-0.3l-0.1-0.3v-0.4l-0.2-0.7l0.1-0.3l0.3-0.2h3.3l0.5-0.1l0.4-0.2l0.4-0.4l0.8-1.1l0.2-0.4l0.1-0.3v-0.6v-0.3
		l0.3-0.7l0.1-0.4l0.2-0.5l0.2-0.4l0.5-0.5l0.3-0.4l0.2-0.4l0.8-1.7l0.4-0.7l0.1-0.3l0.2-0.2l0.3-0.1l0.5,0.1h0.3l0.3-0.2l0.5-0.6
		l0.3-0.2h0.4h0.4l0.8-0.2h1.2l1.1-0.2h1l0.6-0.2l0.5-0.4l1.1-0.5l2.2-0.1l2.4,0.9l1,0.1h0.3h0.5l0.5,0.2l1.3,0.8l0.5,0.2h0.4
		l0.3-0.3l0.2-0.3l0.3-0.2l0.5-0.1l1.1,0.2l0.3,0.2l0.2,0.6l0.2,0.3l0.1,0.3l0.1,0.4l0.2,2.1l0.2,0.1h0.9l0.8,0.1l0.4,0.2l0.3,0.3
		l0.1,0.3v0.3l-0.1,0.3l-0.2,0.5l0.6,1.4l0.2,0.4l0.7,0.2l0.4,0.1l0.3-0.1L322.9,432.7z M279.4,456.2l0.2,0.2l0.1,0.3v0.2l-0.2,0.2
		l-0.3,0.2l-0.2-0.1l-0.1-0.4v-0.4l0.1-0.4l0.1-0.2l0.2,0.1l0.1,0.1L279.4,456.2z"/>
	<path class="st1" d="M293.4,353.9l0.4,0.6l-0.3,0.8l-0.6,0.8l-0.5,0.5v-0.9l0.1-0.9l0.3-0.7L293.4,353.9z M292.7,353.7l0.1-0.2
		l0.5,0.3l-0.5,0.1L292.7,353.7z M292.3,353.4h0.3v0.3v0.2l-0.4,0.1l-0.4,0.1l-0.2,0.5l0.1,0.3l0.1,0.2v0.2l-0.3,0.2h-0.2l-0.2-0.1
		l-0.2-0.1l-0.1-0.1v-0.3v-0.2l-0.1-0.1h-0.2l-0.2,0.1l0.1,0.3l0.3,0.6l-0.2,0.3h-0.3l-0.4-0.3l-0.4-0.4l0.5-0.6l1.1-0.9l0.6-0.6
		l0.4,0.2L292.3,353.4z M257.2,398.1l0.1-0.1l0.8,0.1l0.9-0.1l1.1-0.3l0.8-0.4l0.4-0.2l0.4-0.3l0.1-0.7l0.1-0.3l0.2-0.4l0.6-0.1
		l0.1-0.2l0.6-0.5l0.8-0.8l1-0.7l0.6-0.9l0.3-0.3l0.5,0.1l0.2-0.4l0.1-0.7l1.2-1.1l0.5-0.5l0.7-0.5l1.5-1.1l0.5-0.6l0.9-0.2l0.6-0.2
		l0.6-0.4l0.2-0.9l0.8-0.6l0.6-0.4l0.2-0.3l-0.1-0.3l0.4-0.5l0.1-0.4l1.5-1.2l0.7-0.6l0.8-0.4l0.1-0.4l0.5-0.1l0.6-0.3l1.1-0.3
		l0.4-0.3l0.3-0.6l0.3-0.5l0.2-0.8l0.1-0.5v-0.4l-0.1-0.4l-0.4-0.2l-0.6-0.4l-0.2-0.3l0.3-0.3l0.5-0.1l0.7-0.2h0.5h0.8l0.4-0.1
		l0.2-0.1l-0.3-0.2l-0.5-0.2l0.3-0.1l0.4-0.1l0.6-0.1l0.7-0.4l0.8-0.3l0.7-0.1l1.4-0.1l0.6-0.2l0.6,0.1l0.1-0.8l0.5-0.1l0.6,0.1
		l0.5-0.2l0.2-0.5l0.2-0.4l0.3-0.2l0.4,0.2l0.2-0.4V370l0.4,0.1l0.4,0.4l0.5,0.5l0.4,0.2l0.8-0.3h0.4l0.4-0.3l0.1,0.1l-0.2,0.3
		l0.1,0.1h0.3l0.2-0.1l0.5-0.2l0.5-0.1h0.6l0.4,0.3l-0.3,0.2l-0.4,0.1l-0.3,0.2l-0.4,0.1l-0.3,0.4h-0.1l-1.1,0.4l-0.1,0.1l-0.1,0.1
		l0.1,0.1l0.1,0.1l0.3,0.2l0.1,0.1l0.1,0.1l0.1,0.1l0.1,0.3v0.1l0.2,0.4l0.2,0.2l0.6,0.5l0.3,0.2l0.7,0.3l0.1,0.1l0.1,0.1l0.1,0.1
		v0.1l-0.1,0.2l-0.2,0.2h-0.1l-0.1,0.1l-0.1,0.2l-0.2,1.7l0.1,1v0.6l-0.2,0.4l-0.5,0.4l-2.1,1l-0.3,0.2l-0.3,0.3v0.3l0.2,0.3
		l0.1,0.4l-0.1,0.5l-0.6,1.1l-0.5,1.7l-0.8-0.1l-1.1,0.2h-0.4l-0.4-0.1l-0.7-0.4h-0.3l-0.7,0.3h-0.4l-1.6-0.3l-0.5,0.1l-0.4,0.2
		l-0.3,0.3l-0.5,0.8l-1.5,2l-0.4,0.4l-0.4,0.2l-0.5,0.2l-0.3,0.2l-0.3,0.3l-0.5,0.6l-0.2,0.3l-0.1,0.2v0.1l0.2,0.1l0.3,0.2l0.3,0.2
		l0.2,0.3l-0.1,0.4l-0.3,0.2l-2,0.6l-1,0.6l-0.6,0.2l-0.3,0.1l-1-0.1l-0.4-0.1l-0.4-0.1h-0.4l-0.2,0.2l-0.3,0.3l-0.3,0.1h-0.3
		l-0.3-0.1l-0.4-0.1l-1.1,0.3l-0.5,0.3H272V395l-0.2-0.2h-0.3l-0.2,0.2l-0.3,0.4l-0.5,0.5l-1.4,1l-0.2,0.4v0.4l0.2,0.4v0.4l-0.1,0.3
		l-0.4,0.6l-0.2,0.4l-0.1,0.4l-0.1,0.5l-0.2,0.5l-0.4,0.7l-0.8,0.8l-0.4,0.5l-0.2,0.4l0.1,0.4l0.1,0.3l0.1,0.5l-1.5,1.4l-0.1,0.4
		l0.1,0.5l0.2,0.2l0.1,0.2v0.3l-0.1,0.2l-0.1,0.1l-0.7,0.3l-0.1,0.1l-0.1,0.2l-0.2,0.5l-0.1,0.3l-0.2,0.1l-0.2-0.1l-0.3-0.2
		l-0.3-0.1l-0.3,0.1l-1.3,0.4l-0.8,0.1l-0.4-0.1l-0.3-0.1l-0.3-0.2l-0.2-0.3l-0.2-0.4l-0.1-0.4v-0.4v-0.3l0.1-0.3l0.4-0.7v-0.2
		l-0.1-0.2l-1.8-0.4l-0.3-0.3l-0.1-0.3l0.1-0.3v-0.3l-0.2-0.4l-0.1-0.5v-0.4l0.2-0.4l0.4-1l0.1-0.2l0.1-0.3v-0.3l-0.4-1.1l-0.1-0.3
		l-0.1-0.5v-0.3v-0.4v-0.1V398.1z M290.7,356.9l0.3-0.3l0.5,0.2l0.5,0.4l0.3,0.4h-0.4H291l-0.2-0.1l-0.1-0.2l-0.1-0.2L290.7,356.9z
		 M299.6,348.8l0.4,0.5l-0.1,1.5l-0.1,0.3l-0.3,0.2l-0.2-0.4h-0.2l-0.2,0.2l-0.2,0.2l0.3,0.2l0.1,0.3l-0.1,0.3l-0.3,0.2h-0.2l-1-0.2
		h-0.6l-0.2-0.1l-1.2-1.1l-0.3-0.1l-0.1-0.3l0.2-1.9l0.3-0.6l2.1-1.4v0.4l0.2,0.1h0.3l0.2,0.1l0.1,0.1l0.1,0.3l0.1,0.1l0.2,0.1
		l0.3,0.1l0.1,0.1l0.1,0.2l0.1,0.3L299.6,348.8z"/>
	<path class="st1" d="M271.4,412.8l0.1,0.7l-0.1,0.7l-0.3,0.3l-0.3,0.2l-0.3,0.5l-0.1,1.3l0.3,1.2l0.1,1.1l-0.8,1l-0.6,0.3l-0.4,0.1
		l-0.2,0.2v0.8l0.1,0.6l0.5,1.1v0.5l-0.3,0.3l-1.1,0.6l-0.7,0.7l-0.5,0.3h-0.4l0.1-0.5l0.5-0.4l0.1-0.1l0.2-0.5l0.1-0.2l0.2,0.3h0.3
		l0.3-0.2l0.1-0.4l-0.1-0.5l-0.2-0.3l-0.3-0.2l-0.3-0.2l-0.4-0.3l-1.6-0.5l-0.6-0.1l-0.1-0.1l-0.6-0.9l-0.3-0.2l-0.7-0.3l-0.2-0.1
		l-0.6-0.5l-0.5-0.3l-0.5,0.1l-0.5,0.7h0.4v0.2h-0.9l-0.3-0.2l-0.1-0.5l0.7-0.6l0.4-0.4v-0.2l-0.2-0.1l-0.4-0.3l-1.5-0.6l-1,0.4
		l-0.4-0.1l-0.3,0.2l-0.8,0.3l-0.3,0.1h-0.7l-0.1-0.1l-0.1-0.2h-0.1l-0.2,0.3l0.2,0.3l0.1,0.4l-0.1,0.3l-0.4,0.2h-0.2h-0.1v-0.1
		v-0.2l-0.1-0.3h-0.2l-0.1,0.1v0.1l-0.8-0.3l-0.2-0.1l-0.4-0.5l-0.3-0.1l-0.3,0.2l0.1,0.2v0.1l-0.1,0.2h-0.1l-0.2,0.2v0.2l-0.1,0.1
		v0.1l-0.1,0.1l-0.2,0.1h-0.2l-0.2-0.2l-0.1-0.2l-0.1-0.2l-0.1,0.3l-0.1,0.2h-0.2l-0.2-0.1l0.2-0.4l0.1-0.5l-0.1-0.5l-0.3-0.2
		l-0.2,0.2l-0.7,1.3l-0.6,0.8l-0.3,0.3l-1.2,0.8l-0.4,0.1l-0.2-0.4l-0.2,0.1H246l-0.2-0.1l-0.1-0.2v-0.3h-0.1l-0.2,0.1l-0.2,0.1v0.1
		l-0.1,0.1l-0.2,0.1l-0.2,0.1l-0.1-0.1l-0.1-0.2l-0.3-0.3v-0.3l0.1-0.2v-0.1l-0.2-0.1l-0.8-0.6l-0.5-0.9l-0.8-0.2l-0.9-0.3l-0.5,1
		l-1.1,1.3l-0.9,0.8l-0.1,0.7l-0.3,0.3l-0.4-0.3l-0.1-0.2l-0.4-0.2v-0.4h0.5l0.3-0.7v-0.3l0.1-0.4l0.1-0.3l-0.1-0.3L238,418l0.2-0.7
		l-0.2-0.4l-0.6-0.1l-0.1-0.3l-0.1-0.4l-0.2-0.3v-0.3l0.3-0.5l0.3-0.3l0.3-0.2l0.3-0.3l0.2-0.5l0.1-0.4l-0.1-0.3l-0.1-0.2l-0.1-0.8
		l-0.3-0.6l-0.1-0.3l-0.1-0.1l-0.4-0.3l-0.1-0.3l0.1-0.2l0.2-0.2l0.1-0.2l0.1-0.9l0.1-0.4l0.2-0.4l0.3,0.1l0.4,0.1l0.4-0.1l0.2-0.2
		l0.2-0.1l1-0.2l0.4-0.2l0.5-0.2L241,407h-0.4l-1-0.2l-0.3-0.1l-0.2,0.3l-0.1,0.1l-0.3-0.1l0.1-0.4l0.2-0.3l0.3-0.3l0.4-0.3l0.3,0.1
		l0.3,0.3v0.3l0.2,0.1h0.3l0.4-0.1l0.3-0.1l0.3-0.2l0.3-0.1l0.6,0.3l0.4,0.1l0.5-0.1l0.2,1l0.3,0.3h0.5l0.2-0.3l0.3-0.5l-0.5-0.5
		l-0.1-0.2v-0.4l0.5,0.1l0.4-0.1l0.7-0.1l0.4-0.1l0.3,0.3l0.4,0.6h-0.4l-0.4-0.3l-0.3-0.1l-0.3,0.1l-0.2,0.3l-0.1,0.3l-0.1,0.4
		l-0.1,0.4l0.2-0.1l0.3-0.2l0.2-0.1l1.2-0.1l1-0.3l0.3-0.7h0.8l1.2-0.3v-0.9l0.3-0.4l0.7-0.8l0.1-0.3l-0.2-0.6l0.2-0.1l0.5-0.1
		l1-0.7l0.4-0.4l0.4-0.5l0.1-0.3v-0.7l0.2-0.1h0.5h0.3v-0.3V399l0.1-0.5l0.5-0.2l0.4,0.2l0.7,0.2l0.4-0.3l0.1-0.2h0.1l0.1,0.2v0.1
		v0.4v0.3l0.1,0.5l0.1,0.3l0.4,1.1v0.3l-0.1,0.3l-0.1,0.2l-0.4,1L257,403v0.4l0.1,0.5l0.2,0.4v0.3l-0.1,0.3l0.1,0.3l0.3,0.3l1.8,0.4
		l0.1,0.2v0.2l-0.4,0.7l-0.1,0.3v0.3v0.4l0.1,0.4l0.2,0.4l0.2,0.3l0.3,0.2l0.3,0.1l0.4,0.1l0.8-0.1l1.3-0.4l0.3-0.1l0.3,0.1l0.3,0.2
		l0.2,0.1l0.2-0.1l0.1-0.3l0.2-0.5l0.1-0.2l0.1-0.1l0.7-0.3l0.1-0.1l0.1-0.2v-0.3l-0.1-0.2l-0.2-0.2l-0.1-0.5l0.1-0.4l1.5-1.4
		l0.3,0.7l0.2,2.3l1.4,3.4l0.4,0.6l0.4,0.3l0.3,0.1l0.7,0.4l0.8,0.3L271.4,412.8z M271.4,424.7l0.2,0.2l0.5,0.4v0.1l-0.4,0.1
		l-0.5-0.1l-0.8-0.4l-0.4,0.1l0.2-0.4l0.3-0.2h0.4L271.4,424.7z M271.3,422.5l-0.1,0.2l-0.1,0.1l-0.3,0.2l-0.2-0.6l-0.4-0.7L270,421
		l0.4-0.7l0.6-0.2l0.7,0.1l0.6,0.3l0.5,0.3l0.7,1h0.3l0.3-0.2l0.5-0.4h0.2l0.4,0.1h0.1l0.1-0.2l0.1-0.3l0.1-0.1l0.3-0.1l0.7,0.1h0.4
		l-0.3,0.3l-0.5,0.7H276l-0.2-0.1l-0.6,0.2L275,422l-0.1,0.2v0.7v0.3l-0.1,0.3l-0.3-0.1h-0.6l-0.2-0.1l-0.1-0.3v-0.3v-0.3l-0.3-0.2
		l-0.2,0.2l-0.3-0.2l-0.2,0.2l-0.1,0.3l-0.1,0.2h-0.3l-0.4-0.2l-0.3,0.1L271.3,422.5z"/>
	<path class="st1" d="M296.9,371.6L296.9,371.6l-0.1,0.4l0.2,0.4l0.1,0.4l0.7,0.5l0.9,0.5l0.8,0.2l0.5,0.1l0.5,0.1l0.4-0.1l0.6-1.1
		l1.3-0.6l0.8-0.4l1.4-0.3l1.3,0.4l2.5,0.6l4.5-0.4l2.4-0.7l0.7,0.5l3.5-0.5l1.6-0.3l0.6-0.2l0.5-0.3l0.3-0.6l1.2-0.2h0.2h0.2
		l0.1-0.1l0.1,0.1l0.7,0.6l0.5,1.1l0.7,3.2l0.6,1.2l0.2,0.5l0.1,0.7l0.6,0.9l0.1,0.3v0.3v0.2l0.1,0.5v0.5l-0.1,0.4l-0.3,0.4
		l-0.7,0.6l-0.4,0.2h-0.3l-0.3-0.1l-0.2-0.2l-0.5-0.1l-1.2,0.7l-0.6,0.4l-0.4,0.2H323l-0.3-0.1h-0.4l-0.5,0.1l-1.5,0.6l-0.4,0.1
		l-0.3-0.2l-0.1-0.4l-0.1-0.4l-0.1-0.3l-0.2-0.4l-0.1-0.4l-0.2-0.5l-0.5-0.6l-0.8-0.6l-1.9-0.3l-0.1-0.1v-0.1v-0.1l0.1-0.2v-0.1
		v-0.2l-0.3-0.3l-0.4-0.1h-0.5l-0.5,0.2l-0.3,0.3l-0.2,0.3l-0.2,0.2l-0.8,0.4l-0.3,0.2l-0.2,0.3l-0.1,0.3l-0.2,0.3l-0.3,0.1
		l-0.3-0.1l-0.7-0.9l-0.4-0.3l-0.4-0.3l-0.5-0.2l-3.2-0.8h-0.4l-0.3,0.2l-0.2,0.3l-0.3,0.8l-0.3,1l-0.1,0.3l-0.2,0.2l-0.3,0.2
		l-0.3,0.2l-0.1,0.3v0.4v0.3v0.2l-0.1,0.1l-0.1,0.1l-1.2,0.5l-1.3,0.1l-0.2,0.2l-0.1,0.3v0.3v0.3v0.3l-0.1,0.3l-0.4,0.3l-1.3,0.6
		l-0.4,0.1l-0.2,0.2l-0.4,0.5l-0.9-0.3H295l-1-0.2l0.5-1.7l0.6-1.1l0.1-0.5l-0.1-0.4l-0.2-0.3v-0.3l0.3-0.3l0.3-0.2l2.1-1l0.5-0.4
		l0.2-0.4v-0.6l-0.1-1l0.2-1.7l0.1-0.2l0.1-0.1h0.1l0.2-0.2l0.1-0.2v-0.1l-0.1-0.1l-0.1-0.1l-0.1-0.1l-0.7-0.3l-0.3-0.2l-0.6-0.5
		l-0.2-0.2l-0.2-0.4v-0.1l-0.1-0.3l-0.1-0.1l-0.1-0.1l-0.1-0.1l-0.3-0.2l-0.1-0.1l-0.1-0.1l0.1-0.1l0.1-0.1L296.9,371.6L296.9,371.6
		z"/>
	<path class="st1" d="M324.6,369.7l0.3-0.3l0.9-0.3l1.3-0.5l0.8-0.5l1-0.6l1.3,0.4l1.4-0.1h1.1l1.9-0.1h0.8l0.4,0.1l0.5,0.2l0.2,0.4
		l0.5-0.4l0.1,1.1v0.3v0.3v0.5l0.1,0.4l0.1,0.4l0.3,0.5l0.7,1l0.6,0.4l0.5,0.1l0.4-0.1l0.8-0.4l0.3-0.1h0.3l0.3,0.2l0.2,0.3l0.1,0.6
		l0.1,2v0.3l-0.1,0.3l-0.2,0.3l-0.2,0.3l-0.2,0.2L341,377h-0.3h-0.2l-0.2-0.1l-0.6-0.4l-0.3-0.1h-0.3l-0.2,0.2l-0.1,0.4l-0.1,0.3
		l-0.1,1.2v0.2l0.1,0.3l0.2,0.3l0.5,0.2l0.9,0.2l0.3,0.2l0.3,0.2l0.3,0.4l0.9,0.4l0.3,0.2h0.4l0.6-0.3l0.3-0.1h0.5l0.1,0.1l0.2,0.2
		l0.3,0.9l0.4,0.8l0.3,0.4l0.6,0.4h0.5h0.4l0.4,0.1l0.3,0.3l0.2,0.3l0.3,0.1l0.7-0.1l0.3,0.1l0.9,0.7l0.2,0.2l0.2,0.4l0.1,0.3
		l-0.1,0.4l-0.5,0.5l-0.5,0.3l-0.3,0.1l-0.2,0.1v0.3l0.1,0.2l0.5,0.5l0.1,1.3l0.8,0.9l0.8,0.4l0.2,0.2v0.4v0.7v0.5l-0.1,0.5
		l-0.1,0.5v0.7l0.3,1l0.1,1l-0.1,0.2v0.1l-0.1,0.1l-0.2,0.3l-0.5,0.4l-0.4,0.2l-0.4,0.2l-0.4-0.2l-0.6-0.6h-0.6h-0.8v0.8l-0.8,0.1
		v-0.7l-0.9,0.3l0.6,1.2l-0.8-0.1l-0.2-0.7l-0.5,0.1l-0.1,0.7l-1.8,0.3l-0.8,0.4l-0.8,0.1l-0.7-0.5h-0.9l-0.5-0.1l-0.6-0.7l-0.7-0.3
		l-0.5-0.4l-1.4-0.9l-0.8-0.3l-1-0.8l-0.5-0.3l-1.2-0.3l-3.2,0.3l-0.2-0.1l-0.1-0.1h-0.1l-0.2,0.1l-0.1,0.1l-0.2,0.1l-0.2,0.1h-0.1
		H328l-0.3-0.1l-0.1-0.2v-0.4l-0.2,0.1l-0.2,0.1l-0.1,0.2v0.2v0.2H327h-0.1l-0.1,0.1l-0.6,0.9l-0.2,0.1h-0.4l-0.3-0.2l-0.2-0.2
		L325,396l-0.3,0.1l-0.3,0.3l-0.1,0.3v0.3h-0.7l-0.6-0.1l0,0l0.2-0.7v-0.4l-0.1-0.5L323,395l-0.1-0.2l-0.4-0.7l-0.7-0.7l-0.1-0.4
		v-0.5l0.2-0.7v-0.7l-0.1-1.2l0.1-0.9v-0.4v-0.4V388l0,0v-0.1l1.2-1.2l1.2-2.1l0.3-0.4l0.3-0.3l0.2-0.3l0.1-0.3l-0.1-0.6l-0.1-0.5
		l0.2-0.9v-0.4l0.5,0.1l0.2,0.2l0.3,0.1h0.3l0.4-0.2l0.7-0.6l0.3-0.4l0.1-0.4v-0.5l-0.1-0.5v-0.2v-0.3l-0.1-0.3l-0.6-0.9l-0.1-0.7
		l-0.2-0.5l-0.6-1.2l-0.7-3.2l-0.5-1.1L324.6,369.7L324.6,369.7z M340.6,400l0.6,0.5v0.4l-0.3,0.4l-0.4,0.4l-0.2,0.6L340,403
		l-0.7,0.6l-0.6,1l-0.7,1l-0.1,1.1v0.3l0.1,0.4v0.4l0.4,0.3l0.1,0.5l0.2,0.4l0.6,0.6l0.2,0.5l-0.5,0.2l-0.7,0.2l-0.6,0.4l-0.7,0.3
		l-0.6,0.3l-0.8,0.8l-1.2,0.3h-0.6V412l-0.5-0.2l-0.1-0.1l0.3-0.6l0.3-0.4l-0.9,0.3l-0.5-0.7l-0.2-0.7l0.3-0.4l0.3-0.8l0.5,0.2
		l0.4-0.2l2-3.6l0.6-0.4l0.5-0.3l0.2-0.2l0.2-0.2l0.2-0.5l0.2-0.3l0.3-0.6l1-0.5l0.4-0.1l0.6-0.9l0.5-0.7L340.6,400z"/>
	<path class="st1" d="M352.5,371.4v0.3v0.2v0.1l0.2,0.1l0.2-0.1l0.2-0.2l0.2-0.5v0.6l-0.1,0.6l0.1,0.4l0.5,0.2h0.7h0.2l0.2-0.1
		l0.5-0.3l0.2-0.4l0.5-0.5l0.6-0.3l0.5,0.3l-0.1,0.1l-0.6,0.2l-0.2,0.9l-0.3,0.2l0.6,0.2l1.3-0.4h0.7l0.3-0.2l0.3-0.5v-0.6l-0.7,0.3
		l-0.3-0.6l-0.4-0.2l0.4-0.5l0.8-0.3l0.2,0.2l0.2,0.5h0.5l0.4,0.6l0.4,0.1l0.6-0.2l-0.3-0.1l-0.2-0.2l-0.4-0.7l0.1-0.2l0.3-0.1
		l0.3,0.3l0.4-0.1l0.4-0.2l-0.1-0.2l-0.2-0.2l-0.2-0.2l-0.1-0.4l-0.1-0.1l-0.4-0.4l-0.1-0.4h0.3l0.4,0.3l0.3,0.3l0.4,0.2l0.9-0.2
		l0.2,0.3l0.2,0.2l0.5-0.3l0.3-0.3l0.5,0.1l0.2-0.1v-0.4l-0.5-0.4l0.2-0.6V367l-0.1-0.4l-0.3,0.1v-0.9l0.6-0.4l1-0.8l0.3,0.6
		l-0.1,0.3l0.2,0.5l0.2,0.6l-0.1,0.4H366l-0.1,0.3l0.4,0.3l0.1,0.3l0.5-0.1l0.1-0.5l0.2-0.2l0.1-0.2v-0.4l0.2-0.3v-0.3v-0.6l0.2-0.5
		v-0.5l-0.3-0.6l-0.3-0.5l-0.2-0.4l-0.5-0.4l-0.9-1L365,361v-0.9v-0.7l-0.6-0.7l-0.3-0.4l0.1-0.8l0.6-0.4l0.3-0.4l0.4-1l0.3-0.7
		l0.3-0.9l1.2-1.6l0.4-0.7l0.3-0.5l0.4-0.8l-0.4-0.7l0.1-0.2h0.5l0.4,0.1l0.9-0.4l0.8-0.7l0.4,0.4v0.1l0.8,0.6l0.1,0.1l0.2,0.2
		l0.1,0.2l0.1,0.3l0.2,0.9l0.1,0.4l0.2,0.3l0.3,0.2l0.3,0.1l0.6,0.1l0.5,0.1l1,0.5h0.5l0.3-0.1l0.3-0.1h0.8l1,0.2l0.8,0.5l0.5,0.5
		l0.9,1l0.4,0.3l0.5,0.1l1.6-0.4l0.1,0.5v0.3l-0.2,0.4l-0.2,0.8l-0.1,1.3l-0.1,0.5v0.4l0.1,0.4l0.2,0.3l0.2,0.2l0.3,0.2l0.6,0.2
		l0.3,0.2l0.3,0.3l0.3,0.5l0.2,0.6v0.4L385,363l-0.3,0.3l-0.4,0.7l-0.3,0.2h-0.8l-0.4,0.1l-0.6,0.2h-0.5l-0.9-0.2h-0.6l-2.6,0.5
		l-0.3,0.2l-0.1,0.2l-0.1,0.3h-0.2l0.1-0.5l-0.3-0.1h-0.3H376l-0.4-0.1l-0.9-0.3l-0.4-0.1H374l-0.3,0.1l-0.3,0.2l-0.2,0.3l-0.4,1.5
		L372,368l-2.3-0.9l-0.5,0.1l-0.5,0.2l-0.1,0.3v0.2l0.2,0.5v0.2v0.5l0.2,0.6l0.1,0.3v0.3L369,371l-0.3,0.1l-0.3-0.1h-0.3l-0.1,0.2
		v0.3v0.3v0.3l-0.2,0.3h-0.2h-0.4l-0.3,0.1l-0.7,0.3l-0.6,0.6l-0.3,0.1H365l-0.3-0.2l-0.3-0.3l-0.2-0.1l-0.2-0.1l-0.1,0.2l-0.1,0.3
		l-0.5,2.3l-0.2,0.4l-0.2,0.3l-0.2,0.3l-0.2,0.1l-0.3-0.1l-0.4-0.1l-0.6,0.1l-0.5,0.2l-1.4,1.2l-1.4,0.2l-3.7-1l-0.5-0.3l-0.2-0.3
		l-0.2-0.3l-0.4-0.4l-0.8-1l-0.1-0.4v-0.3l0.2-0.4v-0.2l-0.1-0.3L352,373l-0.1-0.3l0.1-0.3l0.3-0.3l0.3-0.2l0.3-0.2L352.5,371.4z"/>
	<path class="st1" d="M371.2,348.5l1.3-1.1l0.5-0.8l1.2-0.6l0.9-0.8l1.2-1.3l5.3-7.2l1.2-2.1l1.8-4.4l0.1-0.6v-0.7l-0.2-0.2
		l-0.2-0.2v-0.3l0.2-0.5l0.2-0.9l-0.2-0.6l-0.4-0.4l-0.3-1.1l-0.3-0.2l-0.1-0.7l0.2-1.6l-0.1-0.5l-0.3-0.2l-0.3,0.1l-0.1,0.4h-0.5
		l-0.2-0.4l0.1-0.8l0.2-0.7l0.2-0.5l0.4-0.4l-0.2-0.4l0.4-0.4l0.3-0.6l0.2-0.5l-0.2-0.4l-0.1-0.9l0.7-1l0.9-0.5l1.5-0.8l1-0.3
		l0.6,0.3h0.8l2.8-1.5l0.7-0.2l0.5-0.6l0.6-0.5l3.5-1.2l1-0.2l1.1,0.5l0.2,0.3l-0.2,0.6v0.4l0.3,0.3l-0.1,0.4l-0.1,0.2l-0.7,0.2
		h-0.4l-0.5-0.1l-0.5,0.2l-0.4,0.2l-0.2,0.5l-0.2,1.1l0.3,0.7l0.5,0.1l-0.1,0.5l-0.1,0.4l-0.2,0.3l-0.5,0.4L396,317h-0.5l-1.1-0.2
		l-1.4,0.5l-0.4,0.7l-0.5,0.7v0.6l-0.4,0.3l-0.5,0.2l-0.1,0.4l-0.3,0.2l-0.9-0.4l-0.5-0.3l-0.4-0.3l0.3-0.3l0.1-0.2h-0.2l-0.2,0.3
		l-0.3,0.1l-0.1,0.3l-0.2,0.5l-0.6,0.8l-0.3,0.9l0.4,0.2l-0.1,0.7l-0.1,0.2h-0.5v0.7L387,324l0.3,0.2l0.5-0.1l0.5-0.3l0.5,0.1
		l0.7,0.9l0.4,0.2l0.6-0.3l0.5-1.3l0.4-0.2l0.2,0.1l0.2,0.6l-0.1,1.8l0.1,1.8l-0.3,0.3l0,0l-0.9,0.1h-0.4l-0.3,0.1l-0.7,0.4
		l-0.3,0.1h-0.3h-0.3l-0.3,0.1l-0.3,0.2l-0.6,0.7l-0.3,0.5l-0.7,1.8l-0.1,0.5l-0.1,0.7l-0.3,1.2l-0.2,0.3l-0.5,0.5h0.1v0.4l0.1,0.3
		l0.1,0.3v0.3v0.3l-0.4,1.3v0.6l0.1,0.5l0.3,1v0.4l-0.1,0.6l-0.1,0.4l-0.1,0.5l-0.3,1.8v0.7l0.1,0.5l0.2,0.4l0.1,0.4v0.5l-0.2,0.8
		v0.4l0.2,0.9l0.3,0.6l0.2,0.2l0.5,0.6l0.1,0.4l-0.1,0.5l-1.2,1.8l-0.2,0.4l-0.2,1.3l-0.6,1l-1.6,0.4l-0.5-0.1l-0.4-0.3l-0.9-1
		l-0.5-0.5l-0.8-0.5l-1-0.2h-0.8L377,353l-0.3,0.1h-0.5l-1-0.5l-0.5-0.1l-0.6-0.1l-0.3-0.1l-0.3-0.2l-0.2-0.3l-0.1-0.4l-0.2-0.9
		l-0.1-0.3l-0.1-0.2l-0.2-0.2l-0.1-0.1l-0.8-0.6V349L371.2,348.5z M391.8,321.4l-0.1,0.2v0.3v0.3l-0.2,0.3l-0.4,0.2h-0.5l-0.4,0.2
		l-0.3,0.2h-0.2l-0.4,0.1h-0.1l-0.2-0.3l-0.5-0.6l-0.3-0.5l0.2-0.2l0.2,0.1l0.1,0.2l0.1,0.1l0.1-0.1l0.2-0.1h0.2l0.2-0.1l0.2-0.1
		h0.2l0.2,0.1l0.2,0.2l0.3,0.2h0.2l0.2-0.1l0.3-0.3l0.4-0.1L391.8,321.4z"/>
	<path class="st1" d="M391.7,327.5l-0.4,0.6l-0.1,0.8l-0.9,1.3l0.4,1.1l1.2,0.8l0.7,0.7l1.2,0.4l0.7,0.5l1,0.1l1.1-0.2l1.4,0.3
		l0.9-0.2l0.4-0.6l0.8-0.6l0.3-0.8l0.3-0.6l0.1-0.5l0.2-0.5l-0.1-0.6l0.3-0.8l0.5-0.4l1.3-0.7l2.2-0.4l0.7-0.2l0.1,0.2l0.5,0.6
		l0.9,0.5l0.3,0.3l0.3,0.4l0.9,4.3v3.3l-0.1,0.7v0.7l-0.1,0.5l-0.1,0.5l-0.4,0.6l-0.4,0.4l-0.3,0.3l-0.1,0.3l0.1,0.3v0.3l-0.1,0.4
		l-0.4,0.5l-0.3,0.7l-0.4,1.1l-0.2,0.3l-0.3,0.3l-0.8,0.6l-0.4,0.6l-1-0.3l-1.2-0.6l-1.6-0.3l-0.7-0.3l-0.8-0.4l-0.4-0.1l-0.3,0.1
		l-0.2,0.2l-0.3,0.2l-0.3,0.1l-0.2-0.1V344v-0.2l0.1-0.2l-0.1-0.2h-0.2l-0.3,0.1l-1.6,0.7h-0.3l-0.3-0.1l-0.4-0.1l-0.4,0.1l-0.3,0.2
		l-1.3,1.4l-0.4,0.3l-0.3,0.2l-0.2,0.2l-0.1,0.2l-0.1,0.3l-0.1,0.3l-0.2,0.3l-0.2,0.2l-0.3,0.2l-0.2,0.1l-0.5,0.6l-0.5,0.3l-0.3-0.1
		l-0.1-0.2l0.1-0.6v-0.3l-0.1-0.2l-0.2-0.2l-0.3-0.2l-0.6-0.1h-0.4l-0.8-0.2l-0.3,0.2l-0.2,0.3l-0.1,0.4l-0.1,0.4l-0.1,0.3l-0.2,0.2
		h-0.2l-0.6-0.1l-0.2-0.9v-0.4l0.2-0.8v-0.5l-0.1-0.4l-0.2-0.4l-0.1-0.5v-0.7l0.3-1.8l0.1-0.5l0.1-0.4l0.1-0.6v-0.4l-0.3-1l-0.1-0.5
		v-0.6l0.4-1.3v-0.3v-0.3l-0.1-0.3l-0.1-0.3v-0.4l0.2-0.3l0.5-0.5l0.2-0.3l0.3-1.2l0.1-0.7l0.1-0.5l0.7-1.8l0.3-0.5l0.6-0.7l0.3-0.2
		l0.3-0.1h0.3h0.3l0.3-0.1l0.7-0.4l0.3-0.1h0.4L391.7,327.5L391.7,327.5z"/>
	<path class="st1" d="M406,326.9l1.7-0.4l3.1-1.3l2.2-0.8l2.6-1.7l1.4-0.6l0.6-0.6l0.5-0.7l1.7,0.3l1.1-0.2l1-0.5l2-1.5l2.8-2.9
		l2.8-1.8l0.7-0.8l0.5-1l0.6-1.3l0.9-1.5l1.5-1.3l0.7-1l0.5-1.2l1.1-4l0.4-1.2l0.8-1l1.8-1.5l3.2-2.3l0.2-0.3h0.6l1-0.1l2.1-1
		l0.6-0.4l1.6-1.2l2.6-2.9l0.4-0.6l0.2-0.6l0.7-6.6l0.3-1.2l0.5-1.3l0.9-1.7l0.5-1.2l0,0l0.3,0.1l2.3,1l0.7,0.2l0.3,0.2l0.2,0.2v0.2
		v0.3v0.3v0.5l-0.1,1.2l0.1,0.5l0.2,0.4l0.3,0.3l0.3,0.3l0.4,0.3l0.3,0.2l0.7-0.1l0.4,0.1l1,0.8l0.2,0.2l0.2,0.3l0.2,0.4v0.5
		l-0.2,0.6l-0.2,0.4l-0.3,0.4l-0.9,0.7l-0.4,0.2l-0.4,0.1h-0.6l-1-0.1H458l-0.4,0.2l-0.2,0.5l-0.4,3.7l-0.5,1l-0.1,0.4l0.1,0.9l0,0
		l-0.2,0.6l-0.1,0.3l-0.1,0.8l-0.2,0.7l-0.1,0.4v0.4l0.3,0.5l0.6,0.6l0.9,0.5l0.9,0.7l-1,1.3l-0.5,0.5l-1.8,2.6l-1.2,1.3l-0.3,0.4
		l-0.1,0.3l0.1,0.3l0.1,0.2l0.1,0.3l0.1,0.4l0.1,0.4l0.1,1.4l-0.1,0.4l-0.3,0.1l-0.7-0.2h-0.3l-0.6,0.2h-0.3l-1.2-0.1l-0.4,0.2
		l-0.2,0.2l-0.3,0.9l-0.3,0.1l-0.8-0.1h-0.4l-1.6,0.4h-0.9l-0.4,0.2l-0.3,0.4l-0.2,0.4v0.3v0.3l0.2,0.3l0.2,0.3l0.1,0.4v0.4
		l-0.4,1.8l-0.1,0.4l-0.7,1.3l-0.1,0.5l0.1,0.4l0.3,0.6l0.1,0.2h0.2l0.2-0.1h0.2l0.1,0.2l0.5,1.1l0.1,0.3v0.3v0.4v0.8l0.2,1.6v0.4
		l-0.2,0.8l-0.1,1.2l-0.3,0.5l-0.3-0.2h-0.3l-0.3-0.1l-0.3-0.2l-0.3-0.9l-0.1-0.2l-0.2-0.2l0,0l-0.1-0.1l-0.2-0.1l-0.1-0.2l-0.2-0.3
		l-0.1-0.1l-0.2-0.2l-0.3-0.1l-0.3,0.1l-0.2,0.3l-0.2,0.6l-0.2,0.3l-0.1,0.1L441,326l-1.5,0.5l-0.2,0.1l-0.1,0.3v0.9l0.1,0.4v0.4
		l-0.2,0.2l-0.8,0.3l-0.2,0.2l-0.1,0.3l-0.1,0.8l-0.2,0.2l-0.3,0.3l-1.3,0.5l-0.4,0.2l-0.2,0.8l-0.2,0.3l-0.4,0.3l-0.6,0.2l-0.6,0.1
		l-0.5-0.1l-1.1,0.6l-0.3-1l0.1-1.9l-0.1-0.4l-0.2-0.4l-0.2-0.3l-1.1-0.9l-0.6-0.7l-0.2-0.5l-0.4-2.1l-0.1-0.4h-0.1l-0.4-0.2
		l-0.4-0.1l-0.5-0.1h-0.5l-1.4,0.4l-1.1,0.5l-0.4,0.3l-0.3,0.4l-0.7,1.3l-0.7,0.3l-0.3,0.2l-0.2,0.4l-0.1,0.4l-0.1,0.8l-0.2,0.2
		l-0.3,0.1l-0.4-0.2l-0.3-0.1h-0.2l-0.2,0.1l-0.7,0.4l-0.4,0.1l-0.5,0.1l-1.1,0.1l-0.4,0.1l-0.3,0.2l-0.4,0.5l-0.3,0.1l-0.8-0.6
		l-0.1-0.2v-0.2l0.1-0.8v-0.3l-0.1-0.3l-0.2-0.2l-0.2-0.2l-0.4-0.2l-0.4-0.1h-0.4l-0.3-0.1l-0.4-0.2l-0.3-0.1h-0.4H412l-0.2,0.1
		l-0.2,0.1l0.4,0.8l-0.1,0.3v0.3v0.6l-0.1,0.4l-0.2,0.4l-0.9,1.4l-0.3,0.3l-0.3,0.2l-1.1,0.4l-0.9-4.3l-0.3-0.4l-0.3-0.3l-0.9-0.5
		l-0.5-0.6L406,326.9z M427.2,292.3l0.9,0.1l1.2-0.3l0.9,0.1v1.2L430,294l-1,1.7l-0.3,0.6l-0.3,1.2L428,298l-2.9,2l-2.6,1l-0.6,0.1
		h-0.3l-0.2-0.1l-0.2-0.2l-0.1-0.3l0.1-0.3l0.2-0.1l1.2-0.3l0.3-0.2l0.1-0.4v-1.4l0.3-0.5l0.8-0.9l0.3-0.5l-0.7-1l-1.7,0.6l-0.4-0.9
		v-0.7l0.1-0.7l0.2-0.6l0.3-0.6l1-1.5l0.4-1l0.5-0.4l0.5-0.3l0.2-0.3l1.1-1.2l0.7-0.5l1-1.8l0.2-0.2l0.3-0.1h0.6l0.1,0.1v0.4
		l-0.3,2.1l-0.5,1.9l-1.1,2.5l-0.1,0.6v0.6l0.1,0.4h0.2L427.2,292.3z"/>
	<path class="st1" d="M454.5,277.2l0.8-2l0.5-1.3l0.7-1.1l2.2-2.1l0.8-1.1l0.7-1.2l1-4l1.1-2.9l0.2-1l0.2-1.2l0.2-0.5l0,0l0,0h0.1
		l1.9,0.5h0.3l0.3-0.1l0.3-0.1l0.4-0.1h0.3l0.3,0.1l0.8,0.9l0.9,0.6l0.5,0.3l0.6,0.1h0.4l0.3,0.1l0.2,0.2l0.3,0.2l0.4,0.2l1.9,0.4
		h0.8l0.6,0.1l1.6,0.9l0.4,0.4l0.3,0.8l0.4,0.8l0.8,0.7l1.3,0.3l0.2,0.8l0.9,1.1l0.5,1l0.5,0.8l0.1,0.3v0.3L481,271l-0.1,0.1
		l-0.1,0.7v0.8l-0.1,0.5l-0.1,0.4l-0.2,0.3l-0.2,0.2h-0.3l-0.4-0.1l-0.3,0.1l-0.2,0.4v0.4l0.1,0.4l0.3,0.7l0.1,0.5v1.4l0.1,0.5
		l0.2,0.4l0.2,0.3l0.2,0.3l0.1,0.5l-0.1,0.4l-0.3,0.7l-0.3,1.1l-0.2,0.3l-0.2,0.2l-0.5,0.7l-0.3,0.8l-0.2,0.5l-0.5,0.8l-0.2,0.4
		l-0.2,0.4l-0.2,0.7v1.2v0.6l-0.1,0.5l-0.2,0.7l-0.3,0.4l-0.7,0.8l-0.4,0.7l-0.4,0.4l-0.5,0.3l-0.4,0.1l-0.9,0.1l-0.3,0.2l-0.3,0.4
		l-0.1,0.5l-0.2,2.1v1.2l-0.1,0.6l-0.1,1.1l0.1,1.3l0.2,1l-0.1,0.6l-0.2,0.4l-0.8,0.7l-0.2,0.1l-0.2,0.1l-0.3,0.1h-0.3H470l-0.2-0.1
		h-0.3l-0.3,0.1l-0.4,0.4l-0.4,0.1h-0.3l-0.3-0.1l-0.5-0.6l-0.3-0.2l-0.3-0.1h-0.3l-0.7,0.1h-0.2l-0.2-0.1l-0.3-0.2l-0.3-0.3
		l-0.5-0.9l-0.3-0.4l-0.4-0.1l-0.3,0.2l-0.4,0.1h-0.3l-0.7-0.2h-0.6l-0.5,0.2h-0.4l-0.4-0.1l-0.3-0.2l-1-0.1l-0.9-0.7l-0.9-0.5
		l-0.6-0.6l-0.3-0.5v-0.4l0.1-0.4l0.2-0.7l0.1-0.8l0.1-0.3l0.2-0.6l0,0l-0.1-0.9l0.1-0.4l0.5-1l0.4-3.7l0.2-0.5l0.4-0.2h0.4l1,0.1
		h0.6l0.4-0.1l0.4-0.2l0.9-0.7l0.3-0.4l0.2-0.4l0.2-0.6v-0.5l-0.2-0.4l-0.2-0.3l-0.2-0.2l-1-0.8l-0.4-0.1l-0.7,0.1l-0.3-0.2
		l-0.4-0.3l-0.3-0.3l-0.3-0.3l-0.2-0.4l-0.1-0.5l0.1-1.2v-0.5v-0.3v-0.3v-0.2l-0.2-0.2l-0.3-0.2l-0.7-0.2l-2.3-1L454.5,277.2
		L454.5,277.2z"/>
	<path class="st1" d="M462.8,258.8l0.3-0.6l0.1-0.6l0.1-1.3l0.1-1l0.3-1.2l0.4-0.8l0.8-0.4l0.8-0.9l0.6-2.6l0.7-3.2l0.3-6.3v-1
		l-0.5-1.4v-0.8l-0.3-1l-0.6-0.9l-1-1l-1.1-0.6l-1.1,0.2l-0.3,0.3l-0.2,0.4l-0.3,0.3l-0.5,0.1h-1.6l-0.2-0.3l-0.3-0.8l-0.2-0.4
		l-0.5-0.7l-0.1-0.7l0.4-0.2l-0.5-0.3l-0.1-0.9l0.1-0.6l1.1,0.8l1.4,0.6h0.5l1.1-0.8l0.9-1.1l1.9-3.5l0.4-1.4l-0.1-0.7l0.4-1
		l0.2-0.4l0.2-3.2l0.1-0.7l-0.3-0.4l-0.3-0.3l-0.9-0.9l-0.4-0.5l-0.1-0.3l0,0l0.9-0.1h0.4l0.4-0.2l0.3-0.3l0.5-0.4l0.4-0.1l0.5,0.1
		l0.4,0.2l0.7,0.2h4.5l0.7-0.3l0.7-0.6l0.7-0.2h0.6l0.3,0.1l0.2,0.3l0.1,0.3l1,0.5l1.3,1.1l0.4,0.1l0.2-0.1l0.2-0.2l0.4-0.2h0.5
		l0.4,0.1l0.3,0.1l0.4,0.2h0.4l0.3-0.1l0.7-0.3l0.3-0.1h0.4l0.8-0.7l0.6-0.3l0.3-0.3l0.4-0.6l0.3-0.3l0.8-0.2l0.5,0.1l1.2,0.5
		l0.4,0.2l0.3,0.2l0.1,0.1l0.1,0.1v0.2v0.2l-0.1,0.2l-0.1,0.1l-0.1,0.1l-0.1,0.1l0.2,0.2l0.2,0.2l0.2,0.3l0.1,1v0.4l-0.1,0.4
		l-0.1,0.3l-0.1,0.3l-0.1,0.6l-0.2,0.7v0.4v0.5l-0.2,0.9l-0.5,0.5L488,223l-0.4,0.5l-0.4,0.7v0.4l0.1,0.3l0.1,0.3v0.3l-0.1,0.3v0.5
		v0.4l-0.1,0.4l-0.2,0.5l-0.1,0.4v0.4l0.1,0.5v2v0.4v0.3l0.1,0.6l0.1,0.6l0.3,1v0.4l-0.2,0.3l-0.3,0.1h-0.3l-0.3-0.1h-0.3l-0.3,0.1
		l-0.3,0.2l-0.2,0.3l-0.1,0.3v0.4l0.1,0.4l0.2,0.3l0.6,0.5l0.3,0.3v0.3l-0.1,0.3l-0.4,0.6l-0.2,0.4l-0.2,0.5l0.3,0.9l0.2,0.5
		l0.1,0.5v0.6l-0.1,0.4l-0.1,0.3l-0.4,0.7l-1.1,1.3l-0.2,0.4l-0.2,0.6l-0.4,1.2l-1,1.9l-0.4,1.4l0.1,0.4l0.1,0.4l0.5,1.1l0.2,1
		l0.2,0.3l0.2,0.2l0.3,0.4l0.1,0.2l0.2,0.2l0.5,0.4l0.2,0.2l0.2,0.3l0.1,0.4v0.5l0.1,0.3l0.2,0.2l0.2,0.2l0.1,0.2v0.2l-0.2,0.2
		l-0.3,0.2l-0.3,0.3l-0.3,0.7l-0.1,0.5v0.5l0.2,0.4l0.4,0.4l0.3,0.2l0.2,0.2l0.1,0.4l-0.1,0.3l-0.5,1.1l-0.4,1.7l-0.6,0.3l-0.2,0.2
		l-0.4,0.3l-0.4,0.4l-1.3,0.9l-1.6,0.6h-0.5l-0.4-0.1l-0.3-0.3l-1.3-0.3l-0.8-0.7l-0.4-0.8l-0.3-0.8l-0.4-0.4l-1.6-0.9l-0.6-0.1
		h-0.8l-1.9-0.4l-0.4-0.2l-0.3-0.2l-0.2-0.2l-0.3-0.1h-0.4L469,261l-0.5-0.3l-0.9-0.6l-0.8-0.9l-0.3-0.1h-0.3l-0.4,0.1l-0.3,0.1
		l-0.3,0.1h-0.3l-1.9-0.5L462.8,258.8L462.8,258.8L462.8,258.8z"/>
	<path class="st1" d="M464.4,216v-0.2l0.1-1.4l-0.1-1.4v-0.8l-0.3-0.3l-0.1-0.5l-0.3-0.5l-1,0.1l-0.5-0.2l0.1-0.6l0.5-0.5l0.5-0.6
		l0.6-0.1l0.3-0.8l0.5-0.3l0.3-0.5l0.4-0.8l0.3-0.8l1.2-0.8l0.6,0.1l0.6,0.5l0.3,0.2h0.4l0.4-0.2l0.4-0.4l1.1-0.8l0.5,0.3l0.5-0.2
		l0.4-0.4l0.3-0.6l0.6-2l0.3-2.1l0.2-0.6V198l0.1-0.7l0.1-0.9h0.1l0.4,0.7l0.2,0.2l0.3,0.2l0.2,0.2l0.3-0.1l-0.2-0.8l-0.2-0.3
		l0.2-0.2h0.2l0.3,0.1h0.3l-0.1-0.3l-0.1-0.2h-0.5h-0.3h-0.4l-0.2-0.2l-0.1-0.2l-0.2,0.1l-0.2,0.1l-0.1-0.1v-0.8v-0.4l-0.5-0.9
		l-0.5-0.3l-0.4-0.1L472,193l-0.1-0.3l0.3-0.2h0.6l0.6,0.1l0.4-0.4l0.2-0.7l0.1-0.6l-0.1-0.3v-0.4l0.1-0.8l0.2-0.3l-0.1-0.4l0.1-0.2
		l0.4,0.4l0.5,0.3l0.3,0.1l0.4,0.5l0.7,0.9l0.7,0.5h0.5l0.7-0.5l0.3-0.7l0.6-0.2l1.1,0.2l1,0.9l0.2,0.8l-0.1,0.9l-0.1,1l-0.1,0.3
		v0.4l0.1,0.7l0.1,1l0.3,1.1l0.5,3.7l0.8,1.4l1.2,0.6l1.2-0.1l0.8-0.9l0.5-0.6l0.5-1l-0.1-0.2l-0.1-0.4l0.1-0.2l0.1-0.1l-0.2-0.1
		l-0.2,0.1l-0.2-0.1l-0.2-0.2l0.2-0.1h0.3v-0.3v-0.2l0.2-0.2l-0.1-0.2l0.1-0.2l0.3-0.6l0.2-0.1l0.4,0.1l0.3,0.4l0.6,0.1l0.2,0.1
		l0.2,0.4l0.2,0.3l0.4,0.3v0.2v0.1l0,0l-0.1,0.2v0.3l0.1,0.1h0.3l0.5,0.2l0.6,0.4l0.3,0.1l0.3-0.1l0.2,0.2l0.1,0.4l0.2,0.5l0.2,0.2
		l0.5,0.3h0.4l0.5-0.2l0.4-0.4l0.5-0.7l1-2.5l0.3-0.9l0.1-2.2l0.1-0.5v-0.3l0.1-0.4l0.3-0.2l0.2-0.3l0.1-0.6l-0.2-1l-0.4-0.9
		l-0.5-0.9l-0.7-0.9l-0.6-0.4h-0.6l-0.2,0.5l-0.2,0.3l-0.2,0.3v0.1h0.2l0.1-0.2l0.2-0.2l0.1-0.1v0.1v0.2L494,190l-0.8,0.7l-0.5,0.1
		l-0.6,0.5l-0.4,0.5l-0.6-0.1l-0.7-0.3l-0.3,0.1l-0.4-0.1l-0.4,0.2l-0.4,0.6h-1l-0.4,0.3l-0.4-0.1l-0.3,0.1l-0.9,0.6l-0.3,0.6h-0.4
		l-0.8-0.5v-1.3v-0.4l0.3-0.4l0.2-0.9l-0.1-0.6l0.3-0.9l0.2-0.8l0.1-0.6V187l0.3-0.3l0.2-0.9l0.1-0.8l0.2-1l0.4-0.4l0.8-1.2l0.4-0.3
		l0.1-0.2l0.2-0.7v-0.4l-0.2-0.4l0.1-0.1l0.1-0.3l0.2-0.3l0.3,0.5l0.6,0.4l0.3,0.4l0.3,0.4l0.4,0.2l0.3,0.1l0.4,0.1l1.1,0.1l1.1,0.6
		l0.9,1l0.4,0.5l0.5,0.4l0.1,0.3l0.3,0.3l1,0.7l1,0.5h1l0.8-0.2l0.8-0.4l0.7-0.6l0.5-0.5l0.4-0.4l0.3-0.4l0.1,0.1l0.1,0.2l-0.2,0.2
		l0.1,0.3v0.1l-0.2,0.1v0.1l0.1,0.1l-0.1,0.3l-0.3,0.4l-0.1,0.5l-0.2,0.7l-0.2,0.6l-0.4,1.9l-0.1,0.9v0.3l-0.3,2l0.1,0.8l0.1,0.3
		l-0.1,0.4v0.5v0.4l-0.3,2v1.8l0.1,1.4l0.1,0.4l0.3,3.5l0.4,3l0.4,1.8l0.8,2.5l0.3,0.6l0.2,0.4l0.7,0.8l0.3,0.2h0.4l0.3-0.3l0.4-0.1
		l0.2,0.3l0.2,0.4l0.9,0.7l1.4,1.7l-0.2,0.1l-2.2,1.4l-0.2,0.3l-0.1,0.3l-0.1,0.3l0.5-0.4l-0.3,0.3l-0.4,0.1l-0.6-0.1l-0.9-0.3h-0.5
		l-0.6,0.2l-1.2,0.5l-0.7,0.2l-0.5-0.1l-0.2-0.2l-0.3-0.2h-0.3l-1.5,0.7l-3.9,2.3l-1.6,1.4l-0.3,0.2l-0.3,0.1l-0.3-0.1l-0.4-0.2
		L489,222l0.2-0.9v-0.5v-0.4l0.2-0.7l0.1-0.6l0.1-0.3l0.1-0.3l0.1-0.4v-0.4l-0.1-1l-0.2-0.3l-0.2-0.2l-0.2-0.2l0.1-0.1l0.1-0.1
		l0.1-0.1l0.1-0.2v-0.2v-0.2l-0.1-0.1l-0.1-0.1l-0.3-0.2l-0.4-0.2l-1.2-0.5l-0.5-0.1l-0.8,0.2l-0.3,0.3l-0.4,0.6l-0.3,0.3l-0.6,0.3
		l-0.8,0.7h-0.4l-0.3,0.1l-0.7,0.3l-0.3,0.1h-0.4l-0.4-0.2l-0.3-0.1l-0.4-0.1H480l-0.4,0.2l-0.2,0.2l-0.2,0.1l-0.4-0.1l-1.3-1.1
		l-1-0.5l-0.1-0.3l-0.2-0.3l-0.3-0.1h-0.6l-0.7,0.2l-0.7,0.6l-0.7,0.3h-4.5l-0.7-0.2l-0.4-0.2l-0.5-0.1l-0.4,0.1l-0.5,0.4l-0.3,0.3
		l-0.4,0.2h-0.4L464.4,216L464.4,216z"/>
	<path class="st1" d="M507.9,215.3l0.2,0.3l0.7,1l0.2,0.6l0.4,0.3l0.2,0.5l0.1,0.3l0.4,0.8l0.1,0.2l0.1,0.4l0.2,0.3l0.4,0.6l0.7,1.3
		l0.3,0.8l-0.2,0.4l-0.2,0.1l-0.2,0.3l-0.1,0.3l0.1,0.3l0.3,0.3l0.7,0.3l0.3,0.2l0.3,0.7l-0.3,0.4l-0.5,0.4l-0.2,0.7l0.1,0.8
		l0.3,0.5l1.6,1.5l0.3,0.2l0.3,0.1l0.2,0.2l0.1,0.7l0.1,0.3v0.3l-0.1,0.3l-0.3,0.4l-0.1,0.2l0.3,0.6l0.2,0.3l0.2,0.2l0.1,0.3l0.1,1
		l0.1,0.4l0.6,2l0.1,0.2v0.2l0.1,0.2v0.3l-0.1,0.3l-0.3,0.3l-0.1,0.2l-0.2,0.8l-0.1,1.4l-0.1,0.5l-0.3,0.7l-0.1,0.5l0.1,0.4l1.2-1.2
		l0.6-0.1l-0.1,0.3l-0.1,0.2v0.2l0.1,0.2l-0.2,0.6l0.1,0.3l0.7,0.7l0.1,0.1l0.1,0.1l0.1,0.2v0.3l-0.1,0.1l-0.1,0.1l-0.1,0.2
		l-0.2,0.1l-0.9,1.1l-0.4,0.2l-0.8,0.3l-0.3,0.3l0.4,0.6l0.6-0.1l0.6-0.5l0.2-0.6l0.2-0.2l0.4,0.2l0.2,0.3l-0.3,0.2l-0.2,0.2v0.5
		v0.5l-0.2,0.2l-0.5,0.1l-0.2,0.1h-0.2l-0.3,0.1l-0.2,0.2l-0.5,0.5l-0.3,0.2l0.6,0.3l-0.3,0.4l-0.7,0.5l-0.5,0.5l0.5,0.2l0.6-0.2
		l0.5-0.3l0.3-0.3l0.1,0.8l-0.5,0.5l-1.2,0.6l0.2,0.1l0.2,0.2l0.1,0.3h-0.2h-0.4h-0.2v0.4v0.4h0.8l0.4-0.1l0,0l0.1,0.7l-0.5,0.5
		l-0.7,0.3l-0.6-0.1l0.1,0.5l0.3,0.2h0.8l-0.3,0.6l-0.5,0.3l-0.6,0.2l-0.6,0.1l0.4,0.4l1.2,0.9l0.1,0.4l-0.6,0.3l-1.4-0.5l-0.5,0.4
		l1.1,0.6l0.3,0.3l-0.3,0.1l-0.3,0.1h-0.3h-0.3v0.2l0.3,0.2l0.4,0.3l0.2,0.3l-0.2,0.1l-1-0.2l-1,0.1h-0.5l-0.4-0.3v0.5l0.1,0.4
		l0.2,0.3l0.2,0.4h-0.3l-0.2,0.1l-0.3,0.4l0.4,0.1l0.1,0.3l-0.1,0.3l-0.3,0.1l-0.3-0.1l-0.3-0.3l-0.3-0.4l-0.2-0.3l0.3-0.2l0.2-0.3
		h-1.1l-0.3,0.4v0.6l-0.2-0.1l-1-0.2l-0.7-0.3l-0.7-0.1H504l-0.4,0.1l-0.3,0.3l-0.1,0.4v0.5v0.5v0.4l-0.1,0.3l-0.1,0.2l-0.2,0.2
		l-0.2,0.2l-0.2,0.3l-0.1,0.3v0.3v0.3v0.7v0.3v0.3l-0.1,0.2l-0.7,0.7l-0.3,0.1l-1.3-0.6l-0.5-0.1l-0.3-0.1l-0.3,0.1l-0.2,0.2
		l-0.1,0.2l-0.2,0.2l-0.7,0.4l-0.2,0.2l-0.4,0.5l-0.2,0.1h-0.3l-0.9-0.6l-0.9-0.4l-0.3-0.4l-0.5-0.8v-0.3l0.1-0.3l0.4-0.3l0.1-0.1
		v-0.1l-0.2-0.2l-0.4-0.2l-1-0.1h-1.7l-0.3-0.1l-0.4-0.2l-1.7-1.1l-2.3-1l-1.4-0.2l0.4-1.7l0.5-1.1l0.1-0.3l-0.1-0.4l-0.2-0.2
		l-0.3-0.2l-0.4-0.4l-0.2-0.4v-0.5l0.1-0.5l0.3-0.7l0.3-0.3l0.3-0.2l0.2-0.2v-0.2l-0.1-0.2l-0.2-0.2l-0.2-0.2l-0.1-0.3v-0.5
		l-0.1-0.4l-0.2-0.3l-0.2-0.2l-0.5-0.4l-0.2-0.2l-0.1-0.2l-0.3-0.4l-0.2-0.2l-0.2-0.3l-0.2-1l-0.5-1.1l-0.1-0.4l-0.1-0.4l0.4-1.4
		l1-1.9l0.4-1.2l0.2-0.6l0.2-0.4l1.1-1.3l0.4-0.7l0.1-0.3l0.1-0.4v-0.6l-0.1-0.5l-0.2-0.5l-0.3-0.9l0.2-0.5l0.2-0.4l0.4-0.6l0.1-0.3
		v-0.3l-0.3-0.3l-0.6-0.5l-0.2-0.3l-0.1-0.4v-0.4l0.1-0.3l0.2-0.3l0.3-0.2l0.3-0.1h0.3l0.3,0.1h0.3l0.3-0.1l0.2-0.3v-0.4l-0.3-1
		l-0.1-0.6l-0.1-0.6v-0.3V231v-2l-0.1-0.5v-0.4l0.1-0.4l0.2-0.5l0.1-0.4v-0.4v-0.5l0.1-0.3v-0.3l-0.1-0.3l-0.1-0.3v-0.4l0.4-0.7
		l0.4-0.5l0.6-0.4l0.5-0.5l1.2,0.8l0.4,0.2l0.3,0.1l0.3-0.1l0.3-0.2l1.6-1.4l3.9-2.3l1.5-0.7h0.3l0.3,0.2l0.2,0.2l0.5,0.1l0.7-0.2
		l1.2-0.5l0.6-0.2h0.5l0.9,0.3l0.6,0.1l0.4-0.1l0.3-0.3l0.1-0.3l0.1-0.3l0.1-0.3l0.2-0.3l2.2-1.4L507.9,215.3z"/>
	<path class="st1" d="M506.9,263.6L506.9,263.6l0.1,1.4l0.6,1.6l0.1,0.7l-0.5-0.4l-0.1-0.2l-0.1-0.4l-0.1-0.2l-0.1-0.1h-0.1
		l-0.2,0.1h-0.2h-0.5l-0.3,0.1l-0.1,0.3v0.6l0.1,0.6l0.1,0.3l-0.1,0.2l-0.3,0.4l-1.1,0.8l-0.2,0.4l0.3,0.2l0.2,0.2l0.3,0.5l0.5,0.4
		l0.1,0.3l-0.2,0.5l-0.2,0.1l-0.1-0.1l-0.1-0.1h-0.2l-0.1,0.1l-0.3,0.5l-0.2,0.2l-0.6,0.2L503,273l-0.4,0.4v0.2l0.3,0.3l0.3,0.1
		l1.2,0.1l0.1,0.2l-0.2,0.5l-0.3,0.5l-0.2,0.2l-1.1,0.9l0.4,0.4l0.4,0.5l0.4,0.2l0.4-0.5l0.3,0.5l0.1,0.5v0.5l-0.1,0.7l-0.3-0.1
		L504,279l-0.1-0.3l-0.1-0.3l-0.4,1.2l-0.1,0.3l0.1,0.1l0.1,0.1v0.1l0.1,0.1l-0.6,0.2l-0.3,0.2v0.2l0.2,0.4v0.3v0.3l0.3,0.3l0.3-0.2
		l0.5-0.1l0.5,0.1l0.3,0.4l-0.4-0.1h-0.3l-0.3,0.2l-0.2,0.4l0.6,0.4l0.1,0.7v0.7l0.3,0.5l-0.1,0.2L504,286l-0.2-0.1l-0.7-0.7
		l-0.2-0.1h-0.4l-0.2-0.1l-0.1-0.2l0.1-0.2l0.1-0.2v-0.2l-0.2-0.2l-0.8-0.4l0.1-0.2l0.2-0.7l-0.3-0.3h-0.2l-0.2,0.1h-0.3l-0.3-0.1
		l-0.3-0.1l-0.6-0.5l-0.5-0.2h-0.7l-1.9,0.4l-0.7,0.3l-0.5,0.5l-0.2,0.8l0.1,0.7H495h-0.4l-0.1-0.2l-0.4-1.3l-0.2,0.2l-0.2,0.1h-0.2
		l-0.2-0.2l-0.5,0.3l-0.4,0.5l-0.3,0.6l-0.1,0.6l0.2-0.1h0.3l0.2,0.1l0.1,0.3l-0.1,0.2l-0.2,0.2l-0.3,0.2L492,286l-0.9,1.1l-0.7,1.2
		l-0.5,1.2l-1,3.9l-0.2,1.3v1.3l0.3,2.3v0.1h-0.2l-1.2,0.1l-0.3,0.1l-0.2,0.2l-0.1,0.3l0.1,0.6v0.3l-0.1,0.9l-0.1,0.4l-0.2,0.2
		l-0.4,0.1h-1.2l-0.1,0.1l0.2,0.3l-0.1,0.2h-0.4l-0.8-0.2l-1-0.7l-0.2-0.3l-0.1-0.3v-0.3v-0.7l-0.1-0.4l-0.2-0.4l-0.5-0.3l-0.5-0.1
		l-0.4-0.2l-1-0.3l-1.4,0.3h-0.2l-0.3-0.1l-0.3-0.3l-0.4-0.7l-0.3-0.3l-0.4-0.2l-1-0.4h-0.4l-0.9,0.2h-0.8l-1.3-0.6l0.2-2.1l0.1-0.5
		l0.3-0.4l0.3-0.2l0.9-0.1l0.4-0.1l0.5-0.3l0.4-0.4l0.4-0.7l0.7-0.8l0.3-0.4l0.2-0.7l0.1-0.5v-0.6v-1.2l0.2-0.7l0.2-0.4l0.2-0.4
		l0.5-0.8l0.2-0.5l0.3-0.8l0.5-0.7l0.2-0.2l0.2-0.3l0.3-1.1l0.3-0.7l0.1-0.4l-0.1-0.5l-0.2-0.3l-0.2-0.3l-0.2-0.4l-0.1-0.5v-1.4
		l-0.1-0.5l-0.3-0.7l-0.1-0.4v-0.4l0.2-0.4l0.3-0.1l0.4,0.1h0.3l0.2-0.2l0.2-0.3l0.1-0.4l0.1-0.5v-0.8l0.1-0.7l0.1-0.1l0.2-0.4v-0.3
		l-0.1-0.3l-0.5-0.8l-0.5-1l-0.9-1.1l-0.2-0.8l0.3,0.3l0.4,0.1h0.5l1.6-0.6l1.3-0.9l0.4-0.4l0.4-0.3l0.2-0.2l0.6-0.3l1.4,0.2l2.3,1
		l1.7,1.1l0.4,0.2l0.3,0.1h1.7l1,0.1l0.4,0.2l0.2,0.2v0.1l-0.1,0.1l-0.4,0.3l-0.1,0.3v0.3l0.5,0.8l0.3,0.4l0.9,0.4l0.9,0.6h0.3
		l0.2-0.1l0.4-0.5l0.2-0.2l0.7-0.4l0.2-0.2l0.1-0.2l0.2-0.2l0.3-0.1l0.3,0.1l0.5,0.1l1.3,0.6l0.3-0.1l0.7-0.7l0.1-0.2v-0.3v-0.3
		v-0.7v-0.3v-0.3l0.1-0.3l0.2-0.3l0.2-0.2l0.2-0.2l0.1-0.2l0.1-0.3v-0.4v-0.5v-0.5l0.1-0.4l0.3-0.3l0.4-0.1h0.6l0.7,0.1l0.7,0.3
		l1,0.2L506.9,263.6z"/>
	<path class="st1" d="M489.2,298.1L489.2,298.1l0.7,1.3l0.9,1.6l0.3,1.1l0.1,0.5l0.2,0.3l0.1,0.4v0.6l-0.1,0.3l-0.2,0.4v0.2l0.1,0.2
		l0.3,0.5l0.1,0.3l0.3,8.6l-0.1,1l-0.5,2.3v1L491,319v2.9l-0.1,0.3l-0.4,1l-0.3,2.8l-0.4,1.1l-0.9,0.9l-0.2,0.1l-0.6,0.1l-0.8,0.6
		l-0.6,0.2l-0.4,0.4l-0.2,0.1l-0.2,0.2l-0.1,0.4v0.6l-0.1,0.3l-2.5-0.7l-0.3-0.2l-1.8-0.7l-0.4-0.3l-0.3-0.3l-0.1-0.2l-0.2-0.1H480
		l-0.2,0.3v0.3v0.3l0.1,0.4l0.1,0.4l-0.1,0.3l-0.8,0.5l-0.4,0.5l-0.2,0.3l-0.2,0.2l-0.4,0.5l-0.3,0.2l-0.5-0.1l-1.1-0.7l-0.7-0.6
		l-0.6-0.6l-0.7-0.6l-0.6-0.6l-0.5-0.4l-1.2-0.6l0.1-0.6l-0.2-1.5l-0.1-0.3l0,0l0,0l-0.1-0.1l-0.5-0.2l-0.2-0.3l-0.1-0.3l-0.1-0.4
		l-0.1-0.3l-0.2-0.2l-0.3-0.2l-1.3-1l-0.4-0.2l-3.5-1.1l-1-0.1l-0.8,0.1l-0.6,0.3l-1,0.8l-0.8,0.8h-0.7l-0.4,0.1l-1.7,0.7l-4.2,2.5
		l-1.2,0.4l-0.4,0.2l-1,1l-1.2,0.7l-2.2-0.5h-0.6l-0.5-0.2l-0.2-0.1l-0.1-0.5l0.3-0.5l0.1-1.2l0.2-0.8v-0.4l-0.2-1.6v-0.8v-0.4V322
		l-0.1-0.3l-0.5-1.1l-0.1-0.2h-0.2l-0.2,0.1h-0.2l-0.1-0.2l-0.3-0.6l-0.1-0.4l0.1-0.5l0.7-1.3l0.1-0.4l0.4-1.8v-0.4l-0.1-0.4
		l-0.2-0.3l-0.2-0.3v-0.3v-0.3l0.2-0.4l0.3-0.4l0.4-0.2h0.9l1.6-0.4h0.4l0.8,0.1l0.3-0.1l0.3-0.9l0.2-0.2l0.4-0.2l1.2,0.1h0.3
		l0.6-0.2h0.3l0.7,0.2l0.3-0.1l0.1-0.4l-0.1-1.4l-0.1-0.4l-0.1-0.4l-0.1-0.3l-0.1-0.2l-0.1-0.3l0.1-0.3l0.3-0.4l1.2-1.3l1.8-2.6
		l0.5-0.5l1-1.3l1,0.1l0.3,0.2l0.4,0.1h0.4l0.5-0.2h0.6l0.7,0.2h0.3l0.4-0.1l0.3-0.2l0.4,0.1l0.3,0.4l0.5,0.9l0.3,0.3l0.3,0.2
		l0.2,0.1h0.2l0.7-0.1h0.3l0.3,0.1l0.3,0.2l0.5,0.6l0.3,0.1h0.3l0.4-0.1l0.4-0.4l0.3-0.1h0.3l0.2,0.1h0.3h0.3l0.3-0.1l0.2-0.1
		l0.2-0.1l0.8-0.7l0.2-0.4l0.1-0.6l-0.2-1l-0.1-1.3l0.1-1.1l0.1-0.6v-1.2l1.3,0.6h0.8l0.9-0.2h0.4l1,0.4l0.4,0.2l0.3,0.3l0.4,0.7
		l0.3,0.3l0.3,0.1h0.2l1.4-0.3l1,0.3l0.4,0.2l0.5,0.1l0.5,0.3l0.2,0.4l0.1,0.4v0.7v0.3l0.1,0.3l0.2,0.3l1,0.7l0.8,0.2h0.4l0.1-0.2
		l-0.2-0.3l0.1-0.1h1.2l0.4-0.1l0.2-0.2l0.1-0.4l0.1-0.9v-0.3l-0.1-0.6l0.1-0.3l0.2-0.2l0.3-0.1l1.2-0.1L489.2,298.1z"/>
	<path class="st1" d="M485.8,331l-0.1,0.3l-1,1.6l-0.2,0.5l-1.2,4.7l-1.4,2.4l-0.4,1l-0.3,2.2v0.5l0.3,1.2v0.5l-0.2,0.8l-0.9,1
		l-0.4,0.7l0.1,1.2l0.3,2.6l0.8,2l0.9,2.5l3.6,6.3l1,1.5l0.3,0.6l0.3,0.2l0.2,0.1l-0.1,0.1l-0.8-0.1l-0.6-0.3l-0.6-0.4l-0.5-0.5
		l-1.1-1.4l-0.5-0.4l-0.5-0.3l-1.1-0.4l-1.4-0.9l-0.5-0.1l-2.3-0.1l-1.7,0.2l-0.6,0.2l-0.6,0.7l-0.6,0.1l-3.3,0.2h-0.5l-1.1-0.3
		l-4-1.8l-0.9-0.8l-1.7-2.1l-1.5-2.3l-0.3,0.1l-0.5-0.2h-0.5l-0.5-0.2l-0.2-0.1l-0.3-0.3l-0.6-0.8l-0.2-0.5l-0.1-0.4l-0.5-1.6
		l0.4,0.1h0.2l0.7-0.1l1.1-0.4l0.9-0.5l0.2-0.2l0.4-0.8l0.3-0.4l0.6-0.6l0.5-0.2h0.4h0.2l0.3-0.1l0.3-0.5l1.2-1.1l0.3-0.1l0.3-0.1
		l0.5,0.1h0.2h0.3l0.6-0.3l0.4-0.3l0.8-0.3l0.7-0.1l0.7,0.2h0.3l0.3-0.3l0.3-0.4l0.5-1.4l0.3-0.5l0.5-0.7l0.1-0.5l0.1-0.8l-0.2-2.6
		l-0.2-1.2v-0.5l0.2-0.4l0.4-0.3l0.4-0.3l0.2-0.3l-0.3-0.8l-0.1-0.5V332l-0.1-1v-0.6v-0.5l-0.1-0.6l-0.1-0.9l1.2,0.6l0.5,0.4
		l0.6,0.6l0.7,0.6l0.6,0.6l0.7,0.6l1.1,0.7l0.5,0.1l0.3-0.2l0.4-0.5l0.2-0.2l0.2-0.3l0.4-0.5l0.8-0.5l0.1-0.3l-0.1-0.4l-0.1-0.4V329
		v-0.3l0.2-0.3h0.1l0.2,0.1l0.1,0.2l0.3,0.3l0.4,0.3l1.8,0.7l0.3,0.2L485.8,331z"/>
	<path class="st1" d="M487.3,365.5l0.1,0.1l0.2,0.1l0.1,0.3l-0.3,0.7l-0.2,0.3l-0.3-0.2l-0.2-0.3l-0.3-0.3l-0.6,0.1l-0.8,0.4
		l-1.3,0.4l-0.1-0.5l-1.4,0.3l-1.6,1.1l-2.8,2.7l-1.5,2.3l-0.9,3.4l0.5,1.6l0.2,0.9l-0.2,1.3l-0.1,1.1l-0.1,0.8l-0.4,0.6l-0.7-0.1
		l-0.5,0.7l0.1,0.5l-0.3,0.4l-0.4-0.1l-0.2-0.4l-0.4,0.4l-0.6-0.1l-0.4,0.7l-0.9-0.1l-1.1-0.1l-0.5-0.1l-0.7,0.8l-0.1,0.7l-0.6,0.5
		h-0.5l-0.9,0.6l-0.8,0.5l-0.3,0.4l-0.1,0.5l-0.3,0.4v0.5l-0.1,0.6l-0.2,0.4l-0.2,0.3l-0.4,0.3l-0.6,0.1l-0.4,0.1l-0.3-0.1l-0.4,0.1
		l-0.3,0.1l-0.1-0.1l-0.4-0.2l0.1-0.3v-0.4l-0.3-0.3l-0.8-0.3l-0.5-0.1l-0.1-0.3v-0.3h0.3l0.5,0.1h0.3l0.4-0.1l0.3-0.2l0.2-0.3h0.3
		l0.5,0.1l0.2-0.1l0.1-0.3l-0.1-0.4l-0.3-0.2l-0.5-0.2V387l0.3-0.3l0.1-0.3L462,386l-0.2-0.6l-0.1-0.3V384l-0.4-0.7l0.1-0.4
		l-0.1-0.4l0.1-0.4l0.7-0.5l0.3-0.3v-0.7l-0.5-0.8v-0.7l-1-0.4l-0.7-0.3v-0.1h0.5l0.6-0.3v-0.6l0.4-0.4l0.2-0.5l1.2,0.4l0.4-0.4
		v-0.4l-0.2-0.9l0.3-0.3l0.7-0.2l0.4-0.4l0.6-0.1l0.6-0.5l0.4-0.5l0.5-0.7l0.8-0.9l0.5,0.1l0.2-0.4l0.1-0.4H468l-0.1-0.6l-0.1-0.6
		l-0.4-0.4l-0.4-0.5l-0.4-0.3l-0.6-0.6l-0.3,0.1l-0.3-0.4l-0.8-0.1l-0.7,0.3l0.5,0.8l-0.7,0.4l-0.4,0.3l-0.2-0.3l-0.3-0.1l-0.2-0.2
		h-0.2l0.3-0.9l0.1-0.4l0.1-0.7l-0.6-2.5l0.3-2.2l-0.1-0.6l-0.1-0.6l-0.2-0.4l-0.5-0.7l-0.2-0.5l-0.9-2.5l-0.3-0.6l-0.8-1.3h0.5
		l0.5,0.2l0.3-0.1l1.5,2.3l1.7,2.1l0.9,0.8l4,1.8l1.1,0.3h0.5l3.3-0.2l0.6-0.1l0.6-0.7l0.6-0.2l1.7-0.2l2.3,0.1l0.5,0.1l1.4,0.9
		l1.1,0.4l0.5,0.3l0.5,0.4l1.1,1.4l0.5,0.5l0.6,0.4l0.6,0.3L487.3,365.5L487.3,365.5z"/>
	<path class="st1" d="M460.4,372.4l-0.2,0.3l-0.9,0.5l-0.8,0.6L458,374l-0.5-0.2l-0.4,0.1l-0.2,0.3l0.5,0.2l0.5,0.2l0.2,0.2
		l-0.1,0.4l0.1,0.6h-0.3l-0.6-0.3l-0.4,0.3l0.2,0.4l0.4,0.4l-0.1,1.2l-0.1,0.4v0.5v0.4l0.2,0.3l0.2-0.4l0.3,0.2l0.4,0.7l1,0.1
		l0.3,0.5l-0.5,0.5l0.1,0.1v0.1v0.1l-0.1,0.5l-1-0.1l-0.6,0.5l-0.1,0.5l0.3,0.6l0.2,0.3l0.1,0.3l-0.3,0.1h-0.3l-0.6-0.1l-0.4,0.2
		l-0.2-0.1l-0.1-0.2l0.1-0.3v-0.7l-0.3-0.9l0.6-0.3l-0.1-0.2l-0.4-0.1l-0.2-0.4l-0.7-0.9l-0.1-0.2l-0.1-0.3h-0.3l-0.1-0.6l-0.4,0.2
		l-0.5-0.1l-0.5,0.1l-0.5-0.4l-1.3-0.2l-2.1,0.4l-1.2,0.3l-1.2,0.3l-1.2,0.7l-0.9,0.9l-0.1,1.6l0.4,1.5l-0.9-0.4l-0.7,1l-0.5-0.2
		l-0.5-0.1l-0.6-0.2l-0.2-0.2l-0.2-0.2l-0.2-0.3l-0.5-0.8l-0.3-0.7l-0.1-0.8v-0.6l0.2-0.4l0.4-0.5l0.1-0.2l0.1-0.2v-0.3v-0.4
		l-0.1-0.6l-0.1-0.3v-0.2v-0.2v-0.5v-0.2l-0.3-0.2l-0.3-0.1l-1.6,0.2l0.1-0.6l0.7-1.1l0.5-0.4l0.5-0.3l0.5-0.2l2.2-1.2l0.3-0.3
		l0.2-0.4l0.2-0.4l0.3-1.4v-0.4l-0.1-1l0.2-0.7l0.6,0.1l0.9,0.6l0.5,0.2l1,1l0.5,0.3l0.8,0.2l1.1,0.1l0.9,0.2l0.5,0.3l0.5,0.5
		l0.2,0.4l0.8,1.1l0.1,0.1h0.1h0.1v-0.1V373v-0.3l-0.1-1l0.1-0.3h0.2l0.1-0.2v-0.1l-0.1-0.2l-0.6-0.6l-0.2-0.2v-0.2h0.2l0.4,0.2h0.2
		l0.1-0.1l0.1-0.2l0.2-0.1l0.3-0.1l0.3-0.1h0.3l2.9,1.5l0.2,0.1l0.1,0.1l0.7,0.5L460.4,372.4L460.4,372.4z"/>
	<path class="st1" d="M443.1,384.5l-0.1,0.2l-0.3,1.1v0.7l0.8,0.1l-0.1,0.6l-0.1,0.6l-0.3,0.4l0.4,0.7l0.8,0.3l0.3,0.7l0.1,1.1
		l-0.2,1.1l-0.5,0.1l-0.5,0.3l-0.3,0.4l-0.1,0.4l-0.2,0.6l-0.4,0.5l-0.2,0.5l-0.2,0.3l-0.4,0.1l-0.2,0.3l-0.2,0.2l-0.3,0.4l0.1,0.3
		l-0.1,0.2l-0.2,0.4l-0.1,0.6v0.6l0.2,0.5l-0.3,0.2h-0.2l-0.2-0.2l-0.6-0.3l-1.1,1l-0.9,0.5l-0.6,0.5l-0.4-0.2l-0.4-0.3l-0.3-0.4
		l-0.6-0.6l0.2-0.5l-0.1-0.2l-0.2-0.2l-0.2-0.1l-0.2-0.1l-0.1-0.3v-0.5v-0.6l0.3-0.3l0.1-0.3l0.3-0.1l-0.4-1l-0.3-0.9l0.2-0.5
		l0.1-0.5v-0.1v-0.6l-0.2-0.3l0.2-0.4l0.3-0.3l0.3-0.1l-0.3-0.5l-0.1-0.3l-0.3-0.7v-0.7l0.4-0.7l0.2-0.7l1,0.1l0.7,0.1h0.5h0.5
		l0.3-0.3l-1.4-1.5l-0.4-0.7l-0.9-0.7l-1.5-0.4L433,384l-0.8,0.4l-0.7,0.3h-1.3l-0.8,0.6l-0.7,1.4l-0.7,0.6l-0.1,1l0.3,0.3V388
		l0.3-0.2l0.3,0.1l-0.4,1.1l-1.2,0.6l-1,0.4l-0.7,0.4l-0.8,0.5l-0.3,0.4l-0.2,0.5l-0.3,0.4l-0.2,0.6v0.3l0.3,0.6l-0.4,0.6l-0.3,0.3
		l-0.5,1l-1.1,0.8l-0.8,0.8l-0.4,1.6l-0.2,0.6l0.2,0.6l0.6,0.2l0.4,0.4l-0.2,0.2l-1.1-0.2l-3.6-1.6l-2-0.4h-1.9l-2.5,0.9l-2.7-1
		l-2.2-0.2h-1.2l-2,0.2V398v-0.2l-0.1-0.4v-0.6l0.1-0.8l0.1-0.6l0.4-1.2l0.2-0.3l0.4-0.2l1.3-0.4l0.2-0.1l0.2-0.1l0.8-0.7l0.2-0.3
		l0.2-0.5l0.2-0.5l0.9-1.1l0.1-0.4l0.2-1.3l0.3-0.5l1.4-1.4l0.4-0.6l0.4-1l0.2-0.7v-0.8l0.2-1l0.8-0.3l0.9-0.9l0.5-0.2l1.1-0.9
		l0.5-0.3l0.6-0.1l0.3-0.1l0.2-0.2l0.2-0.3l0.3-0.3l0.3-0.2l0.7-0.2l0.4-0.2l0.7-0.6l0.3-0.4l0.1-0.4l-0.1-0.3l-0.1-0.3l-0.2-0.3
		v-0.3l0.1-0.3l0.4-0.4l0.2-0.4v-0.3l-0.1-0.3l0.5-0.8l0.1-0.5v-0.4v-0.4l-0.1-0.4l0.2-0.4l0.3-0.2l0.4-0.1l0.2-0.2l0.1-0.3l0.1-0.6
		l0.2-0.6l0.4,0.5l0.1,0.3l0.1,0.9l0.4,1.2l0.1,0.5v1.3v0.3l-0.2,0.6v0.3l0.1,0.8l-0.1,0.5l-0.2,0.8v0.4l0.1,0.4v0.3v0.3v0.3
		l0.1,0.3l0.3,0.2l0.4,0.1l0.5-0.2l0.5-0.1l0.6,0.1l0.4,0.2l0.2,0.4l0.4,1.8l0.2,0.5l0.2,0.4l0.4,0.3l0.5,0.5l0.3,0.2l0.3,0.1h0.4
		l0.4-0.1l0.4-0.3l0.3-0.3l0.1-0.2l0.1-0.2v-0.2v-0.2v-0.4l-0.1-0.4l-0.1-0.8v-1.1l0.3-1.1l0.2-1.6l0.1-0.5l0.2-0.4l0.2-0.2h0.3
		l0.9,0.8l0.5,0.3l0.6,0.1l0.3,0.2l0.2,0.3l0.4,0.3l0.6,0.2l3.3-0.4l1.8-0.5l1.6-0.2l0.3,0.1l0.3,0.2v0.2v0.5v0.2v0.2l0.1,0.3
		l0.1,0.6v0.4v0.3l-0.1,0.2l-0.1,0.2l-0.4,0.5l-0.2,0.4v0.6l0.1,0.8l0.3,0.7l0.5,0.8l0.2,0.3l0.2,0.2l0.2,0.2l0.6,0.2l0.5,0.1
		L443.1,384.5z"/>
	<path class="st1" d="M384.4,387.3l-0.2,0.1l-0.5-0.1l-1.1,0.8l-0.6,0.5l-0.2,0.5v0.2l-0.1,0.3v0.2l0.1,0.2l0.4,0.1l-0.4,0.3
		l0.1,0.6l-0.2,0.7l-0.6,1.1l-1.3,1.6l-0.8,1.1l-0.2,1.4l-0.1,0.6l-0.1,0.6l0.1,0.1l0.3,0.5l0.1,0.1l0.3,0.2v0.4l-0.1,0.4v0.3
		l0.3,0.4l0.4,0.2h1.1l0.5,0.1l0.4,0.3l0.3,0.4l0.4,0.4l1.9,1.2l1.3,0.5l0.3,0.3l0.3-0.1h0.3l0.3,0.1l0.2,0.2l0.2,0.4v0.3l0.1,0.3
		l0.2,0.3l0.3,0.1h0.3h0.2l0.2,0.3v0.3l-0.2,1.1l-0.3-0.2H388l-0.2,0.1l-0.2,0.3l0.1,0.2l0.2,0.2l0.3,0.1h0.3l-0.4,0.4l-0.1,0.2
		l-0.1,0.2l0.2,0.3l0.2,0.5l0.1,0.6l-0.1,0.5l-0.2,0.2l-0.9,0.3l-0.4,0.1h-0.4l-0.6-0.2l-0.5-0.3v-0.3l0.4-0.1l0.5,0.1l0.5,0.2
		l0.3,0.2l-0.1-0.2v-0.3l-0.1-0.2l0.3,0.2l0.2-0.6l-0.2-0.4l-0.5-0.1l-0.5,0.1l0.1,0.2v0.1v0.1v0.2l-0.9-0.6l-0.4,0.4l-0.8,0.2
		l-0.6-0.1l0.1-0.5l0.4-0.6l-0.4-0.1l-0.8,0.2l-0.7,0.4l0.5,0.1v0.4l-0.3,0.4l-0.8,0.3l-0.4,0.3l-0.4,0.1l-0.5-0.5l-0.1,0.2
		l-0.1,0.1l-0.1,0.1v0.3l-0.7-0.4H379l-0.1,0.4l-0.1,0.3l-0.2,0.2l0.2,0.5h-0.3l-0.8-0.3l-1.1,0.8l-0.3,0.3h-0.8l-1.2,0.6l-0.9,0.9
		v0.9l0.3,0.2l0.2,0.1l0.1,0.2l-0.1,0.4l-0.1,0.1l-0.2,0.1l-0.2,0.1h-0.2l-0.3-0.1l-0.3-0.6l-0.2-0.1l-0.2,0.2l-0.4,0.6l-0.3,0.2
		v0.2h0.4l0.3,0.1l0.2,0.2l0.1,0.4l0.5,0.5l0.2,0.3l-0.1,0.1l-0.1,0.2v0.8l-0.1,0.3l-0.4,0.2l-0.3-0.2l-0.2-0.3l-0.2-0.3l-0.3,0.4
		l-0.4,0.3v0.2l0.6,0.1l0.2,0.4l-0.2,0.3l-0.4-0.2l-0.1,0.5l-0.2,0.2l-0.9,0.1l-0.1,0.1l-0.2,0.2l-0.3,0.4l-0.1,0.1h-0.3l-0.5-0.1
		l-0.9,1.3l-1.3,3.4l-0.6,1.4l-0.7-0.4l-0.4-0.2l-0.3-0.3l-0.2-0.3l-0.2-0.4l-0.4-0.4l-1-1.2l-0.3-0.5l-0.1-0.4v-0.2v-0.4l0.7-0.4
		l0.2-0.4l0.2-0.6l0.2-0.2h0.4l0.1-0.1l0.1-0.2l0.8-0.5l0.4-0.6l0.3-0.5l0.1-0.5l0.3-0.7l0.3-0.4l0.4-0.2h1.3l0.3-0.1l0.1-0.2
		l-0.3-0.5L368,417l0.6-2.3v-0.4l-0.1-1.5l0.3-1.2v-0.4l-0.1-0.4l-0.2-0.4l-0.1-0.4l0.1-0.3v-0.3l-0.6-1.5l-0.2-0.4l-0.1-0.4v-0.5
		l0.2-0.5l0.4-0.3l0.5-0.2l1.1-0.2l0.5-0.2l0.6-0.6l0.2-0.4v-0.4l-0.1-0.3l-0.1-0.2l-0.5-0.1l-0.2-0.2l-0.2-0.6l-0.2-0.2l-0.3-0.1
		h-0.3h-0.4l-0.4-0.2l-0.5-0.3l-0.4-0.3l-0.2-0.4v-0.4l0.1-0.5v-0.4l-0.1-0.2l-0.3-0.2l-0.1-0.1V399l0.6-0.2l0.2-0.3l-0.2-0.6
		l-0.1-0.4l-0.1-0.3l-0.1-0.2l-0.1-0.1l-0.3-0.1L366,395l2-0.8l0.5-0.6l0.3-0.4l-0.3-0.6v-0.3l0.3-0.2h0.3l1.4,0.3h1.5l1.8-0.5
		l0.8-0.4l0.5-0.4l0.2-0.3l0.3-0.3l0.3-0.3l0.2-0.4l0.2-0.5l0.1-0.5l0.2-1.2l0.3-1.2l0.3-2.1V384l-0.2-0.3l-0.7-1l-0.2-0.6l2.9-0.9
		l0.3,0.1l0.3,0.2l0.3,0.6l0.2,0.3l0.7,0.6l0.8,0.5l1.4,0.6l0.3,0.5l0.4,0.4l0.3,0.5l0.4,1l0.3,0.5L384.4,387.3z M387.9,403.4
		l0.2-0.2l0.2,0.1l-0.1,0.2l-0.1,0.2l-0.3,0.2l-0.2,0.1l-0.1-0.2l-0.1-0.2L387.9,403.4z M387.9,402.4l0.2-0.2l0.3-0.1l-0.2,0.2v0.2
		l-0.4,0.1l-0.4,0.3L387,403l-0.2-0.1l0.4-0.2L387.9,402.4z"/>
	<path class="st1" d="M365.4,428l-0.1,0.1l-0.2,0.9l-0.5,0.3l-0.1,0.5L364,430v0.4l0.5,0.3l-0.3,0.5l-0.8,0.9l-0.5,0.2l-0.2,0.4
		l-1.4,0.5l-0.5,0.3l-0.3,0.3l-0.4,0.7l0.2,0.6v0.4l-0.4-0.1l-0.3,0.3l-0.2-0.5l0.4-0.5l-0.1-0.4l-2.4-0.3l-0.8-0.1l-3.7-1.4
		l-1.2-0.3l-0.9-0.7l-0.3-0.3l-0.3-0.3v-0.4l0.1-0.3l-0.3-0.5l-0.1-0.2l-0.1-0.1l-0.3-0.3L349,429l-0.4-0.4l0.4-0.7l0.9-0.1l0.6-0.1
		l-0.3-0.4l-1.3-1l-0.5-0.2l-0.2-0.4l-0.5,0.1l-0.7-0.5h-0.8l-0.1-0.5l-0.8-0.5l-0.6-0.7l-0.5-1.1l-0.9-0.5l-0.5,0.1l-0.9,0.1
		l-0.2,0.2l0.1-0.3l0.1-0.2l-0.2-0.1l0.2-0.1h0.4v-0.4l-0.2-0.4l0.4-0.3l0.4-0.4l-0.2-0.1h-0.4v-0.6l0.4-0.4h0.5l0.4-0.2l0.6-0.3
		l0.2-0.5v-0.4l-0.2-0.3l-0.5-0.3l-0.6-0.2l-0.4-0.1l0.5-1h0.1l0.2-0.1l0.1-0.1v-0.1v-0.3l-0.2-0.4h0.6l1,0.1l0.1-0.4l-0.3-0.5
		l-0.3-0.6h-0.4l-0.3-1.3l-0.4-0.4l-0.7-0.5l-0.8-0.2l0.3-0.6l0.3-0.4l0.4,0.6l0.5,0.1h1.7l3.1-0.7l0.5-0.2l3.1-0.9h0.6l0.3,0.1h0.4
		l0.4-0.1l1.9-1l1.1-0.1l0.3,1.5l0.1,1.2l0.2,0.4l0.6,0.7l0.4,0.7v0.4l-0.2,0.2h-1l-0.3,0.1l-0.2,0.2l-0.2,0.3l-0.4,0.8l-0.7,0.8
		l-0.3,0.5l-0.6,0.9L354,417l0.1,0.4l0.2,0.3l0.3,0.2l0.1,0.2l0.2,0.4l0.1,0.5l0.5,0.6l0.2,0.7l-0.1,0.5l-0.2,0.6l-0.1,0.8l0.1,0.5
		l0.2,0.3l0.2,0.2h0.2l0.2-0.1l0.4-0.4l0.4-0.2l0.3-0.1h0.4l1,0.3h0.3l0.3-0.1l0.3-0.1l0.4-0.1l0.4,0.1l0.4,0.1l0.8,1v0.4v0.2
		l0.1,0.4l0.3,0.5l1,1.2l0.4,0.4l0.2,0.4l0.2,0.3l0.3,0.3l0.4,0.2L365.4,428z"/>
	<path class="st1" d="M323.1,397l-0.7-0.2l-0.7-0.1l-0.7-0.3h-0.3l0.2,0.5l0.3,0.1l1.3,0.3l-0.2,0.1l-0.5,0.1l-0.2,0.1l-0.5,0.7
		l-0.1,0.1l-0.2,0.1l-0.4,0.3l-0.5,0.1l-0.2,0.1l-0.4,0.3l0.2,0.1h0.2h0.2l0.2-0.1l-0.3,0.7l-0.7,0.5l-0.9,0.3l-0.7,0.1l-0.4-0.1
		l-0.6-0.6l-0.5-0.1h-0.9l-0.4,0.1l-0.6,0.4l-0.4,0.2l-0.3,0.3l0.1,0.5l0.3,0.2l0.4-0.3l0.7-0.7l0.4-0.2l0.5-0.1l0.4,0.1l0.3,0.4
		v0.5l-0.3,0.3l-0.4,0.3l-0.3,0.3l0.1,0.1v0.1l0.1,0.3l-0.7-0.3l-0.4,0.7l-0.3,1l-0.4,0.7l-1.9-0.4h-0.9l0.1,0.7l-0.8-0.2l-0.3-0.6
		l-0.3-0.7l-0.6-0.5l-0.2,0.1l-0.2-0.1l-0.1-0.3l-0.1-0.3l-0.2,0.2l-0.4-0.2l-0.4,0.2l-0.4,0.3l-0.7,0.3l-1.1,0.6l-0.3,0.2l-0.1,0.2
		l-0.2,0.2l-0.2,0.1l-0.5,0.1l-0.2,0.1l-0.1,0.1l-0.2,0.1l-1.6,0.6l1-1.2l0.3-0.6l-0.5-0.3l-0.3,0.1l-0.5,0.4l-0.3,0.1h-0.3l0,0
		l0.1-0.5l0.1-0.6l-0.1-0.3l-0.1-0.4l-0.3-0.7l-0.6-0.8l-0.2-0.4l-0.1-0.5v-1.2l-0.5-1.2l-0.2-0.6v-0.6v-0.6v-0.5V395l-0.1-0.4
		l-1-1.6l-0.2-0.4l-0.1-0.6l-0.1-1v-0.8l0.1-1l-0.1-0.9l-1-1.6l0.4-0.5l0.2-0.2l0.4-0.1l1.3-0.6l0.4-0.3l0.1-0.3v-0.3v-0.3v-0.3
		l0.1-0.3l0.2-0.2l1.3-0.1l1.2-0.5l0.1-0.1l0.1-0.1v-0.2V382v-0.4l0.1-0.3l0.3-0.2l0.3-0.2l0.2-0.2l0.1-0.3l0.3-1l0.3-0.8l0.2-0.3
		l0.3-0.2h0.4l3.2,0.8l0.5,0.2l0.4,0.3l0.4,0.3l0.7,0.9l0.3,0.1l0.3-0.1l0.2-0.3l0.1-0.3l0.2-0.3l0.3-0.2l0.8-0.4l0.2-0.2l0.2-0.3
		l0.3-0.3l0.5-0.2h0.5l0.4,0.1l0.3,0.3v0.2v0.1L315,379v0.1v0.1l0.1,0.1l1.9,0.3l0.8,0.6l0.5,0.6l0.2,0.5l0.1,0.4l0.2,0.4l0.1,0.3
		l0.1,0.4l0.1,0.4l0.3,0.2l0.4-0.1l1.5-0.6l0.5-0.1h0.4l0.3,0.1h0.3l0.4-0.2l0.6-0.4l1.2-0.7v0.4l-0.2,0.9l0.1,0.5l0.1,0.6l-0.1,0.3
		l-0.2,0.3l-0.3,0.3l-0.3,0.4l-1.2,2.1l-1.2,1.2v0.1l0,0v0.2v0.4v0.4l-0.1,0.9l0.1,1.2v0.7l-0.2,0.7v0.5l0.1,0.4l0.7,0.7l0.4,0.7
		l0.1,0.2l0.1,0.3l0.1,0.5v0.4L323.1,397L323.1,397z"/>
	<path class="st1" d="M301.5,404.2h-0.3l-0.3,0.2l-0.1,0.5l0.2,0.2l-0.2,0.6L299,408l-0.4,0.3l-0.8,0.4l-0.3,0.1h-0.3l-0.1-0.3
		l0.1-0.2l0.3-0.1l0.3-0.1l0.2-0.1l0.2-0.5l-0.3-0.4l-0.5-0.2h-0.6v-0.2l0.5-0.4l-0.3-0.6l-0.5-0.2l-0.4,1.5l-0.4,0.4l-0.5,0.3
		l-0.3,0.4l0.5,0.4l0.2,0.6l-0.1,0.6L295,410l-0.2-0.1l-0.3-0.3l-0.1-0.1l-0.1,0.1l-0.3,0.3l-0.5,0.2l-0.6,0.6l-0.2,0.1l-0.4-0.2
		l-0.1-0.5v-1.2h0.1l0.3-0.3l0.4-0.6l0.3-0.2l0.1,0.3v0.5l-0.1,0.4l0.5-0.1l0.4-1l0.5-0.1v-0.2l-0.4-0.3l-0.5-0.3l-0.3-0.1h-0.2
		h-0.2l-0.3-0.2l-0.4,0.2l0.2,0.9l-0.7,0.6l-1,0.3l-2.7,0.3l-0.7,0.3l-0.8,0.5l-0.4-0.7l-0.5,0.2l-0.5,0.6l-0.5,0.3l-0.4,0.1v0.2
		l0.2,0.3l0.1,0.3l-0.2,0.2l-0.4,0.1h-0.8l-0.6,0.2l-1.2,0.8h-0.7l-0.1-0.1l-0.1-0.2l-0.1-0.2l-0.1-0.1l-0.2,0.1l-0.1,0.1l-0.1,0.1
		l-0.1,0.1l-0.7,0.4h-0.3l-0.2-0.4l0.4-0.4l-0.2-0.4l-0.4-0.4l-0.3-0.8l-0.3-0.4l-0.1-0.1v-0.4l0.1-0.2v-0.2l-0.1-0.4h0.2l0.3-0.1
		h0.2l-0.1-0.3l-0.2-0.2l-0.5-0.3l-0.4,0.2l-0.5,0.2h-0.5l-0.9-0.5l-0.6,0.1l-0.9,0.5l-0.8,0.7l-2.3,2.7l0.2,0.4l0.2,0.6l0.1,0.4
		l-0.2-0.1l-0.8-0.3l-0.7-0.4l-0.3-0.1l-0.4-0.3l-0.4-0.6l-1.4-3.4l-0.2-2.3l-0.3-0.7l-0.1-0.5l-0.1-0.3l-0.1-0.4l0.2-0.4l0.4-0.5
		l0.8-0.8l0.4-0.7l0.2-0.5l0.1-0.5l0.1-0.4l0.2-0.4l0.4-0.6l0.1-0.3V398l-0.2-0.4v-0.4l0.2-0.4l1.4-1l0.5-0.5l0.3-0.4l0.2-0.2h0.3
		l0.2,0.2l0.2,0.2h0.3l0.5-0.3l1.1-0.3l0.4,0.1l0.3,0.1h0.3l0.3-0.1l0.3-0.3l0.2-0.2h0.4l0.4,0.1l0.4,0.1l1,0.1l0.3-0.1l0.6-0.2
		l1-0.6l2-0.6l0.3-0.2l0.1-0.4l-0.2-0.3l-0.3-0.2l-0.3-0.2l-0.2-0.1v-0.1l0.1-0.2l0.2-0.3l0.5-0.6l0.3-0.3l0.3-0.2l0.5-0.2l0.4-0.2
		l0.4-0.4l1.5-2l0.5-0.8l0.3-0.3l0.4-0.2l0.5-0.1l1.6,0.3h0.4l0.7-0.3h0.3l0.7,0.4l0.4,0.1h0.4l1.1-0.2l0.8,0.1l1,0.2h1.6l0.9,0.3
		l1,1.6l0.1,0.9l-0.1,1v0.8l0.1,1l0.1,0.6l0.2,0.4l1,1.6l0.1,0.4v0.4v0.5v0.6v0.6l0.2,0.6l0.5,1.2v1.2l0.1,0.5l0.2,0.4l0.6,0.8
		l0.3,0.7l0.1,0.4l0.1,0.3l-0.1,0.6L301.5,404.2L301.5,404.2z M279.3,416.3l-0.6-0.3h-1.4l-0.6-0.2l0.5-0.5l0.6-0.4l0.3-0.4
		l-0.3-0.8l0.2-0.3l0.3-0.2l0.3-0.1h0.3l0.2,0.2l-0.1,0.1v0.1l-0.1,0.1h-0.2l0.2,0.4l0.1,0.4v0.4l0.1,0.4l0.7-0.3l0.1,0.6l-0.3,0.7
		L279.3,416.3z M283.8,412.5l0.4,0.2l0.2,0.4l-0.1,0.3l-0.2,0.1l-0.2,0.1l-0.1-0.1v-0.2l-0.1-0.1h-0.2l-0.6-0.3l-0.2-0.3l0.2-0.3
		l0.3-0.1l0.5,0.1L283.8,412.5z M288.4,410.1l0.2-0.2l0.1,0.3l-0.1,0.7l-0.2,0.6l-0.1,0.3l-0.3,0.3l-0.6,0.1h-0.5l-0.3-0.2l-0.2-0.4
		l0.1-0.4l0.2-0.1h0.1l0.7-0.3h0.3l0.3-0.2L288.4,410.1z M273.8,409.3l0.1,0.3v0.3v0.1l-0.5,0.5l-0.7,0.7l-0.4,0.1l-0.3-0.2v-0.3
		l0.5-0.8l0.3-0.4l0.4-0.2l0.4-0.2L273.8,409.3z"/>
	<path class="st1" d="M563.4,89.6l0.4,0.2h1.1l0.5,0.1l-0.9,0.3l-1.1-0.2l-2.1-0.8l0.1-0.3h0.5l0.6,0.1l0.6,0.2L563.4,89.6z
		 M610.3,116.4h0.3l0.8,0.3l0.3,0.2l-0.2,0.3l-0.2,0.1h-0.6l-0.3,0.1l-0.4,0.7l-0.3,0.1l-1,0.2l-0.2,0.1l-0.4,0.4l-0.3,0.1l-0.7-0.1
		l-0.4,0.1l-0.2,0.2l-0.1,0.3l-0.2,0.4l-0.7,0.7l-0.2,0.3l-0.2,0.4l-0.2,0.8l-0.1,0.4l-0.2,0.3l-0.7,0.9l0.3,0.2l-0.3,0.1h-0.5
		l-0.5-0.1l-0.6-0.4l-0.4,0.1l-0.8,0.2l-2.5,0.1l-0.6,0.3l-0.6,0.5l-0.7,0.3l-1.9,0.3l-0.4,0.1l-0.3,0.3l-0.2,0.5l0.1,0.6l0.3,0.1
		h0.4l0.4,0.2l-0.2,0.3l-0.2,0.1l-1,0.1l-0.1,0.1v0.2l-0.2,0.3l-0.6,0.4h-0.6l-1.2-0.4l0.5,0.8l0.1,0.4l-0.1,0.4l-0.2,0.2l-0.4,0.1
		l-1.7,0.3h-0.9l-0.8-0.3l-0.7-0.6v-0.3l0.1-0.4l-0.1-0.4l-0.5-0.2H586h-0.2h-0.1l-0.2,0.1l-0.2,0.2l-0.3,0.4l-0.2,0.1l-0.2,0.2
		l-0.3,0.4l-0.2,0.5l-0.1,0.4l0.1,0.5l0.3,0.4l0.4,0.3l0.3,0.3l-1,0.4l-3.6-0.9l-1.9,0.2l-0.6,0.4l-0.8-0.1l-1.9-0.7l-0.2-0.2
		l-0.2-0.3l-0.1-0.3l-0.1-0.4l-0.2-0.3l-0.3-0.1h-0.6l-3.5,0.9l-3.5,1.7l-3.9,2.8l-2.4,3l-3.8,3.3l-1.6,2l-3.2,5l-2.5,4.6l-0.4,1.4
		l-0.2,1.6l0.3,1.9v0.8v0.7l-0.1,0.8l-0.7,2.7l-0.3,0.7l-0.7,0.6l-0.3,1.5l-0.3,0.5l-0.4-0.1l-0.6-0.5l-0.5-0.5l-0.2-0.4l0.2-0.7
		l-0.6-0.7l-0.6-0.6l-3.9-2.6l-5.1-1.8l-5.3-3.1l-2.2-0.7l-4.5-3.2l-1.5-1.5l-1.4-1.6l-2.6-0.4l-2-1.3l-1.4-1.6l-0.4-0.2l-0.5-0.1
		l-1.8-1l-2.3-0.6h-2.2l-2.2,0.5l-3.1,1.3l-4.1,3.3l-0.7,0.3l-0.5,0.5l-0.3,0.1h-0.3l-0.3,0.1l-0.3,0.1l-1.9,1.4l-0.5,0.5l-1.4,2.1
		l-0.4,0.4l-0.3,0.1l-0.3,0.1h-0.3l-0.3-0.1l-0.2-0.2l-0.2-0.3l-0.1-0.3l0.1-0.1l1,0.2l0.2-0.1l0.1-0.4l-0.3-0.2l-0.7-0.2l-0.5-0.4
		l-0.2-0.2l-0.1-0.3l-0.3-1.4l-4.2-4.9l-1.2-0.5h-0.6l-1.6,0.3l-1.8-0.3h-0.6l-1.1,0.5l-1,0.9l-0.9,1.1l-1.4,2.5l-0.5,1.4l-0.4,1.5
		l-0.2,1.5l0.3,1.5l0.7,0.9l2.6,1.4l0.8,0.6l1.9,2.1l0.5,0.2l0.6-0.1l1-0.3l1.6-0.1l0.5-0.1l0.5-0.2l1.5,1.1l0.4,0.9l1.2,1.7
		l0.4,0.4l1,0.7l0.4,0.4l1.6,2.2l0.4,0.4l0.5,0.3l0.6,0.2l0.6,0.1l0.6,0.2l0.6,0.4l1.9,1.8l0.4,0.6l-0.3,0.3l-1.2,0.2l-0.6,0.2
		l-0.4,0.3l-1.5,1.6l-0.9,0.4l-1.2-0.3l-2.1-1.2l-1.3-0.4h-1.2l-1.1,0.7l-0.6,0.1l-0.2-0.5l0.2-0.5l0.4-0.3l0.3-0.3L484,170
		l-0.5-0.4l-0.6-0.2l-0.6,0.1l-0.5,0.4l-0.3,0.6l-0.4,1.4l-0.3,0.6l-1.5,0.8l-0.2,0.2l-0.3,0.2l-1.3,0.4l-0.4,0.2l-0.5,1.2l0.2,2.7
		l-0.3,1.1l-0.8,0.6l-3.2,1l-0.4,0.3l-0.5,0.5l-0.4,0.6L471,183l-0.3,0.5l-0.6-0.1l-1.2-0.6h-0.3l-0.4,0.2H468l-0.3-0.1l-0.6-0.5
		l-0.3-0.1l-0.3-0.3l-0.3-0.6l-0.4-1.4l-0.8-1.9l-0.1-0.7l0.1-0.7l0.5-1.1l0.4-2.1l1.3-2.1l0.3-1.4l0.1-0.1l0.6,0.1h0.2l0.2-0.3
		l0.1-0.3v-0.7v-0.2l-0.2-0.3V168l0.1-0.2l0.2-0.1l0.3-0.1l0.1-0.4v-0.5l0.1-0.2l-0.2-0.5l-0.1-0.6v-0.6l0.2-0.5l-0.8-1l-1.3-2.3
		l-0.8-0.9L464,159l-0.5-0.6v-0.1l-0.1-0.2l-0.5-1l-0.2-0.2l-0.8-0.3l-1.1-0.9l-0.3-0.4l-0.2-0.8l-0.3-1.3l0.1-0.7l0.3-0.7l1-1.7
		l0.3-0.7l0.3-1.5v-1.5l-0.4-2.5l0.3-1.3l0.8-1.2l1-0.5l2.4-0.1l0.6-0.2l0.4-0.3l1-1.4l0.2-0.2l0.3-0.1h0.3l0.2-0.1l0.2-0.3l0.6-1.3
		l0.3-0.5l0.4-0.1l0.6,0.4l0.6,1l0.4,0.4l0.5,0.1l0.5-0.4l0.2-0.8v-0.8l0.2-0.3l0.5-0.3l0.4-0.6l0.6-1.4l0.4-0.5l1.7-1.7l1.1-0.7
		l0.5-0.6l0.1-0.7l-0.3-0.5l-0.4-0.5l-0.2-0.8l-0.2-0.5l-1.2-1.8l-0.8-0.9l-1-0.8l-0.7-0.9l-0.2-1.4l0.8-2.6h1.2l0.6-0.1l0.5-0.4
		l0.1-0.3l0.1-0.4l0.1-0.3l0.2-0.2h0.3l0.3,0.2l0.3,0.3l0.2,0.1l0.4,0.2l2.1,1.6l0.4,0.4l0.8,1l0.5,0.4l1.8,0.9l0.2,0.3l0.4,0.5
		l0.2,0.2l0.3,0.1l2.6-0.4l1.9-0.8l0.6-0.1l0.3,0.2l-0.3,0.5l-0.2,0.6l0.4,0.6l0.3,0.1l0.9,0.1l1,0.4l0.6,0.1l0.5,0.3l0.3,0.1h0.5
		l0.3-0.1l0.7-0.4l1.9-1.5l1.7-1.8l0.7-1l0.6-1.3l0.4-1.5v-1.6l-0.3-0.9l-1.4-2.2l-0.3-0.9l0.1-0.7l0.3-0.6l0.4-0.6l-0.5-1.4
		l-0.2-0.3l0.1-0.7l-0.6-1.5l-0.2-0.8l0.2-0.6l0.4-0.8l0.7-1.2l0.4-0.4l0.6-0.4l0.6-0.3l1.1-0.2l0.5-0.2l0.5-0.3l1.4-1.2l0.8-1
		l0.6-1.2l0.5-1.6l0.2-1.4l0.1-1.4l-0.4-7.3l0.3-1.3l2-3.9l1.1-6.1l0.1-1.6l-0.3-4.4l-0.7-4.2l-0.8-2.5l-3.4-7.4l-0.3-1.5l0.2-1.6
		l0.1-0.2l0.5-0.6L506,50l0.1-0.4l0.1-0.3l0.1-0.3l0.5-0.9v-0.6l-0.3-1.1v-0.6l0.1-0.6l0.2-0.6l0.4-0.5l0.3,0.2l0.2,0.3l0.1,0.4v0.5
		l0.1,0.4h0.3l0.6-0.2l1.2-0.1l1.2-0.3l0.9-0.6l0.3-0.1l0.2-0.2V44v-0.5v-0.4l0.4-0.6l0.6-0.5l0.6-0.2l0.4,0.4l0.4,1.1l0.3,0.4
		l0.4,0.2l0.4,0.3l1,1.9l1,1.1l2.2,1.7l1,0.9l8,10l1.9,4.1l0.4,0.7l0.9,0.6l1.2,2.1l4.8,5.6l0.8,0.4l1,1.7l1.5,1.1l1.9,2l2.2,1.7
		l0.5,0.2l0.4,0.2l0.9,1.1l0.5,0.4l1.1,0.3l0.3,0.2l0.4,1v0.2l0.7,0.8l0.2,0.2l3.7,2.3l5.6,2.2v0.2l-2-0.3l-0.4,0.3l0.1,0.2l0.6,0.6
		l0.1,0.2l0.3,1.3l0.3-0.2l0.1-0.1l0.4,0.4l0.3,0.2l0.3,0.1l3.7,0.1l0.2,0.1l0.7-0.8l0.4-0.3l0.4-0.1l3,0.2l0.8,0.4l0.5,0.4v0.1
		l-0.3,0.1l-0.5,0.3l-0.3,0.4l-0.5,1.7l0.8,0.4h0.4l0.4-0.2l0.3-0.3l0.3-0.5l0.2-0.6l0.1-0.5l0.3-1l0.7-0.3l0.5,0.4l-0.2,1l0.3,1
		l0.3,0.4l0.4,0.2l0.2,0.3l0.4,1.1l0.2,0.3l0.2,0.1l1.1,0.8l0.4,0.2l0.9,0.3l3.5,0.6l4.3,0.4l1.2-0.2l1.1-0.7l2.9-3.2l2.2-2.7
		l0.3-0.4l1.8-1.1l1.2-1.3l0.5-0.2l0.4-0.4l1.2-2.3l1-0.9l0.5-0.6l0.2-0.7l0.1-0.2l0.2-0.2h0.2l0.2,0.7l0.4,0.8l0.1,0.4v1.5
		l-0.6,1.3l-1.5,2l-0.3,0.7l-0.2,1.7l-0.2,0.5l-2.3,2.9l-0.6,1.1l-0.6,1.2l-0.4,1.3l0.2,0.6l-0.2,0.7l-0.3,0.7l-0.2,0.8l-0.4,0.5
		l-0.1,0.4v0.5l0.1,0.3l1,2.3l0.4,0.5l1.6,1.8l0.3,0.5l0.3,0.6l0.2,0.7l0.1,0.8l0.1,0.3l0.4,0.3l0.1,0.6l0.3,0.9l0.7,2.9l0.5,1.3
		l0.9,1.2l1.2,0.9l-0.8,0.1l-1.6-1.4l-0.7-0.2l-0.2,0.3l-0.1,0.4l0.2,0.4l0.4,0.2l0.4,0.1l0.4,0.2l0.1,0.2l-0.4,0.1l0.4,0.5l0.7,0.4
		l0.8,0.2l2.1,0.2l0.6,0.3l0.6,0.5l0.1-0.4l-0.2-0.3l-0.3-0.3l-0.1-0.5l0.2-0.2l0.9-0.8l1-1.2l0.3-0.2l0.7-0.2l0.3-0.2l0.2-0.2
		l0.1-0.2l0.1-0.2l0.3-0.2l0.4-0.1l1.2,0.1l0.2-0.1l0.3-0.3l0.1-0.1h0.2l0.1,0.1L610.3,116.4L610.3,116.4z M454.5,155.5l0.4,0.4
		l-0.3,0.7l-0.8,1.3l-0.2,0.9v0.8l-0.1,0.8l-0.4,0.7l-1,0.9l-0.2-0.1l-0.3-0.3l-0.1-0.4l0.1-0.4l-0.1-0.3l-0.1-0.3v-0.7l-0.1-0.3
		l-0.2-0.4l-0.1-0.3l0.1-0.6l0.2-0.6l0.3-0.5l0.4-0.3h0.3l0.5-0.2h0.3l0.3-0.1l0.7-0.5L454.5,155.5z M598.9,109.3l0.8,0.6l0.4,0.4
		l0.1,0.3l-0.3,0.2l-1,0.3l-0.2,0.3l-0.2,0.4l-0.3,0.2l-0.3-0.2l0.1-0.5l0.3-0.3l0.8-0.4l0.3-0.3l-3.2-1.7l2.1,0.4L598.9,109.3z
		 M577.2,97.2h0.2H577.2L577.2,97.2z M499,53.9l0.2,0.5l-0.2,0.4l-0.3,0.3l-0.2,0.5l-0.1,0.2l-0.9,0.7l-0.4,0.1l-0.4-0.1l-1.3-0.9
		l-0.8-0.7l-0.5-0.8l0.4-0.7l-0.1-0.2l-0.1-0.4l-0.1-0.1l0.9-1.1l0.3-0.2l0.6-0.2l0.8,0.3l0.8,0.6l0.6,0.7L499,53.9z M492.2,44
		l0.4,0.3l0.1,0.6l-0.4,3.7l-0.2,1l-0.3,1l-0.2-0.5v-0.2l0.1-0.3l-0.6-1.3l-0.3-0.8l-0.1-0.7l0.2-1.7l-0.1-0.4l-0.7-1.2l0.2-0.2h0.2
		l0.1,0.1l0.1,0.1l0.1,0.2l0.3,0.7h0.3l0.4-0.2L492.2,44z M450.1,179.7l0.1,0.1l0.1,0.2l-0.2,0.3l-0.7,0.4l-0.1-0.1l-0.1-0.5v-0.2
		l0.1-0.2h0.2l0.2,0.1L450.1,179.7L450.1,179.7z"/>
	<path class="st1" d="M432.7,334.6l1.1-0.6l0.5,0.1l0.6-0.1l0.6-0.2l0.4-0.3l0.2-0.3l0.2-0.8l0.4-0.2l1.3-0.5l0.3-0.3l0.2-0.2
		l0.1-0.8l0.1-0.3l0.2-0.2l0.8-0.3l0.2-0.2V329l-0.1-0.4v-0.9l0.1-0.3l0.2-0.1l1.5-0.5l0.5-0.4l0.1-0.1l0.2-0.3l0.2-0.6l0.2-0.3
		l0.3-0.1l0.3,0.1l0.2,0.2l0.1,0.1l0.2,0.3l0.1,0.2l0.2,0.1l0.1,0.1l0,0l0.2,0.2l0.1,0.2l0.3,0.9l0.3,0.2l0.3,0.1h0.3l0.3,0.2
		l0.1,0.5l0.2,0.1l0.5,0.2h0.6l2.2,0.5l-0.5,0.9l-0.1,0.4l0.1,0.4l0.3,0.4l0.3,0.2l0.2,0.2v0.3l-0.1,0.2l-0.2,0.2l-0.2,0.3l-0.2,0.3
		l-0.2,0.4l-0.1,0.4v1.2l-0.1,0.5l-0.3,0.9l-0.1,0.5v0.4l0.2,0.4l0.7,0.5l0.3,0.2l0.2,0.1l1.5,0.2l0.3,0.2l0.3,0.3v0.4l-0.1,0.3
		l-0.1,0.3l-0.3,0.2l-0.2,0.3l-0.1,0.2l-0.1,0.2l-0.2,0.3l-0.2,0.3l-0.1,0.3l-0.1,0.4l-0.2,0.5l-0.1,0.5l-0.4,0.7l-0.2,0.2l-0.3,0.4
		l-0.1,0.2l-0.1,0.2v0.3v0.3l0.1,0.3l0.3,0.3l0.7,0.8l0.2,0.4l0.2,0.3l0.6,0.7l0.4,0.3h0.4l0.3-0.1l0.4-0.1h0.5l2.2,0.4l0.4,0.2
		l0.8,0.8l0.4,0.7l0.5,1.6l-1.6-0.8l-1.2-0.4l-1.2-0.1l-1,0.5l-0.7-0.6l-0.8-0.5l-0.8-0.3l-1.9-0.2l-1.8-0.4l-0.8-0.4l-0.1-0.1h-0.4
		l-1-0.4h-0.7l-0.1,0.1l-0.5,0.6l-1,1.6l-0.1,0.3l-0.1,0.3v0.4v0.5l-0.2,0.3l-0.4,0.3l-1.5,0.6l-2.5,1.2l-1.9,1.2l-0.5,0.1l-0.3,0.2
		l-0.2,0.2l-0.1,0.2L434,357l0,0l0,0l-0.4,0.6l-0.4,0.4l-1.8-1.5l-0.3-0.4L431,356l0.1-0.3v-0.3l-0.1-0.7v-0.6v-0.4l-0.3-0.3
		l-0.3-0.2l-0.4-0.3l-0.1-0.3l-0.1-0.4l0.2-0.1h0.4l0.2-0.2l0.1-0.3V351l-0.2-0.7l-0.2-0.9v-0.5l0.1-0.3l0.5-0.3l0.3-0.3l0.2-0.3
		l0.1-0.4l-0.1-0.3v-0.2l-0.1-1.4l-0.2-0.5l-0.3-0.4l-0.4-0.2H430h-0.4l-0.3,0.1l-0.7,0.3l-0.4,0.1h-0.4l-0.4,0.2h-0.3l-0.3-0.1
		l-0.7-0.6l-0.5-0.5l-0.2-0.4l-0.1-0.6l0.1-0.5l0.1-0.6l0.4-1.3l0.1-0.8l0.2-0.3l0.2-0.3l0.1-0.3l0.1-0.3l0.1-0.3l0.1-0.2l0.3-0.2
		l0.9-0.2l0.2-0.2l0.1-0.3l-0.1-0.5l0.1-0.3l0.2-0.2l0.3-0.1l0.6-0.2l0.9-0.1l0.6-0.2l0.3-0.2l0.4-0.2l0.8-0.2L432.7,334.6z"/>
	<path class="st1" d="M432.7,334.6l-0.5,0.2l-0.8,0.2l-0.4,0.2l-0.3,0.2l-0.6,0.2l-0.9,0.1l-0.6,0.2l-0.3,0.1l-0.2,0.2l-0.1,0.3
		l0.1,0.5l-0.1,0.3l-0.2,0.2l-0.9,0.2l-0.3,0.2l-0.1,0.2l-0.1,0.3l-0.1,0.3l-0.1,0.3l-0.2,0.3l-0.2,0.3l-0.1,0.8l-0.4,1.3l-0.1,0.6
		l-0.1,0.5l0.1,0.6l0.2,0.4l0.5,0.5l0.7,0.6l0.3,0.1h0.3l0.4-0.2h0.4l0.4-0.1l0.7-0.3l0.3-0.1h0.4h0.4l0.4,0.2l0.3,0.4l0.2,0.5
		l0.1,1.4v0.2l0.1,0.3l-0.1,0.4L431,348l-0.3,0.3l-0.5,0.3l-0.1,0.3v0.5l0.2,0.9l0.2,0.7v0.6l-0.1,0.3l-0.2,0.2h-0.4l-0.2,0.1
		l0.1,0.4l0.1,0.3l0.4,0.3l0.3,0.2l0.3,0.3v0.4v0.6l0.1,0.7v0.3l0.1,0.3l0.1,0.3l0.3,0.4l1.8,1.5v0.6l0.4,1.7l-1.3,1.1l-0.4,0.2
		h-0.3h-0.3l-0.3-0.1l-0.2-0.3l-0.1-0.3l-0.1-0.3l-0.2-0.2l-0.3-0.1h-0.4l-0.6-0.1h-0.3l-1.3,0.4l-0.3-0.1l-0.2-0.2l-0.1-0.3v-0.3
		v-0.2l-0.1-0.2l-0.2-0.2l-0.7-0.4l-0.7-0.2h-0.3l-0.3,0.2l-0.3,0.4l-1.3,2.4l-0.2,0.2l-0.2,0.2h-0.3l-0.5-0.3h-0.2l-0.2,0.2l-0.9,2
		v0.3l0.2,0.4l0.3,0.3l0.1,0.3l-0.1,0.3l-0.6,0.7l-0.1,0.4l0.1,0.7l0.2,0.8l0.4,0.6l-0.2,0.6l-0.1,0.6l-0.1,0.3l-0.2,0.2l-0.4,0.1
		l-0.3,0.2l-0.2,0.4l0.1,0.4v0.4v0.4L419,373l0.1,0.4l0.1,0.3v0.3l-0.2,0.4l-0.4,0.4l-0.1,0.3v0.3l0.2,0.3l0.1,0.3l0.1,0.3l-0.1,0.4
		l-0.3,0.4l-0.7,0.6l-0.4,0.2l-0.7,0.2l-0.3,0.2l-0.3,0.3l-0.2,0.3l-0.2,0.2l-0.3,0.1l-0.6,0.1l-0.5,0.3l-1.1,0.9l-0.5,0.2l-0.9,0.9
		l-0.8,0.3l-1.4-0.1l-1.7-0.4h-0.5l-0.5,0.1l-0.3,0.2l-0.3,0.2l-0.7,0.1h-0.3l-0.2-0.2l-0.2-0.3l-0.4-1.1l0.2-1l0.4-1l0.2-0.4
		l0.1-0.5l-0.1-0.5l-0.3-0.8l0.1-0.2l0.2-0.1h0.5l0.2-0.1v-0.3l-0.3-0.9l-0.1-0.4l0.1-0.5v-0.5l-0.2-0.8l-0.6-0.7l-0.5-0.3l-0.1-0.1
		l-0.1-0.1l-0.1-0.2l-0.5-1.6v-1V368l-0.2-0.4l-0.6-0.7l-0.2-0.4l-0.7-1.6l-0.2-0.3l-0.3-0.2l-0.7-0.2l-0.3-0.2l-0.2-0.3l-0.2-0.2
		l-0.3-0.1L399,364l-0.2-0.2l-0.1-0.4l0.4-0.7l0.9-1.4l0.4-0.4l0.5-0.2h0.4l0.5,0.1l0.3-0.2l0.3-0.3l0.3-0.5l0.9-1.1l1-1.5l0.5-0.9
		l0.1-0.4v-0.4L405,355l-0.4-0.4l-0.3-0.5l-0.1-0.6l0.2-0.6l0.4-0.8l0.1-0.3l-0.1-0.4v-0.3v-0.4l0.2-0.5l0.6-0.8l0.2-0.3l0.1-0.3
		l0.3-0.9v-0.5l-0.2-0.5l-0.3-0.5l-1.1-0.9l0.4-0.6l0.8-0.6l0.3-0.3l0.2-0.3l0.4-1.1l0.3-0.7l0.4-0.5l0.1-0.4v-0.3l-0.1-0.3l0.1-0.3
		l0.3-0.3l0.4-0.4l0.4-0.6l0.1-0.5l0.1-0.5v-0.7l0.1-0.7v-3.3l1.1-0.4l0.3-0.2l0.3-0.3l0.9-1.4l0.2-0.4l0.1-0.4v-0.6v-0.3l0.1-0.3
		l0.2-0.2l0.2-0.1l0.2-0.1h0.2h0.4l0.3,0.1l0.4,0.2l0.3,0.1h0.4l0.4,0.1l0.4,0.2l0.2,0.2l0.2,0.2l0.1,0.3v0.3l-0.1,0.8v0.2l0.1,0.2
		l0.8,0.6l0.3-0.1l0.4-0.5l0.3-0.2l0.4-0.1l1.1-0.1l0.5-0.1l0.4-0.1l0.7-0.4l0.2-0.1h0.2l0.3,0.1l0.4,0.2l0.3-0.1l0.2-0.2l0.1-0.8
		l0.1-0.4l0.2-0.4l0.3-0.2l0.7-0.3l0.7-1.3l0.3-0.4l0.4-0.3l1.1-0.5l1.4-0.4h0.5l0.5,0.1l0.4,0.1l0.4,0.2h0.1l0.1,0.4l0.4,2.1
		l0.2,0.5l0.6,0.7l1.1,0.9l0.2,0.3l0.2,0.4l0.1,0.4l-0.1,1.9L432.7,334.6z"/>
	<path class="st1" d="M457.1,351l-0.4-0.7l-0.8-0.8l-0.4-0.2l-2.2-0.4h-0.5l-0.4,0.1l-0.3,0.1h-0.4l-0.4-0.3l-0.6-0.7l-0.2-0.3
		l-0.2-0.4l-0.7-0.8l-0.3-0.3l-0.1-0.3v-0.3v-0.3l0.1-0.2l0.1-0.2l0.3-0.4l0.2-0.2l0.4-0.7l0.1-0.5l0.2-0.5l0.1-0.4l0.1-0.3l0.2-0.3
		l0.2-0.3l0.1-0.2l0.1-0.2l0.2-0.3l0.3-0.2l0.1-0.3l0.1-0.3v-0.4l-0.3-0.3l-0.3-0.2l-1.5-0.2l-0.2-0.1l-0.3-0.2l-0.7-0.5l-0.2-0.4
		v-0.4l0.1-0.5l0.3-0.9l0.1-0.5v-1.2l0.1-0.4l0.2-0.4l0.2-0.3l0.2-0.3l0.2-0.2l0.1-0.2V332l-0.2-0.2l-0.3-0.2l-0.3-0.4l-0.1-0.4
		l0.1-0.4l0.5-0.9l1.2-0.7l1-1l0.4-0.2l1.2-0.4l4.2-2.5l1.7-0.7l0.4-0.1h0.7l0.8-0.8l1-0.8l0.6-0.3l0.8-0.1l1,0.1l3.5,1.1l0.4,0.2
		l1.3,1l0.3,0.2l0.2,0.2l0.1,0.3l0.1,0.4l0.1,0.3l0.2,0.3l0.5,0.2l0.1,0.1l0,0l0,0l0.1,0.3l0.2,1.5l-0.1,0.6l0.1,0.9l0.1,0.6v0.5
		v0.6l0.1,1v1.5l0.1,0.5l0.3,0.8l-0.2,0.3l-0.4,0.3l-0.4,0.3l-0.2,0.4v0.5l0.2,1.2l0.2,2.6l-0.1,0.8l-0.1,0.5l-0.5,0.7l-0.3,0.5
		l-0.5,1.4l-0.3,0.4l-0.3,0.3h-0.3l-0.7-0.2l-0.7,0.1l-0.8,0.3l-0.4,0.3l-0.6,0.3h-0.3h-0.2l-0.5-0.1l-0.3,0.1l-0.3,0.1l-1.2,1.1
		l-0.3,0.5l-0.3,0.1h-0.2h-0.4l-0.5,0.2l-0.6,0.6l-0.3,0.4l-0.4,0.8l-0.2,0.2l-0.9,0.5l-1.1,0.4l-0.7,0.1h-0.2L457.1,351z"/>
	<path class="st1" d="M384.9,348.3l0.6,0.1h0.2l0.2-0.2l0.1-0.3l0.1-0.4l0.1-0.4l0.2-0.3l0.3-0.2l0.8,0.2h0.4l0.6,0.1l0.3,0.2
		l0.2,0.2l0.1,0.2v0.3l-0.1,0.6l0.1,0.2l0.3,0.1l0.5-0.3l0.5-0.6l0.2-0.1l0.3-0.2l0.2-0.2l0.2-0.3l0.1-0.3l0.1-0.3l0.1-0.2l0.2-0.2
		l0.3-0.2l0.4-0.3l1.3-1.4l0.3-0.2l0.4-0.1l0.4,0.1l0.3,0.1h0.3l1.6-0.7l0.3-0.1h0.2l0.1,0.2l-0.1,0.2v0.2v0.2l0.2,0.1l0.3-0.1
		l0.3-0.2l0.2-0.2l0.3-0.1l0.4,0.1l0.8,0.4l0.7,0.3l1.6,0.3l1.2,0.6l1,0.3l1.1,0.9l0.3,0.5l0.2,0.5v0.5l-0.3,0.9l-0.1,0.3l-0.2,0.3
		l-0.6,0.8l-0.2,0.5v0.4v0.3l0.1,0.4l-0.1,0.3l-0.4,0.8l-0.2,0.6l0.1,0.6l0.3,0.5l0.4,0.4l0.2,0.5v0.4l-0.1,0.4l-0.5,0.9l-1,1.5
		l-0.9,1.1l-0.3,0.5l-0.3,0.3l-0.3,0.2l-0.5-0.1h-0.4l-0.5,0.2l-0.4,0.4l-0.9,1.4l-0.4,0.7l0.1,0.4l0.2,0.2l0.6,0.1l0.3,0.1l0.2,0.2
		l0.2,0.3l0.3,0.2l0.7,0.2l0.3,0.2l0.2,0.3l0.7,1.6l0.2,0.4l0.6,0.7l0.2,0.4v0.4v1l0.5,1.6l0.1,0.2l0.1,0.1l0.1,0.1l0.5,0.3l0.6,0.7
		l0.2,0.8v0.5l-0.1,0.5l0.1,0.4l0.3,0.9v0.3l-0.2,0.1h-0.5l-0.2,0.1l-0.1,0.2l0.3,0.8l0.1,0.5l-0.1,0.5l-0.2,0.4l-0.4,1l-1.2,0.5
		l-0.2,0.2l-0.6,0.4l-1.1,0.5h-0.4l-0.4-0.2l-0.5-0.5l-0.4-0.2l-0.5-0.2l-1.1-0.6h-0.3l-0.4,0.1l-1.6,0.8h-0.5l-0.3-0.1l-0.2-0.1
		l-0.8-0.6l-0.3-0.2l-0.3-0.1h-0.4l-0.2-0.1l-0.2-0.2l-0.3-0.6l-0.2-0.2l-0.2-0.2l-0.1-0.1l-0.1-0.1l-0.1-0.4l-0.1-0.3l-0.2-0.2
		l-0.5-0.3l-0.7-0.5l-0.3-0.1l-0.3,0.1l-0.2,0.1l-0.6,0.3l-1.5,0.3l-0.5,0.2l-0.6,0.3H386h-0.2l-0.3-0.2l-0.1-0.1l-0.2,0.1l-0.2,0.3
		l-0.7,1.5l-1.1,1.7l-0.1,0.6l-0.1,2.4l-1.4-0.6l-0.8-0.5l-0.7-0.6l-0.2-0.3l-0.3-0.6l-0.3-0.2l-0.3-0.1l-2.9,0.9L375,381v-1.1
		l0.5-1.6l0.1-0.8l0.1-0.4l0.1-1.1l-0.3-1.8l-0.5-1.5l-0.3-0.6l-0.2-0.4l-0.3-0.1l-0.2,0.1h-0.3l-0.3-0.3l-0.4-0.7l-0.1-0.5
		l-0.1-0.6l-0.8-1.4l0.8-1.5l0.4-1.5l0.2-0.3l0.3-0.2l0.3-0.1h0.3l0.4,0.1l0.9,0.3l0.4,0.1h0.4h0.3l0.3,0.1l0.5,0.4h0.2l0.1-0.3
		l0.1-0.2l0.3-0.2l2.6-0.5h0.6l0.9,0.2h0.5l0.6-0.2l0.4-0.1h0.8l0.3-0.2l0.4-0.7l0.3-0.3l0.2-0.4v-0.4l-0.2-0.6l-0.3-0.5l-0.3-0.3
		l-0.3-0.2l-0.6-0.2l-0.3-0.2l-0.2-0.2l-0.2-0.3l-0.1-0.4V359l0.1-0.5l0.1-1.3l0.2-0.8l0.2-0.4v-0.3l-0.1-0.5l0.6-1l0.2-1.3l0.2-0.4
		l1.2-1.8l0.1-0.5l-0.1-0.4l-0.5-0.6l-0.2-0.2L384.9,348.3z"/>
	<path class="st1" d="M372,368.3l0.8,1.4l0.1,0.6l0.1,0.5l0.4,0.7l0.3,0.3h0.3l0.2-0.1l0.3,0.1l0.2,0.4l0.3,0.6l0.5,1.5l0.3,1.8
		l-0.1,1.1l-0.1,0.4l-0.1,0.8L375,380v1.1l0.6,0.9l0.2,0.6l0.7,1l0.2,0.3v0.3l-0.3,2.1l-0.3,1.2l-0.2,1.2l-0.1,0.5l-0.2,0.5
		l-0.2,0.4l-0.3,0.3l-0.3,0.3l-0.2,0.3l-0.5,0.4l-0.8,0.4l-1.8,0.5H370l-1.4-0.3h-0.3l-0.3,0.2v0.3l0.3,0.6l-0.3,0.4l-0.5,0.6
		l-2,0.8v-0.6l-0.1-0.3l-0.2-0.3l-0.3-0.3l-0.6-0.3l-0.2-0.2l-0.2-0.3l-0.2-0.3l-0.3-0.2l-0.3,0.1h-0.4l-0.3-0.1l-0.3-0.2l-0.1-0.2
		l-0.1-0.3v-0.5v-0.4l-0.1-0.4l-0.4-0.8l-0.4-0.6l-0.3-0.6V388l0.5-3.5V384l-0.1-0.5l-0.3-1.4v-0.4l0.3-1.1v-0.5l-1.4-1.7l-0.7-0.6
		l1.4-1.2l0.5-0.2l0.6-0.1l0.4,0.1l0.3,0.1l0.2-0.1l0.2-0.3l0.2-0.3l0.2-0.4l0.5-2.3l0.1-0.3l0.1-0.2l0.2,0.1l0.2,0.1l0.3,0.3
		l0.3,0.2h0.3l0.3-0.1l0.6-0.6l0.7-0.3l0.3-0.1h0.4h0.2l0.2-0.3v-0.3v-0.3V371l0.1-0.2h0.3l0.3,0.1l0.3-0.1l0.2-0.4v-0.3l-0.1-0.3
		l-0.2-0.6v-0.5v-0.2l-0.2-0.5v-0.2l0.1-0.3l0.5-0.2l0.5-0.1L372,368.3z"/>
	<path class="st1" d="M433.2,358.3l0.4-0.4l0.4-0.6l0,0l0,0l0.1-0.3l0.1-0.2l0.2-0.2l0.3-0.2l0.5-0.1l1.9-1.2l2.5-1.2l1.5-0.6
		l0.4-0.3l0.2-0.3v-0.5v-0.4l0.1-0.3l0.1-0.3l1-1.6l0.5-0.6l0.1-0.1h0.7l1,0.4h0.4l0.1,0.1l0.8,0.4l1.8,0.4l1.9,0.2l0.8,0.3l0.8,0.5
		l0.7,0.6l1-0.5l1.2,0.1l1.2,0.4l1.6,0.8l0.1,0.4l0.2,0.5l0.6,0.8l0.3,0.3l0.2,0.1l0.5,0.2l0.8,1.3l0.3,0.6l0.9,2.5l0.2,0.5l0.5,0.7
		l0.2,0.4l0.1,0.6l0.1,0.6l-0.3,2.2l-1.5-0.4l-1.2-0.2l-0.4,0.1l-0.2,0.1l-0.2,0.3l-0.2,0.1h-0.2h-1.6l-0.4,0.1l-0.3,0.2l-0.3,0.3
		l-1.7,0.2l-0.2-0.2l-0.1-0.2l-0.1-0.2l-0.2-0.1h-0.2l-0.4,0.1l-0.6,0.4l-0.4,0.2l-0.5,0.1h-0.6l-0.7-0.1l-2.4-1.5l-0.5-0.2
		l-5.3-1.4l-0.4-0.2l-0.8-0.6h-0.2l-0.3,0.1l-1,0.6l-0.8,0.7l-1.3-0.1l-1-0.2l-0.8-0.3l-2.1-1.3l-0.4-1.7L433.2,358.3z"/>
	<path class="st1" d="M420.6,368.8l-0.4-0.6l-0.2-0.8l-0.1-0.7l0.1-0.4l0.6-0.7l0.1-0.3l-0.1-0.3l-0.3-0.3l-0.2-0.4V364l0.9-2
		l0.2-0.2h0.2l0.5,0.3h0.3l0.2-0.2l0.2-0.2l1.3-2.4l0.3-0.4l0.3-0.2h0.3l0.7,0.2l0.7,0.4l0.2,0.2l0.1,0.2v0.2v0.3l0.1,0.3l0.2,0.2
		l0.3,0.1l1.3-0.4h0.3l0.6,0.1h0.4l0.3,0.1l0.2,0.2l0.1,0.3l0.1,0.3l0.2,0.3l0.3,0.1h0.3h0.3l0.4-0.2l1.3-1.1l2.1,1.3l0.8,0.3l1,0.2
		l1.3,0.1l0.6,0.6l0.6,1.7l0.2,0.5l0.3,0.4l1.1,1.1l2.2,1.3l-0.2,0.7l0.1,1v0.4l-0.3,1.4l-0.2,0.4l-0.2,0.4l-0.3,0.3l-2.2,1.2
		l-0.5,0.2l-0.5,0.3l-0.5,0.4l-0.7,1.1l-0.1,0.6l-1.8,0.5l-3.3,0.4l-0.6-0.2l-0.4-0.3l-0.2-0.3l-0.3-0.2l-0.6-0.1l-0.5-0.3l-0.9-0.8
		h-0.3l-0.2,0.2l-0.2,0.4l-0.1,0.5l-0.2,1.6l-0.3,1.1v1.1l0.1,0.8l0.1,0.4v0.4v0.2v0.2l-0.1,0.2l-0.1,0.2l-0.3,0.3l-0.4,0.3
		l-0.4,0.1h-0.4l-0.3-0.1l-0.3-0.2l-0.5-0.5l-0.4-0.3l-0.2-0.4l-0.2-0.5l-0.4-1.8l-0.2-0.4l-0.4-0.2l-0.6-0.1l-0.5,0.1l-0.5,0.2
		l-0.4-0.1l-0.3-0.2l-0.1-0.3V378v-0.3v-0.3L421,377v-0.4l0.2-0.8l0.1-0.5l-0.1-0.8v-0.3l0.2-0.6v-0.3V372l-0.1-0.5l-0.4-1.2
		l-0.1-0.9l-0.1-0.3L420.6,368.8z"/>
	<path class="st1" d="M366.5,396.8l0.3,0.1l0.1,0.1l0.1,0.2l0.1,0.3l0.1,0.4l0.2,0.6l-0.2,0.3l-0.6,0.2v0.1l0.1,0.1l0.3,0.2l0.1,0.2
		v0.4l-0.1,0.5v0.4l0.2,0.4l0.4,0.3l0.5,0.3l0.4,0.2h0.4h0.3l0.3,0.1l0.2,0.2l0.2,0.6l0.2,0.2l0.5,0.1l0.1,0.2l0.1,0.3v0.4l-0.2,0.4
		l-0.6,0.6l-0.5,0.2l-1.1,0.2l-0.5,0.2l-0.4,0.3l-0.2,0.5v0.5l0.1,0.4l0.2,0.4l0.6,1.5v0.3l-0.1,0.3l0.1,0.4l0.2,0.4l0.1,0.4v0.4
		l-0.3,1.2l0.1,1.5v0.4l-0.6,2.3l0.1,0.4l0.3,0.5l-0.1,0.2l-0.3,0.1h-1.3l-0.4,0.2l-0.3,0.4l-0.3,0.7l-0.1,0.5l-0.3,0.5l-0.4,0.6
		l-0.8,0.5l-0.1,0.2l-0.1,0.1h-0.4l-0.2,0.2l-0.2,0.6l-0.2,0.4l-0.7,0.4l-0.8-1l-0.4-0.1l-0.4-0.1l-0.4,0.1l-0.3,0.1l-0.3,0.1H359
		l-1-0.3h-0.4l-0.3,0.1l-0.4,0.2l-0.4,0.4l-0.2,0.1h-0.2l-0.2-0.2l-0.2-0.3l-0.1-0.5l0.1-0.8l0.2-0.6l0.1-0.5l-0.2-0.7l-0.5-0.6
		L355,418l-0.2-0.4l-0.1-0.2l-0.3-0.2l-0.2-0.3l-0.1-0.4l0.2-0.5l0.6-0.9l0.3-0.5l0.7-0.8l0.4-0.8l0.2-0.3l0.2-0.2l0.3-0.1h1
		l0.2-0.2v-0.4l-0.4-0.7l-0.6-0.7L357,410l-0.1-1.2l-0.3-1.5l0.3-0.1l0.1-0.2l0.1-0.2v-0.6l0.2-0.8V405l-0.1-0.5l-0.2-0.9l-0.4-0.7
		l-0.2-0.3l-0.4-0.3l-0.1-0.2v-0.3l0.6-1.4l0.5-2.2l0.2-0.5l0.3-0.5l0.5-1.6l0.4,0.3l0.4,0.5l0.3,0.2l0.4,0.2l1,0.3l0.2,0.1l0.4,0.2
		h0.4l0.6-0.3l0.4-0.3l0.5-0.2h0.6l0.8,0.3l0.5,0.3l0.3,0.2h0.2l0.3-0.1l0.2-0.2L366.5,396.8z"/>
</g>
</svg>
